<svg xmlns="http://www.w3.org/2000/svg" width="90" height="78.658" viewBox="0 0 90 78.658"><defs><style>.a{fill:#2699fb;}</style></defs><path class="a" d="M84,0a5.338,5.338,0,0,1,3.75,1.748C89.25,3.5,90,4.37,90,6.992V72.54a7.29,7.29,0,0,1-1.5,4.37c-1.5.874-2.25,1.748-4.5,1.748H6c-2.25,0-3-.874-4.5-1.748C.75,75.162,0,74.288,0,71.666V6.992a7.29,7.29,0,0,1,1.5-4.37C3,.874,3.75,0,6,0ZM25.5,15.732a7.87,7.87,0,0,0-6-2.622,7.87,7.87,0,0,0-6,2.622,10.909,10.909,0,0,0-2.25,6.992,10.909,10.909,0,0,0,2.25,6.992,7.87,7.87,0,0,0,6,2.622,7.87,7.87,0,0,0,6-2.622,10.909,10.909,0,0,0,2.25-6.992A10.909,10.909,0,0,0,25.5,15.732ZM78.75,65.548,56.25,26.219,36,56.809,22.5,45.447l-11.25,20.1Z"/></svg>