<svg width="132" height="110" viewBox="0 0 132 110" fill="none" xmlns="http://www.w3.org/2000/svg">
<path fill-rule="evenodd" clip-rule="evenodd" d="M1.97048 39.7718C1.32452 40.7395 1 41.8504 1 43.0139C1 50.5003 1 80.0879 1.00001 101.507C1.00001 103.163 2.33792 104.5 3.99477 104.5C22.3122 104.5 48.0148 104.5 48.0148 104.5C46.8354 103.941 46.0001 103.5 46.0001 103.5C39.0001 98.5 34.6682 90.4757 33.5001 83C31.0001 67 36.0795 57 45.0001 49.5C49.7578 45.5 56.0001 44.5 61.5001 44.5C64 44 68.2886 44.5 70.2886 45C70.319 44.6042 70.333 44.1487 70.3373 43.6943C70.3524 42.0804 69.8673 40.5183 69.0472 39.1282C60.5433 24.7139 45.9901 1 36.9524 1C28.345 1 6.79913 32.5381 1.97048 39.7718ZM36.873 21.2381C40.3796 21.2381 43.2222 18.3955 43.2222 14.8889C43.2222 11.3823 40.3796 8.53968 36.873 8.53968C33.3664 8.53968 30.5238 11.3823 30.5238 14.8889C30.5238 18.3955 33.3664 21.2381 36.873 21.2381Z" fill="url(#paint0_linear)"/>
<path d="M83 76C83 85.9411 78.299 94 72.5 94C66.701 94 62 85.9411 62 76C62 66.0589 66.701 58 72.5 58C78.299 58 83 66.0589 83 76Z" fill="url(#paint1_linear)"/>
<path d="M45.0001 49.5L44.3566 48.7346L45.0001 49.5ZM33.5001 83L32.5121 83.1544L33.5001 83ZM47 58.5L47.8851 58.9655L47 58.5ZM42.5 77.5085C42.5047 78.0607 42.9562 78.5046 43.5085 78.5C44.0607 78.4953 44.5046 78.0438 44.5 77.4915L42.5 77.5085ZM54.5 72.5L55.4859 72.6675L54.5 72.5ZM61.7788 99.1927C62.1614 99.591 62.7945 99.6038 63.1927 99.2212C63.591 98.8386 63.6038 98.2055 63.2212 97.8073L61.7788 99.1927ZM46.0001 103.5L45.4189 104.314L45.4738 104.353L45.5335 104.384L46.0001 103.5ZM76 48.5V49.5H77.8964L76.8252 47.9351L76 48.5ZM62 108L62.0242 109L62 108ZM74.9984 105.367C75.4772 105.092 75.6422 104.48 75.3669 104.002C75.0917 103.523 74.4804 103.358 74.0016 103.633L74.9984 105.367ZM69.0472 39.1282L69.9084 38.6201L69.0472 39.1282ZM70.3373 43.6943L69.3373 43.6849L70.3373 43.6943ZM36.9524 0C35.5992 0 34.1286 0.60763 32.6514 1.51795C31.152 2.44194 29.5318 3.74984 27.8538 5.30807C24.4958 8.42629 20.8096 12.6379 17.265 17.0467C10.171 25.8703 3.55797 35.5924 1.13875 39.2166L2.8022 40.327C5.21164 36.7175 11.7858 27.0537 18.8237 18.2998C22.3452 13.9198 25.9611 9.79487 29.2147 6.77364C30.8424 5.26214 32.3554 4.04962 33.7007 3.22061C35.0681 2.37794 36.1537 2 36.9524 2V0ZM42.2222 14.8889C42.2222 17.8432 39.8273 20.2381 36.873 20.2381V22.2381C40.9319 22.2381 44.2222 18.9477 44.2222 14.8889H42.2222ZM36.873 20.2381C33.9187 20.2381 31.5238 17.8432 31.5238 14.8889H29.5238C29.5238 18.9477 32.8142 22.2381 36.873 22.2381V20.2381ZM31.5238 14.8889C31.5238 11.9346 33.9187 9.53968 36.873 9.53968V7.53968C32.8142 7.53968 29.5238 10.83 29.5238 14.8889H31.5238ZM36.873 9.53968C39.8273 9.53968 42.2222 11.9346 42.2222 14.8889H44.2222C44.2222 10.83 40.9319 7.53968 36.873 7.53968V9.53968ZM44.3566 48.7346C39.7977 52.5675 36.1791 57.0753 34.0329 62.7064C31.8869 68.337 31.2408 75.0179 32.5121 83.1544L34.4881 82.8456C33.2594 74.9821 33.903 68.663 35.9018 63.4186C37.9005 58.1747 41.2819 53.9325 45.6436 50.2654L44.3566 48.7346ZM61.5001 43.5C55.9108 43.5 49.3813 44.51 44.3566 48.7346L45.6436 50.2654C50.1342 46.49 56.0894 45.5 61.5001 45.5V43.5ZM60.8579 43.7335C60.8617 43.7303 60.8524 43.7382 60.8208 43.7606C60.7915 43.7814 60.752 43.8083 60.7004 43.8424C60.5967 43.9109 60.4616 43.9969 60.2921 44.1039C59.9572 44.3151 59.505 44.5976 58.9737 44.9424C57.9087 45.6337 56.5129 46.5842 54.9982 47.786C51.9785 50.1821 48.4403 53.6128 46.1149 58.0345L47.8851 58.9655C50.0298 54.8872 53.3329 51.6605 56.2413 49.3528C57.6907 48.2028 59.0307 47.2898 60.0626 46.62C60.5799 46.2843 61.0164 46.0117 61.3593 45.7953C61.6658 45.6019 61.9747 45.407 62.1424 45.2665L60.8579 43.7335ZM46.1149 58.0345C42.8375 64.2667 42.4436 70.8503 42.5 77.5085L44.5 77.4915C44.444 70.8895 44.8518 64.7333 47.8851 58.9655L46.1149 58.0345ZM53.5141 72.3325C51.9663 81.4423 54.1793 91.2813 61.7788 99.1927L63.2212 97.8073C56.102 90.3959 54.0339 81.2134 55.4859 72.6675L53.5141 72.3325ZM32.5121 83.1544C33.7172 90.8668 38.1776 99.1414 45.4189 104.314L46.5813 102.686C39.8226 97.8586 35.6192 90.0845 34.4881 82.8456L32.5121 83.1544ZM36.9524 2C38.82 2 41.1821 3.25648 43.9216 5.67957C46.6173 8.0639 49.5031 11.4184 52.4016 15.261C58.1949 22.9413 63.9339 32.4292 68.1859 39.6363L69.9084 38.6201C65.6565 31.413 59.867 21.8368 53.9983 14.0566C51.0658 10.1689 48.0872 6.69397 45.2466 4.18148C42.4499 1.70776 39.6036 0 36.9524 0V2ZM46.0001 103.5C45.5335 104.384 45.5336 104.384 45.5336 104.385C45.5336 104.385 45.5336 104.385 45.5337 104.385C45.5337 104.385 45.5338 104.385 45.5339 104.385C45.5341 104.385 45.5343 104.385 45.5345 104.385C45.5351 104.385 45.5358 104.386 45.5368 104.386C45.5387 104.387 45.5414 104.389 45.5449 104.39C45.5518 104.394 45.562 104.399 45.5751 104.406C45.6014 104.42 45.6399 104.44 45.6895 104.466C45.7888 104.517 45.9329 104.591 46.114 104.683C46.4762 104.866 46.9875 105.12 47.5862 105.404L48.4433 103.596C47.8626 103.321 47.3666 103.075 47.0163 102.898C46.8412 102.809 46.7028 102.738 46.6086 102.689C46.5615 102.665 46.5255 102.646 46.5015 102.634C46.4895 102.628 46.4805 102.623 46.4747 102.62C46.4718 102.618 46.4696 102.617 46.4683 102.616C46.4676 102.616 46.4671 102.616 46.4669 102.616C46.4667 102.616 46.4667 102.616 46.4666 102.615C46.4666 102.615 46.4666 102.615 46.4666 102.615C46.4666 102.615 46.4666 102.615 46.4666 102.615C46.4667 102.616 46.4667 102.616 46.0001 103.5ZM48.0148 104.5C48.0148 103.5 48.0147 103.5 48.0145 103.5C48.0143 103.5 48.014 103.5 48.0136 103.5C48.0132 103.5 48.0127 103.5 48.0121 103.5C48.0116 103.5 48.0109 103.5 48.0101 103.5C48.0093 103.5 48.0084 103.5 48.0075 103.5C48.0065 103.5 48.0054 103.5 48.0042 103.5C48.0031 103.5 48.0018 103.5 48.0005 103.5C47.9991 103.5 47.9976 103.5 47.9961 103.5C47.9945 103.5 47.9929 103.5 47.9911 103.5C47.9894 103.5 47.9875 103.5 47.9856 103.5C47.9837 103.5 47.9816 103.5 47.9795 103.5C47.9774 103.5 47.9752 103.5 47.9729 103.5C47.9705 103.5 47.9681 103.5 47.9656 103.5C47.9631 103.5 47.9605 103.5 47.9578 103.5C47.9551 103.5 47.9523 103.5 47.9494 103.5C47.9465 103.5 47.9436 103.5 47.9405 103.5C47.9374 103.5 47.9342 103.5 47.931 103.5C47.9277 103.5 47.9244 103.5 47.9209 103.5C47.9175 103.5 47.9139 103.5 47.9103 103.5C47.9067 103.5 47.9029 103.5 47.8991 103.5C47.8953 103.5 47.8914 103.5 47.8873 103.5C47.8833 103.5 47.8792 103.5 47.875 103.5C47.8708 103.5 47.8666 103.5 47.8622 103.5C47.8578 103.5 47.8533 103.5 47.8488 103.5C47.8442 103.5 47.8395 103.5 47.8348 103.5C47.83 103.5 47.8252 103.5 47.8203 103.5C47.8153 103.5 47.8103 103.5 47.8052 103.5C47.8001 103.5 47.7949 103.5 47.7896 103.5C47.7843 103.5 47.7789 103.5 47.7734 103.5C47.7679 103.5 47.7624 103.5 47.7567 103.5C47.751 103.5 47.7453 103.5 47.7395 103.5C47.7336 103.5 47.7277 103.5 47.7217 103.5C47.7156 103.5 47.7095 103.5 47.7033 103.5C47.6971 103.5 47.6908 103.5 47.6844 103.5C47.6781 103.5 47.6716 103.5 47.665 103.5C47.6585 103.5 47.6518 103.5 47.6451 103.5C47.6383 103.5 47.6315 103.5 47.6246 103.5C47.6177 103.5 47.6107 103.5 47.6036 103.5C47.5965 103.5 47.5893 103.5 47.582 103.5C47.5747 103.5 47.5674 103.5 47.5599 103.5C47.5525 103.5 47.5449 103.5 47.5373 103.5C47.5297 103.5 47.522 103.5 47.5142 103.5C47.5064 103.5 47.4985 103.5 47.4905 103.5C47.4825 103.5 47.4745 103.5 47.4663 103.5C47.4582 103.5 47.4499 103.5 47.4416 103.5C47.4333 103.5 47.4249 103.5 47.4164 103.5C47.4079 103.5 47.3993 103.5 47.3906 103.5C47.3819 103.5 47.3732 103.5 47.3643 103.5C47.3555 103.5 47.3466 103.5 47.3375 103.5C47.3285 103.5 47.3194 103.5 47.3102 103.5C47.3011 103.5 47.2918 103.5 47.2824 103.5C47.2731 103.5 47.2636 103.5 47.2541 103.5C47.2446 103.5 47.2349 103.5 47.2252 103.5C47.2155 103.5 47.2057 103.5 47.1959 103.5C47.186 103.5 47.1761 103.5 47.166 103.5C47.156 103.5 47.1459 103.5 47.1356 103.5C47.1254 103.5 47.1151 103.5 47.1048 103.5C47.0944 103.5 47.0839 103.5 47.0734 103.5C47.0628 103.5 47.0522 103.5 47.0415 103.5C47.0308 103.5 47.02 103.5 47.0091 103.5C46.9982 103.5 46.9873 103.5 46.9762 103.5C46.9652 103.5 46.9541 103.5 46.9428 103.5C46.9316 103.5 46.9203 103.5 46.909 103.5C46.8976 103.5 46.8861 103.5 46.8746 103.5C46.8631 103.5 46.8514 103.5 46.8397 103.5C46.828 103.5 46.8162 103.5 46.8044 103.5C46.7925 103.5 46.7806 103.5 46.7685 103.5C46.7565 103.5 46.7444 103.5 46.7322 103.5C46.72 103.5 46.7077 103.5 46.6954 103.5C46.683 103.5 46.6706 103.5 46.658 103.5C46.6455 103.5 46.6329 103.5 46.6202 103.5C46.6076 103.5 46.5948 103.5 46.582 103.5C46.5691 103.5 46.5562 103.5 46.5432 103.5C46.5302 103.5 46.5171 103.5 46.504 103.5C46.4908 103.5 46.4776 103.5 46.4642 103.5C46.4509 103.5 46.4375 103.5 46.424 103.5C46.4105 103.5 46.397 103.5 46.3834 103.5C46.3697 103.5 46.356 103.5 46.3422 103.5C46.3284 103.5 46.3145 103.5 46.3006 103.5C46.2866 103.5 46.2726 103.5 46.2585 103.5C46.2444 103.5 46.2302 103.5 46.2159 103.5C46.2017 103.5 46.1873 103.5 46.1729 103.5C46.1585 103.5 46.144 103.5 46.1294 103.5C46.1148 103.5 46.1002 103.5 46.0854 103.5C46.0707 103.5 46.0559 103.5 46.041 103.5C46.0261 103.5 46.0111 103.5 45.9961 103.5C45.9811 103.5 45.9659 103.5 45.9507 103.5C45.9356 103.5 45.9203 103.5 45.9049 103.5C45.8896 103.5 45.8742 103.5 45.8587 103.5C45.8432 103.5 45.8276 103.5 45.8119 103.5C45.7963 103.5 45.7806 103.5 45.7648 103.5C45.749 103.5 45.7331 103.5 45.7171 103.5C45.7012 103.5 45.6851 103.5 45.669 103.5C45.6529 103.5 45.6367 103.5 45.6205 103.5C45.6042 103.5 45.5879 103.5 45.5715 103.5C45.5551 103.5 45.5386 103.5 45.5221 103.5C45.5055 103.5 45.4889 103.5 45.4722 103.5C45.4555 103.5 45.4387 103.5 45.4219 103.5C45.405 103.5 45.3881 103.5 45.3711 103.5C45.3541 103.5 45.337 103.5 45.3199 103.5C45.3027 103.5 45.2855 103.5 45.2682 103.5C45.2509 103.5 45.2336 103.5 45.2161 103.5C45.1987 103.5 45.1812 103.5 45.1636 103.5C45.146 103.5 45.1284 103.5 45.1106 103.5C45.0929 103.5 45.0751 103.5 45.0572 103.5C45.0394 103.5 45.0214 103.5 45.0034 103.5C44.9854 103.5 44.9673 103.5 44.9491 103.5C44.931 103.5 44.9127 103.5 44.8944 103.5C44.8761 103.5 44.8578 103.5 44.8393 103.5C44.8209 103.5 44.8024 103.5 44.7838 103.5C44.7652 103.5 44.7465 103.5 44.7278 103.5C44.7091 103.5 44.6903 103.5 44.6714 103.5C44.6525 103.5 44.6336 103.5 44.6146 103.5C44.5956 103.5 44.5765 103.5 44.5573 103.5C44.5382 103.5 44.519 103.5 44.4997 103.5C44.4804 103.5 44.461 103.5 44.4416 103.5C44.4222 103.5 44.4027 103.5 44.3831 103.5C44.3635 103.5 44.3439 103.5 44.3242 103.5C44.3045 103.5 44.2847 103.5 44.2649 103.5C44.245 103.5 44.2251 103.5 44.2051 103.5C44.1851 103.5 44.1651 103.5 44.145 103.5C44.1248 103.5 44.1047 103.5 44.0844 103.5C44.0642 103.5 44.0438 103.5 44.0234 103.5C44.003 103.5 43.9826 103.5 43.9621 103.5C43.9415 103.5 43.9209 103.5 43.9003 103.5C43.8796 103.5 43.8589 103.5 43.8381 103.5C43.8173 103.5 43.7965 103.5 43.7755 103.5C43.7546 103.5 43.7336 103.5 43.7125 103.5C43.6915 103.5 43.6703 103.5 43.6492 103.5C43.628 103.5 43.6067 103.5 43.5854 103.5C43.564 103.5 43.5427 103.5 43.5212 103.5C43.4997 103.5 43.4782 103.5 43.4566 103.5C43.435 103.5 43.4134 103.5 43.3917 103.5C43.3699 103.5 43.3482 103.5 43.3263 103.5C43.3045 103.5 43.2825 103.5 43.2606 103.5C43.2386 103.5 43.2165 103.5 43.1944 103.5C43.1723 103.5 43.1501 103.5 43.1279 103.5C43.1057 103.5 43.0834 103.5 43.061 103.5C43.0386 103.5 43.0162 103.5 42.9937 103.5C42.9712 103.5 42.9487 103.5 42.926 103.5C42.9034 103.5 42.8807 103.5 42.858 103.5C42.8352 103.5 42.8124 103.5 42.7895 103.5C42.7667 103.5 42.7437 103.5 42.7207 103.5C42.6977 103.5 42.6747 103.5 42.6515 103.5C42.6284 103.5 42.6052 103.5 42.582 103.5C42.5587 103.5 42.5354 103.5 42.512 103.5C42.4887 103.5 42.4652 103.5 42.4417 103.5C42.4182 103.5 42.3947 103.5 42.371 103.5C42.3474 103.5 42.3237 103.5 42.3 103.5C42.2763 103.5 42.2524 103.5 42.2286 103.5C42.2047 103.5 42.1808 103.5 42.1568 103.5C42.1328 103.5 42.1088 103.5 42.0846 103.5C42.0605 103.5 42.0364 103.5 42.0121 103.5C41.9879 103.5 41.9636 103.5 41.9393 103.5C41.9149 103.5 41.8905 103.5 41.866 103.5C41.8415 103.5 41.817 103.5 41.7924 103.5C41.7678 103.5 41.7432 103.5 41.7185 103.5C41.6938 103.5 41.669 103.5 41.6442 103.5C41.6193 103.5 41.5944 103.5 41.5695 103.5C41.5445 103.5 41.5195 103.5 41.4945 103.5C41.4694 103.5 41.4443 103.5 41.4191 103.5C41.3939 103.5 41.3687 103.5 41.3434 103.5C41.3181 103.5 41.2927 103.5 41.2673 103.5C41.2419 103.5 41.2164 103.5 41.1909 103.5C41.1654 103.5 41.1398 103.5 41.1142 103.5C41.0885 103.5 41.0628 103.5 41.037 103.5C41.0113 103.5 40.9855 103.5 40.9596 103.5C40.9337 103.5 40.9078 103.5 40.8818 103.5C40.8558 103.5 40.8298 103.5 40.8037 103.5C40.7776 103.5 40.7514 103.5 40.7252 103.5C40.699 103.5 40.6727 103.5 40.6464 103.5C40.6201 103.5 40.5937 103.5 40.5673 103.5C40.5408 103.5 40.5143 103.5 40.4878 103.5C40.4613 103.5 40.4347 103.5 40.408 103.5C40.3813 103.5 40.3546 103.5 40.3279 103.5C40.3011 103.5 40.2743 103.5 40.2474 103.5C40.2205 103.5 40.1936 103.5 40.1666 103.5C40.1396 103.5 40.1126 103.5 40.0855 103.5C40.0584 103.5 40.0312 103.5 40.004 103.5C39.9768 103.5 39.9496 103.5 39.9223 103.5C39.895 103.5 39.8676 103.5 39.8402 103.5C39.8128 103.5 39.7853 103.5 39.7578 103.5C39.7302 103.5 39.7027 103.5 39.675 103.5C39.6474 103.5 39.6197 103.5 39.592 103.5C39.5643 103.5 39.5365 103.5 39.5086 103.5C39.4808 103.5 39.4529 103.5 39.4249 103.5C39.397 103.5 39.369 103.5 39.341 103.5C39.3129 103.5 39.2848 103.5 39.2567 103.5C39.2285 103.5 39.2003 103.5 39.172 103.5C39.1438 103.5 39.1155 103.5 39.0871 103.5C39.0588 103.5 39.0304 103.5 39.0019 103.5C38.9734 103.5 38.9449 103.5 38.9164 103.5C38.8878 103.5 38.8592 103.5 38.8305 103.5C38.8019 103.5 38.7731 103.5 38.7444 103.5C38.7156 103.5 38.6868 103.5 38.6579 103.5C38.6291 103.5 38.6002 103.5 38.5712 103.5C38.5422 103.5 38.5132 103.5 38.4841 103.5C38.4551 103.5 38.426 103.5 38.3968 103.5C38.3676 103.5 38.3384 103.5 38.3092 103.5C38.2799 103.5 38.2506 103.5 38.2212 103.5C38.1919 103.5 38.1625 103.5 38.133 103.5C38.1036 103.5 38.0741 103.5 38.0445 103.5C38.015 103.5 37.9854 103.5 37.9557 103.5C37.9261 103.5 37.8964 103.5 37.8666 103.5C37.8369 103.5 37.8071 103.5 37.7772 103.5C37.7474 103.5 37.7175 103.5 37.6876 103.5C37.6577 103.5 37.6277 103.5 37.5976 103.5C37.5676 103.5 37.5375 103.5 37.5074 103.5C37.4773 103.5 37.4471 103.5 37.4169 103.5C37.3867 103.5 37.3564 103.5 37.3261 103.5C37.2958 103.5 37.2655 103.5 37.2351 103.5C37.2047 103.5 37.1742 103.5 37.1437 103.5C37.1132 103.5 37.0827 103.5 37.0521 103.5C37.0215 103.5 36.9909 103.5 36.9602 103.5C36.9295 103.5 36.8988 103.5 36.8681 103.5C36.8373 103.5 36.8065 103.5 36.7756 103.5C36.7448 103.5 36.7139 103.5 36.6829 103.5C36.652 103.5 36.621 103.5 36.59 103.5C36.5589 103.5 36.5279 103.5 36.4967 103.5C36.4656 103.5 36.4344 103.5 36.4032 103.5C36.372 103.5 36.3408 103.5 36.3095 103.5C36.2782 103.5 36.2468 103.5 36.2155 103.5C36.1841 103.5 36.1526 103.5 36.1212 103.5C36.0897 103.5 36.0582 103.5 36.0266 103.5C35.9951 103.5 35.9635 103.5 35.9318 103.5C35.9002 103.5 35.8685 103.5 35.8368 103.5C35.8051 103.5 35.7733 103.5 35.7415 103.5C35.7097 103.5 35.6778 103.5 35.6459 103.5C35.614 103.5 35.5821 103.5 35.5501 103.5C35.5181 103.5 35.4861 103.5 35.4541 103.5C35.422 103.5 35.3899 103.5 35.3578 103.5C35.3256 103.5 35.2934 103.5 35.2612 103.5C35.229 103.5 35.1967 103.5 35.1644 103.5C35.1321 103.5 35.0998 103.5 35.0674 103.5C35.035 103.5 35.0025 103.5 34.9701 103.5C34.9376 103.5 34.9051 103.5 34.8726 103.5C34.84 103.5 34.8074 103.5 34.7748 103.5C34.7422 103.5 34.7095 103.5 34.6768 103.5C34.6441 103.5 34.6113 103.5 34.5786 103.5C34.5458 103.5 34.5129 103.5 34.4801 103.5C34.4472 103.5 34.4143 103.5 34.3814 103.5C34.3484 103.5 34.3155 103.5 34.2824 103.5C34.2494 103.5 34.2164 103.5 34.1833 103.5C34.1502 103.5 34.117 103.5 34.0839 103.5C34.0507 103.5 34.0175 103.5 33.9842 103.5C33.951 103.5 33.9177 103.5 33.8844 103.5C33.8511 103.5 33.8177 103.5 33.7843 103.5C33.7509 103.5 33.7175 103.5 33.684 103.5C33.6506 103.5 33.6171 103.5 33.5835 103.5C33.55 103.5 33.5164 103.5 33.4828 103.5C33.4492 103.5 33.4155 103.5 33.3818 103.5C33.3481 103.5 33.3144 103.5 33.2806 103.5C33.2469 103.5 33.2131 103.5 33.1792 103.5C33.1454 103.5 33.1115 103.5 33.0776 103.5C33.0437 103.5 33.0098 103.5 32.9758 103.5C32.9419 103.5 32.9078 103.5 32.8738 103.5C32.8398 103.5 32.8057 103.5 32.7716 103.5C32.7374 103.5 32.7033 103.5 32.6691 103.5C32.6349 103.5 32.6007 103.5 32.5665 103.5C32.5322 103.5 32.4979 103.5 32.4636 103.5C32.4293 103.5 32.3949 103.5 32.3605 103.5C32.3262 103.5 32.2917 103.5 32.2573 103.5C32.2228 103.5 32.1883 103.5 32.1538 103.5C32.1193 103.5 32.0847 103.5 32.0502 103.5C32.0156 103.5 31.9809 103.5 31.9463 103.5C31.9116 103.5 31.877 103.5 31.8422 103.5C31.8075 103.5 31.7728 103.5 31.738 103.5C31.7032 103.5 31.6684 103.5 31.6335 103.5C31.5987 103.5 31.5638 103.5 31.5289 103.5C31.494 103.5 31.459 103.5 31.4241 103.5C31.3891 103.5 31.3541 103.5 31.3191 103.5C31.284 103.5 31.249 103.5 31.2139 103.5C31.1788 103.5 31.1436 103.5 31.1085 103.5C31.0733 103.5 31.0381 103.5 31.0029 103.5C30.9677 103.5 30.9324 103.5 30.8971 103.5C30.8618 103.5 30.8265 103.5 30.7912 103.5C30.7558 103.5 30.7205 103.5 30.6851 103.5C30.6497 103.5 30.6142 103.5 30.5788 103.5C30.5433 103.5 30.5078 103.5 30.4723 103.5C30.4368 103.5 30.4012 103.5 30.3656 103.5C30.3301 103.5 30.2945 103.5 30.2588 103.5C30.2232 103.5 30.1875 103.5 30.1518 103.5C30.1161 103.5 30.0804 103.5 30.0447 103.5C30.0089 103.5 29.9731 103.5 29.9373 103.5C29.9015 103.5 29.8657 103.5 29.8298 103.5C29.7939 103.5 29.7581 103.5 29.7221 103.5C29.6862 103.5 29.6503 103.5 29.6143 103.5C29.5783 103.5 29.5423 103.5 29.5063 103.5C29.4703 103.5 29.4342 103.5 29.3981 103.5C29.3621 103.5 29.3259 103.5 29.2898 103.5C29.2537 103.5 29.2175 103.5 29.1813 103.5C29.1451 103.5 29.1089 103.5 29.0727 103.5C29.0364 103.5 29.0002 103.5 28.9639 103.5C28.9276 103.5 28.8913 103.5 28.8549 103.5C28.8186 103.5 28.7822 103.5 28.7458 103.5C28.7094 103.5 28.673 103.5 28.6366 103.5C28.6001 103.5 28.5637 103.5 28.5272 103.5C28.4907 103.5 28.4541 103.5 28.4176 103.5C28.3811 103.5 28.3445 103.5 28.3079 103.5C28.2713 103.5 28.2347 103.5 28.198 103.5C28.1614 103.5 28.1247 103.5 28.088 103.5C28.0514 103.5 28.0146 103.5 27.9779 103.5C27.9412 103.5 27.9044 103.5 27.8676 103.5C27.8308 103.5 27.794 103.5 27.7572 103.5C27.7204 103.5 27.6835 103.5 27.6466 103.5C27.6098 103.5 27.5729 103.5 27.5359 103.5C27.499 103.5 27.4621 103.5 27.4251 103.5C27.3881 103.5 27.3512 103.5 27.3141 103.5C27.2771 103.5 27.2401 103.5 27.203 103.5C27.166 103.5 27.1289 103.5 27.0918 103.5C27.0547 103.5 27.0176 103.5 26.9805 103.5C26.9433 103.5 26.9061 103.5 26.869 103.5C26.8318 103.5 26.7946 103.5 26.7573 103.5C26.7201 103.5 26.6829 103.5 26.6456 103.5C26.6083 103.5 26.5711 103.5 26.5337 103.5C26.4964 103.5 26.4591 103.5 26.4218 103.5C26.3844 103.5 26.347 103.5 26.3096 103.5C26.2723 103.5 26.2348 103.5 26.1974 103.5C26.16 103.5 26.1225 103.5 26.0851 103.5C26.0476 103.5 26.0101 103.5 25.9726 103.5C25.9351 103.5 25.8976 103.5 25.86 103.5C25.8225 103.5 25.7849 103.5 25.7473 103.5C25.7098 103.5 25.6722 103.5 25.6345 103.5C25.5969 103.5 25.5593 103.5 25.5216 103.5C25.484 103.5 25.4463 103.5 25.4086 103.5C25.3709 103.5 25.3332 103.5 25.2955 103.5C25.2578 103.5 25.22 103.5 25.1822 103.5C25.1445 103.5 25.1067 103.5 25.0689 103.5C25.0311 103.5 24.9933 103.5 24.9555 103.5C24.9176 103.5 24.8798 103.5 24.8419 103.5C24.8041 103.5 24.7662 103.5 24.7283 103.5C24.6904 103.5 24.6525 103.5 24.6145 103.5C24.5766 103.5 24.5386 103.5 24.5007 103.5C24.4627 103.5 24.4247 103.5 24.3867 103.5C24.3488 103.5 24.3107 103.5 24.2727 103.5C24.2347 103.5 24.1967 103.5 24.1586 103.5C24.1205 103.5 24.0825 103.5 24.0444 103.5C24.0063 103.5 23.9682 103.5 23.9301 103.5C23.892 103.5 23.8538 103.5 23.8157 103.5C23.7775 103.5 23.7394 103.5 23.7012 103.5C23.663 103.5 23.6248 103.5 23.5866 103.5C23.5484 103.5 23.5102 103.5 23.472 103.5C23.4338 103.5 23.3955 103.5 23.3573 103.5C23.319 103.5 23.2807 103.5 23.2424 103.5C23.2042 103.5 23.1659 103.5 23.1276 103.5C23.0892 103.5 23.0509 103.5 23.0126 103.5C22.9742 103.5 22.9359 103.5 22.8975 103.5C22.8592 103.5 22.8208 103.5 22.7824 103.5C22.744 103.5 22.7056 103.5 22.6672 103.5C22.6288 103.5 22.5904 103.5 22.552 103.5C22.5135 103.5 22.4751 103.5 22.4366 103.5C22.3982 103.5 22.3597 103.5 22.3212 103.5C22.2827 103.5 22.2442 103.5 22.2057 103.5C22.1672 103.5 22.1287 103.5 22.0902 103.5C22.0517 103.5 22.0131 103.5 21.9746 103.5C21.936 103.5 21.8975 103.5 21.8589 103.5C21.8204 103.5 21.7818 103.5 21.7432 103.5C21.7046 103.5 21.666 103.5 21.6274 103.5C21.5888 103.5 21.5502 103.5 21.5115 103.5C21.4729 103.5 21.4343 103.5 21.3956 103.5C21.357 103.5 21.3183 103.5 21.2797 103.5C21.241 103.5 21.2023 103.5 21.1637 103.5C21.125 103.5 21.0863 103.5 21.0476 103.5C21.0089 103.5 20.9702 103.5 20.9315 103.5C20.8928 103.5 20.854 103.5 20.8153 103.5C20.7766 103.5 20.7378 103.5 20.6991 103.5C20.6603 103.5 20.6216 103.5 20.5828 103.5C20.5441 103.5 20.5053 103.5 20.4665 103.5C20.4277 103.5 20.3889 103.5 20.3501 103.5C20.3114 103.5 20.2726 103.5 20.2337 103.5C20.1949 103.5 20.1561 103.5 20.1173 103.5C20.0785 103.5 20.0397 103.5 20.0008 103.5C19.962 103.5 19.9232 103.5 19.8843 103.5C19.8455 103.5 19.8066 103.5 19.7678 103.5C19.7289 103.5 19.69 103.5 19.6512 103.5C19.6123 103.5 19.5734 103.5 19.5346 103.5C19.4957 103.5 19.4568 103.5 19.4179 103.5C19.379 103.5 19.3401 103.5 19.3012 103.5C19.2623 103.5 19.2234 103.5 19.1845 103.5C19.1456 103.5 19.1067 103.5 19.0678 103.5C19.0288 103.5 18.9899 103.5 18.951 103.5C18.9121 103.5 18.8731 103.5 18.8342 103.5C18.7953 103.5 18.7563 103.5 18.7174 103.5C18.6784 103.5 18.6395 103.5 18.6005 103.5C18.5616 103.5 18.5226 103.5 18.4837 103.5C18.4447 103.5 18.4058 103.5 18.3668 103.5C18.3279 103.5 18.2889 103.5 18.2499 103.5C18.211 103.5 18.172 103.5 18.133 103.5C18.094 103.5 18.0551 103.5 18.0161 103.5C17.9771 103.5 17.9381 103.5 17.8991 103.5C17.8602 103.5 17.8212 103.5 17.7822 103.5C17.7432 103.5 17.7042 103.5 17.6652 103.5C17.6263 103.5 17.5873 103.5 17.5483 103.5C17.5093 103.5 17.4703 103.5 17.4313 103.5C17.3923 103.5 17.3533 103.5 17.3143 103.5C17.2753 103.5 17.2363 103.5 17.1973 103.5C17.1583 103.5 17.1193 103.5 17.0804 103.5C17.0414 103.5 17.0024 103.5 16.9634 103.5C16.9244 103.5 16.8854 103.5 16.8464 103.5C16.8074 103.5 16.7684 103.5 16.7294 103.5C16.6904 103.5 16.6514 103.5 16.6124 103.5C16.5734 103.5 16.5344 103.5 16.4954 103.5C16.4564 103.5 16.4175 103.5 16.3785 103.5C16.3395 103.5 16.3005 103.5 16.2615 103.5C16.2225 103.5 16.1835 103.5 16.1446 103.5C16.1056 103.5 16.0666 103.5 16.0276 103.5C15.9886 103.5 15.9497 103.5 15.9107 103.5C15.8717 103.5 15.8327 103.5 15.7938 103.5C15.7548 103.5 15.7158 103.5 15.6769 103.5C15.6379 103.5 15.5989 103.5 15.56 103.5C15.521 103.5 15.4821 103.5 15.4431 103.5C15.4042 103.5 15.3652 103.5 15.3263 103.5C15.2873 103.5 15.2484 103.5 15.2094 103.5C15.1705 103.5 15.1316 103.5 15.0926 103.5C15.0537 103.5 15.0148 103.5 14.9759 103.5C14.9369 103.5 14.898 103.5 14.8591 103.5C14.8202 103.5 14.7813 103.5 14.7424 103.5C14.7035 103.5 14.6646 103.5 14.6257 103.5C14.5868 103.5 14.5479 103.5 14.509 103.5C14.4701 103.5 14.4313 103.5 14.3924 103.5C14.3535 103.5 14.3146 103.5 14.2758 103.5C14.2369 103.5 14.1981 103.5 14.1592 103.5C14.1204 103.5 14.0815 103.5 14.0427 103.5C14.0038 103.5 13.965 103.5 13.9262 103.5C13.8874 103.5 13.8485 103.5 13.8097 103.5C13.7709 103.5 13.7321 103.5 13.6933 103.5C13.6545 103.5 13.6157 103.5 13.5769 103.5C13.5381 103.5 13.4994 103.5 13.4606 103.5C13.4218 103.5 13.3831 103.5 13.3443 103.5C13.3056 103.5 13.2668 103.5 13.2281 103.5C13.1893 103.5 13.1506 103.5 13.1119 103.5C13.0732 103.5 13.0344 103.5 12.9957 103.5C12.957 103.5 12.9183 103.5 12.8796 103.5C12.841 103.5 12.8023 103.5 12.7636 103.5C12.7249 103.5 12.6863 103.5 12.6476 103.5C12.609 103.5 12.5703 103.5 12.5317 103.5C12.4931 103.5 12.4544 103.5 12.4158 103.5C12.3772 103.5 12.3386 103.5 12.3 103.5C12.2614 103.5 12.2228 103.5 12.1842 103.5C12.1457 103.5 12.1071 103.5 12.0685 103.5C12.03 103.5 11.9914 103.5 11.9529 103.5C11.9144 103.5 11.8759 103.5 11.8373 103.5C11.7988 103.5 11.7603 103.5 11.7218 103.5C11.6833 103.5 11.6449 103.5 11.6064 103.5C11.5679 103.5 11.5295 103.5 11.491 103.5C11.4526 103.5 11.4142 103.5 11.3757 103.5C11.3373 103.5 11.2989 103.5 11.2605 103.5C11.2221 103.5 11.1837 103.5 11.1454 103.5C11.107 103.5 11.0686 103.5 11.0303 103.5C10.9919 103.5 10.9536 103.5 10.9153 103.5C10.8769 103.5 10.8386 103.5 10.8003 103.5C10.762 103.5 10.7238 103.5 10.6855 103.5C10.6472 103.5 10.609 103.5 10.5707 103.5C10.5325 103.5 10.4943 103.5 10.456 103.5C10.4178 103.5 10.3796 103.5 10.3414 103.5C10.3033 103.5 10.2651 103.5 10.2269 103.5C10.1888 103.5 10.1506 103.5 10.1125 103.5C10.0744 103.5 10.0362 103.5 9.99814 103.5C9.96004 103.5 9.92196 103.5 9.88389 103.5C9.84582 103.5 9.80776 103.5 9.76972 103.5C9.73168 103.5 9.69366 103.5 9.65565 103.5C9.61764 103.5 9.57965 103.5 9.54167 103.5C9.5037 103.5 9.46573 103.5 9.42779 103.5C9.38984 103.5 9.35192 103.5 9.314 103.5C9.27609 103.5 9.23819 103.5 9.20031 103.5C9.16243 103.5 9.12457 103.5 9.08672 103.5C9.04888 103.5 9.01105 103.5 8.97324 103.5C8.93542 103.5 8.89763 103.5 8.85985 103.5C8.82207 103.5 8.78431 103.5 8.74657 103.5C8.70883 103.5 8.6711 103.5 8.63339 103.5C8.59568 103.5 8.55799 103.5 8.52032 103.5C8.48265 103.5 8.445 103.5 8.40736 103.5C8.36973 103.5 8.33211 103.5 8.29451 103.5C8.25691 103.5 8.21933 103.5 8.18177 103.5C8.14421 103.5 8.10667 103.5 8.06914 103.5C8.03162 103.5 7.99411 103.5 7.95663 103.5C7.91914 103.5 7.88168 103.5 7.84423 103.5C7.80679 103.5 7.76936 103.5 7.73195 103.5C7.69455 103.5 7.65716 103.5 7.61979 103.5C7.58243 103.5 7.54508 103.5 7.50775 103.5C7.47042 103.5 7.43312 103.5 7.39583 103.5C7.35855 103.5 7.32128 103.5 7.28404 103.5C7.24679 103.5 7.20957 103.5 7.17236 103.5C7.13516 103.5 7.09798 103.5 7.06082 103.5C7.02366 103.5 6.98652 103.5 6.9494 103.5C6.91228 103.5 6.87519 103.5 6.83811 103.5C6.80104 103.5 6.76399 103.5 6.72696 103.5C6.68993 103.5 6.65292 103.5 6.61593 103.5C6.57894 103.5 6.54198 103.5 6.50504 103.5C6.4681 103.5 6.43118 103.5 6.39428 103.5C6.35738 103.5 6.32051 103.5 6.28366 103.5C6.24681 103.5 6.20998 103.5 6.17318 103.5C6.13637 103.5 6.09959 103.5 6.06283 103.5C6.02608 103.5 5.98934 103.5 5.95263 103.5C5.91592 103.5 5.87923 103.5 5.84257 103.5C5.80591 103.5 5.76927 103.5 5.73266 103.5C5.69604 103.5 5.65945 103.5 5.62288 103.5C5.58632 103.5 5.54978 103.5 5.51326 103.5C5.47674 103.5 5.44025 103.5 5.40378 103.5C5.36732 103.5 5.33088 103.5 5.29446 103.5C5.25804 103.5 5.22165 103.5 5.18528 103.5C5.14892 103.5 5.11258 103.5 5.07626 103.5C5.03995 103.5 5.00366 103.5 4.9674 103.5C4.93113 103.5 4.8949 103.5 4.85868 103.5C4.82247 103.5 4.78629 103.5 4.75013 103.5C4.71397 103.5 4.67784 103.5 4.64173 103.5C4.60563 103.5 4.56955 103.5 4.5335 103.5C4.49745 103.5 4.46142 103.5 4.42542 103.5C4.38943 103.5 4.35346 103.5 4.31751 103.5C4.28157 103.5 4.24565 103.5 4.20977 103.5C4.17388 103.5 4.13802 103.5 4.10219 103.5C4.06635 103.5 4.03055 103.5 3.99477 103.5V105.5C4.03055 105.5 4.06635 105.5 4.10219 105.5C4.13802 105.5 4.17388 105.5 4.20977 105.5C4.24565 105.5 4.28157 105.5 4.31751 105.5C4.35346 105.5 4.38943 105.5 4.42542 105.5C4.46142 105.5 4.49745 105.5 4.5335 105.5C4.56955 105.5 4.60563 105.5 4.64173 105.5C4.67784 105.5 4.71397 105.5 4.75013 105.5C4.78629 105.5 4.82247 105.5 4.85868 105.5C4.8949 105.5 4.93113 105.5 4.9674 105.5C5.00366 105.5 5.03995 105.5 5.07626 105.5C5.11258 105.5 5.14892 105.5 5.18528 105.5C5.22165 105.5 5.25804 105.5 5.29446 105.5C5.33088 105.5 5.36732 105.5 5.40378 105.5C5.44025 105.5 5.47674 105.5 5.51326 105.5C5.54978 105.5 5.58632 105.5 5.62288 105.5C5.65945 105.5 5.69604 105.5 5.73266 105.5C5.76927 105.5 5.80591 105.5 5.84257 105.5C5.87923 105.5 5.91592 105.5 5.95263 105.5C5.98934 105.5 6.02608 105.5 6.06283 105.5C6.09959 105.5 6.13637 105.5 6.17318 105.5C6.20998 105.5 6.24681 105.5 6.28366 105.5C6.32051 105.5 6.35738 105.5 6.39428 105.5C6.43118 105.5 6.4681 105.5 6.50504 105.5C6.54198 105.5 6.57894 105.5 6.61593 105.5C6.65292 105.5 6.68993 105.5 6.72696 105.5C6.76399 105.5 6.80104 105.5 6.83811 105.5C6.87519 105.5 6.91228 105.5 6.9494 105.5C6.98652 105.5 7.02366 105.5 7.06082 105.5C7.09798 105.5 7.13516 105.5 7.17236 105.5C7.20957 105.5 7.24679 105.5 7.28404 105.5C7.32128 105.5 7.35855 105.5 7.39583 105.5C7.43312 105.5 7.47042 105.5 7.50775 105.5C7.54508 105.5 7.58243 105.5 7.61979 105.5C7.65716 105.5 7.69455 105.5 7.73195 105.5C7.76936 105.5 7.80679 105.5 7.84423 105.5C7.88168 105.5 7.91914 105.5 7.95663 105.5C7.99411 105.5 8.03162 105.5 8.06914 105.5C8.10667 105.5 8.14421 105.5 8.18177 105.5C8.21933 105.5 8.25691 105.5 8.29451 105.5C8.33211 105.5 8.36973 105.5 8.40736 105.5C8.445 105.5 8.48265 105.5 8.52032 105.5C8.55799 105.5 8.59568 105.5 8.63339 105.5C8.6711 105.5 8.70883 105.5 8.74657 105.5C8.78431 105.5 8.82207 105.5 8.85985 105.5C8.89763 105.5 8.93542 105.5 8.97324 105.5C9.01105 105.5 9.04888 105.5 9.08672 105.5C9.12457 105.5 9.16243 105.5 9.20031 105.5C9.23819 105.5 9.27609 105.5 9.314 105.5C9.35192 105.5 9.38984 105.5 9.42779 105.5C9.46573 105.5 9.5037 105.5 9.54167 105.5C9.57965 105.5 9.61764 105.5 9.65565 105.5C9.69366 105.5 9.73168 105.5 9.76972 105.5C9.80776 105.5 9.84582 105.5 9.88389 105.5C9.92196 105.5 9.96004 105.5 9.99814 105.5C10.0362 105.5 10.0744 105.5 10.1125 105.5C10.1506 105.5 10.1888 105.5 10.2269 105.5C10.2651 105.5 10.3033 105.5 10.3414 105.5C10.3796 105.5 10.4178 105.5 10.456 105.5C10.4943 105.5 10.5325 105.5 10.5707 105.5C10.609 105.5 10.6472 105.5 10.6855 105.5C10.7238 105.5 10.762 105.5 10.8003 105.5C10.8386 105.5 10.8769 105.5 10.9153 105.5C10.9536 105.5 10.9919 105.5 11.0303 105.5C11.0686 105.5 11.107 105.5 11.1454 105.5C11.1837 105.5 11.2221 105.5 11.2605 105.5C11.2989 105.5 11.3373 105.5 11.3757 105.5C11.4142 105.5 11.4526 105.5 11.491 105.5C11.5295 105.5 11.5679 105.5 11.6064 105.5C11.6449 105.5 11.6833 105.5 11.7218 105.5C11.7603 105.5 11.7988 105.5 11.8373 105.5C11.8759 105.5 11.9144 105.5 11.9529 105.5C11.9914 105.5 12.03 105.5 12.0685 105.5C12.1071 105.5 12.1457 105.5 12.1842 105.5C12.2228 105.5 12.2614 105.5 12.3 105.5C12.3386 105.5 12.3772 105.5 12.4158 105.5C12.4544 105.5 12.4931 105.5 12.5317 105.5C12.5703 105.5 12.609 105.5 12.6476 105.5C12.6863 105.5 12.7249 105.5 12.7636 105.5C12.8023 105.5 12.841 105.5 12.8796 105.5C12.9183 105.5 12.957 105.5 12.9957 105.5C13.0344 105.5 13.0732 105.5 13.1119 105.5C13.1506 105.5 13.1893 105.5 13.2281 105.5C13.2668 105.5 13.3056 105.5 13.3443 105.5C13.3831 105.5 13.4218 105.5 13.4606 105.5C13.4994 105.5 13.5381 105.5 13.5769 105.5C13.6157 105.5 13.6545 105.5 13.6933 105.5C13.7321 105.5 13.7709 105.5 13.8097 105.5C13.8485 105.5 13.8874 105.5 13.9262 105.5C13.965 105.5 14.0038 105.5 14.0427 105.5C14.0815 105.5 14.1204 105.5 14.1592 105.5C14.1981 105.5 14.2369 105.5 14.2758 105.5C14.3146 105.5 14.3535 105.5 14.3924 105.5C14.4313 105.5 14.4701 105.5 14.509 105.5C14.5479 105.5 14.5868 105.5 14.6257 105.5C14.6646 105.5 14.7035 105.5 14.7424 105.5C14.7813 105.5 14.8202 105.5 14.8591 105.5C14.898 105.5 14.9369 105.5 14.9759 105.5C15.0148 105.5 15.0537 105.5 15.0926 105.5C15.1316 105.5 15.1705 105.5 15.2094 105.5C15.2484 105.5 15.2873 105.5 15.3263 105.5C15.3652 105.5 15.4042 105.5 15.4431 105.5C15.4821 105.5 15.521 105.5 15.56 105.5C15.5989 105.5 15.6379 105.5 15.6769 105.5C15.7158 105.5 15.7548 105.5 15.7938 105.5C15.8327 105.5 15.8717 105.5 15.9107 105.5C15.9497 105.5 15.9886 105.5 16.0276 105.5C16.0666 105.5 16.1056 105.5 16.1446 105.5C16.1835 105.5 16.2225 105.5 16.2615 105.5C16.3005 105.5 16.3395 105.5 16.3785 105.5C16.4175 105.5 16.4564 105.5 16.4954 105.5C16.5344 105.5 16.5734 105.5 16.6124 105.5C16.6514 105.5 16.6904 105.5 16.7294 105.5C16.7684 105.5 16.8074 105.5 16.8464 105.5C16.8854 105.5 16.9244 105.5 16.9634 105.5C17.0024 105.5 17.0414 105.5 17.0804 105.5C17.1193 105.5 17.1583 105.5 17.1973 105.5C17.2363 105.5 17.2753 105.5 17.3143 105.5C17.3533 105.5 17.3923 105.5 17.4313 105.5C17.4703 105.5 17.5093 105.5 17.5483 105.5C17.5873 105.5 17.6263 105.5 17.6652 105.5C17.7042 105.5 17.7432 105.5 17.7822 105.5C17.8212 105.5 17.8602 105.5 17.8991 105.5C17.9381 105.5 17.9771 105.5 18.0161 105.5C18.0551 105.5 18.094 105.5 18.133 105.5C18.172 105.5 18.211 105.5 18.2499 105.5C18.2889 105.5 18.3279 105.5 18.3668 105.5C18.4058 105.5 18.4447 105.5 18.4837 105.5C18.5226 105.5 18.5616 105.5 18.6005 105.5C18.6395 105.5 18.6784 105.5 18.7174 105.5C18.7563 105.5 18.7953 105.5 18.8342 105.5C18.8731 105.5 18.9121 105.5 18.951 105.5C18.9899 105.5 19.0288 105.5 19.0678 105.5C19.1067 105.5 19.1456 105.5 19.1845 105.5C19.2234 105.5 19.2623 105.5 19.3012 105.5C19.3401 105.5 19.379 105.5 19.4179 105.5C19.4568 105.5 19.4957 105.5 19.5346 105.5C19.5734 105.5 19.6123 105.5 19.6512 105.5C19.69 105.5 19.7289 105.5 19.7678 105.5C19.8066 105.5 19.8455 105.5 19.8843 105.5C19.9232 105.5 19.962 105.5 20.0008 105.5C20.0397 105.5 20.0785 105.5 20.1173 105.5C20.1561 105.5 20.1949 105.5 20.2337 105.5C20.2726 105.5 20.3114 105.5 20.3501 105.5C20.3889 105.5 20.4277 105.5 20.4665 105.5C20.5053 105.5 20.5441 105.5 20.5828 105.5C20.6216 105.5 20.6603 105.5 20.6991 105.5C20.7378 105.5 20.7766 105.5 20.8153 105.5C20.854 105.5 20.8928 105.5 20.9315 105.5C20.9702 105.5 21.0089 105.5 21.0476 105.5C21.0863 105.5 21.125 105.5 21.1637 105.5C21.2023 105.5 21.241 105.5 21.2797 105.5C21.3183 105.5 21.357 105.5 21.3956 105.5C21.4343 105.5 21.4729 105.5 21.5115 105.5C21.5502 105.5 21.5888 105.5 21.6274 105.5C21.666 105.5 21.7046 105.5 21.7432 105.5C21.7818 105.5 21.8204 105.5 21.8589 105.5C21.8975 105.5 21.936 105.5 21.9746 105.5C22.0131 105.5 22.0517 105.5 22.0902 105.5C22.1287 105.5 22.1672 105.5 22.2057 105.5C22.2442 105.5 22.2827 105.5 22.3212 105.5C22.3597 105.5 22.3982 105.5 22.4366 105.5C22.4751 105.5 22.5135 105.5 22.552 105.5C22.5904 105.5 22.6288 105.5 22.6672 105.5C22.7056 105.5 22.744 105.5 22.7824 105.5C22.8208 105.5 22.8592 105.5 22.8975 105.5C22.9359 105.5 22.9742 105.5 23.0126 105.5C23.0509 105.5 23.0892 105.5 23.1276 105.5C23.1659 105.5 23.2042 105.5 23.2424 105.5C23.2807 105.5 23.319 105.5 23.3573 105.5C23.3955 105.5 23.4338 105.5 23.472 105.5C23.5102 105.5 23.5484 105.5 23.5866 105.5C23.6248 105.5 23.663 105.5 23.7012 105.5C23.7394 105.5 23.7775 105.5 23.8157 105.5C23.8538 105.5 23.892 105.5 23.9301 105.5C23.9682 105.5 24.0063 105.5 24.0444 105.5C24.0825 105.5 24.1205 105.5 24.1586 105.5C24.1967 105.5 24.2347 105.5 24.2727 105.5C24.3107 105.5 24.3488 105.5 24.3867 105.5C24.4247 105.5 24.4627 105.5 24.5007 105.5C24.5386 105.5 24.5766 105.5 24.6145 105.5C24.6525 105.5 24.6904 105.5 24.7283 105.5C24.7662 105.5 24.8041 105.5 24.8419 105.5C24.8798 105.5 24.9176 105.5 24.9555 105.5C24.9933 105.5 25.0311 105.5 25.0689 105.5C25.1067 105.5 25.1445 105.5 25.1822 105.5C25.22 105.5 25.2578 105.5 25.2955 105.5C25.3332 105.5 25.3709 105.5 25.4086 105.5C25.4463 105.5 25.484 105.5 25.5216 105.5C25.5593 105.5 25.5969 105.5 25.6345 105.5C25.6722 105.5 25.7098 105.5 25.7473 105.5C25.7849 105.5 25.8225 105.5 25.86 105.5C25.8976 105.5 25.9351 105.5 25.9726 105.5C26.0101 105.5 26.0476 105.5 26.0851 105.5C26.1225 105.5 26.16 105.5 26.1974 105.5C26.2348 105.5 26.2723 105.5 26.3096 105.5C26.347 105.5 26.3844 105.5 26.4218 105.5C26.4591 105.5 26.4964 105.5 26.5337 105.5C26.5711 105.5 26.6083 105.5 26.6456 105.5C26.6829 105.5 26.7201 105.5 26.7573 105.5C26.7946 105.5 26.8318 105.5 26.869 105.5C26.9061 105.5 26.9433 105.5 26.9805 105.5C27.0176 105.5 27.0547 105.5 27.0918 105.5C27.1289 105.5 27.166 105.5 27.203 105.5C27.2401 105.5 27.2771 105.5 27.3141 105.5C27.3512 105.5 27.3881 105.5 27.4251 105.5C27.4621 105.5 27.499 105.5 27.5359 105.5C27.5729 105.5 27.6098 105.5 27.6466 105.5C27.6835 105.5 27.7204 105.5 27.7572 105.5C27.794 105.5 27.8308 105.5 27.8676 105.5C27.9044 105.5 27.9412 105.5 27.9779 105.5C28.0146 105.5 28.0514 105.5 28.088 105.5C28.1247 105.5 28.1614 105.5 28.198 105.5C28.2347 105.5 28.2713 105.5 28.3079 105.5C28.3445 105.5 28.3811 105.5 28.4176 105.5C28.4541 105.5 28.4907 105.5 28.5272 105.5C28.5637 105.5 28.6001 105.5 28.6366 105.5C28.673 105.5 28.7094 105.5 28.7458 105.5C28.7822 105.5 28.8186 105.5 28.8549 105.5C28.8913 105.5 28.9276 105.5 28.9639 105.5C29.0002 105.5 29.0364 105.5 29.0727 105.5C29.1089 105.5 29.1451 105.5 29.1813 105.5C29.2175 105.5 29.2537 105.5 29.2898 105.5C29.3259 105.5 29.3621 105.5 29.3981 105.5C29.4342 105.5 29.4703 105.5 29.5063 105.5C29.5423 105.5 29.5783 105.5 29.6143 105.5C29.6503 105.5 29.6862 105.5 29.7221 105.5C29.7581 105.5 29.7939 105.5 29.8298 105.5C29.8657 105.5 29.9015 105.5 29.9373 105.5C29.9731 105.5 30.0089 105.5 30.0447 105.5C30.0804 105.5 30.1161 105.5 30.1518 105.5C30.1875 105.5 30.2232 105.5 30.2588 105.5C30.2945 105.5 30.3301 105.5 30.3656 105.5C30.4012 105.5 30.4368 105.5 30.4723 105.5C30.5078 105.5 30.5433 105.5 30.5788 105.5C30.6142 105.5 30.6497 105.5 30.6851 105.5C30.7205 105.5 30.7558 105.5 30.7912 105.5C30.8265 105.5 30.8618 105.5 30.8971 105.5C30.9324 105.5 30.9677 105.5 31.0029 105.5C31.0381 105.5 31.0733 105.5 31.1085 105.5C31.1436 105.5 31.1788 105.5 31.2139 105.5C31.249 105.5 31.284 105.5 31.3191 105.5C31.3541 105.5 31.3891 105.5 31.4241 105.5C31.459 105.5 31.494 105.5 31.5289 105.5C31.5638 105.5 31.5987 105.5 31.6335 105.5C31.6684 105.5 31.7032 105.5 31.738 105.5C31.7728 105.5 31.8075 105.5 31.8422 105.5C31.877 105.5 31.9116 105.5 31.9463 105.5C31.9809 105.5 32.0156 105.5 32.0502 105.5C32.0847 105.5 32.1193 105.5 32.1538 105.5C32.1883 105.5 32.2228 105.5 32.2573 105.5C32.2917 105.5 32.3262 105.5 32.3605 105.5C32.3949 105.5 32.4293 105.5 32.4636 105.5C32.4979 105.5 32.5322 105.5 32.5665 105.5C32.6007 105.5 32.6349 105.5 32.6691 105.5C32.7033 105.5 32.7374 105.5 32.7716 105.5C32.8057 105.5 32.8398 105.5 32.8738 105.5C32.9078 105.5 32.9419 105.5 32.9758 105.5C33.0098 105.5 33.0437 105.5 33.0776 105.5C33.1115 105.5 33.1454 105.5 33.1792 105.5C33.2131 105.5 33.2469 105.5 33.2806 105.5C33.3144 105.5 33.3481 105.5 33.3818 105.5C33.4155 105.5 33.4492 105.5 33.4828 105.5C33.5164 105.5 33.55 105.5 33.5835 105.5C33.6171 105.5 33.6506 105.5 33.684 105.5C33.7175 105.5 33.7509 105.5 33.7843 105.5C33.8177 105.5 33.8511 105.5 33.8844 105.5C33.9177 105.5 33.951 105.5 33.9842 105.5C34.0175 105.5 34.0507 105.5 34.0839 105.5C34.117 105.5 34.1502 105.5 34.1833 105.5C34.2164 105.5 34.2494 105.5 34.2824 105.5C34.3155 105.5 34.3484 105.5 34.3814 105.5C34.4143 105.5 34.4472 105.5 34.4801 105.5C34.5129 105.5 34.5458 105.5 34.5786 105.5C34.6113 105.5 34.6441 105.5 34.6768 105.5C34.7095 105.5 34.7422 105.5 34.7748 105.5C34.8074 105.5 34.84 105.5 34.8726 105.5C34.9051 105.5 34.9376 105.5 34.9701 105.5C35.0025 105.5 35.035 105.5 35.0674 105.5C35.0998 105.5 35.1321 105.5 35.1644 105.5C35.1967 105.5 35.229 105.5 35.2612 105.5C35.2934 105.5 35.3256 105.5 35.3578 105.5C35.3899 105.5 35.422 105.5 35.4541 105.5C35.4861 105.5 35.5181 105.5 35.5501 105.5C35.5821 105.5 35.614 105.5 35.6459 105.5C35.6778 105.5 35.7097 105.5 35.7415 105.5C35.7733 105.5 35.8051 105.5 35.8368 105.5C35.8685 105.5 35.9002 105.5 35.9318 105.5C35.9635 105.5 35.9951 105.5 36.0266 105.5C36.0582 105.5 36.0897 105.5 36.1212 105.5C36.1526 105.5 36.1841 105.5 36.2155 105.5C36.2468 105.5 36.2782 105.5 36.3095 105.5C36.3408 105.5 36.372 105.5 36.4032 105.5C36.4344 105.5 36.4656 105.5 36.4967 105.5C36.5279 105.5 36.5589 105.5 36.59 105.5C36.621 105.5 36.652 105.5 36.6829 105.5C36.7139 105.5 36.7448 105.5 36.7756 105.5C36.8065 105.5 36.8373 105.5 36.8681 105.5C36.8988 105.5 36.9295 105.5 36.9602 105.5C36.9909 105.5 37.0215 105.5 37.0521 105.5C37.0827 105.5 37.1132 105.5 37.1437 105.5C37.1742 105.5 37.2047 105.5 37.2351 105.5C37.2655 105.5 37.2958 105.5 37.3261 105.5C37.3564 105.5 37.3867 105.5 37.4169 105.5C37.4471 105.5 37.4773 105.5 37.5074 105.5C37.5375 105.5 37.5676 105.5 37.5976 105.5C37.6277 105.5 37.6577 105.5 37.6876 105.5C37.7175 105.5 37.7474 105.5 37.7772 105.5C37.8071 105.5 37.8369 105.5 37.8666 105.5C37.8964 105.5 37.9261 105.5 37.9557 105.5C37.9854 105.5 38.015 105.5 38.0445 105.5C38.0741 105.5 38.1036 105.5 38.133 105.5C38.1625 105.5 38.1919 105.5 38.2212 105.5C38.2506 105.5 38.2799 105.5 38.3092 105.5C38.3384 105.5 38.3676 105.5 38.3968 105.5C38.426 105.5 38.4551 105.5 38.4841 105.5C38.5132 105.5 38.5422 105.5 38.5712 105.5C38.6002 105.5 38.6291 105.5 38.6579 105.5C38.6868 105.5 38.7156 105.5 38.7444 105.5C38.7731 105.5 38.8019 105.5 38.8305 105.5C38.8592 105.5 38.8878 105.5 38.9164 105.5C38.9449 105.5 38.9734 105.5 39.0019 105.5C39.0304 105.5 39.0588 105.5 39.0871 105.5C39.1155 105.5 39.1438 105.5 39.172 105.5C39.2003 105.5 39.2285 105.5 39.2567 105.5C39.2848 105.5 39.3129 105.5 39.341 105.5C39.369 105.5 39.397 105.5 39.4249 105.5C39.4529 105.5 39.4808 105.5 39.5086 105.5C39.5365 105.5 39.5643 105.5 39.592 105.5C39.6197 105.5 39.6474 105.5 39.675 105.5C39.7027 105.5 39.7302 105.5 39.7578 105.5C39.7853 105.5 39.8128 105.5 39.8402 105.5C39.8676 105.5 39.895 105.5 39.9223 105.5C39.9496 105.5 39.9768 105.5 40.004 105.5C40.0312 105.5 40.0584 105.5 40.0855 105.5C40.1126 105.5 40.1396 105.5 40.1666 105.5C40.1936 105.5 40.2205 105.5 40.2474 105.5C40.2743 105.5 40.3011 105.5 40.3279 105.5C40.3546 105.5 40.3813 105.5 40.408 105.5C40.4347 105.5 40.4613 105.5 40.4878 105.5C40.5143 105.5 40.5408 105.5 40.5673 105.5C40.5937 105.5 40.6201 105.5 40.6464 105.5C40.6727 105.5 40.699 105.5 40.7252 105.5C40.7514 105.5 40.7776 105.5 40.8037 105.5C40.8298 105.5 40.8558 105.5 40.8818 105.5C40.9078 105.5 40.9337 105.5 40.9596 105.5C40.9855 105.5 41.0113 105.5 41.037 105.5C41.0628 105.5 41.0885 105.5 41.1142 105.5C41.1398 105.5 41.1654 105.5 41.1909 105.5C41.2164 105.5 41.2419 105.5 41.2673 105.5C41.2927 105.5 41.3181 105.5 41.3434 105.5C41.3687 105.5 41.3939 105.5 41.4191 105.5C41.4443 105.5 41.4694 105.5 41.4945 105.5C41.5195 105.5 41.5445 105.5 41.5695 105.5C41.5944 105.5 41.6193 105.5 41.6442 105.5C41.669 105.5 41.6938 105.5 41.7185 105.5C41.7432 105.5 41.7678 105.5 41.7924 105.5C41.817 105.5 41.8415 105.5 41.866 105.5C41.8905 105.5 41.9149 105.5 41.9393 105.5C41.9636 105.5 41.9879 105.5 42.0121 105.5C42.0364 105.5 42.0605 105.5 42.0846 105.5C42.1088 105.5 42.1328 105.5 42.1568 105.5C42.1808 105.5 42.2047 105.5 42.2286 105.5C42.2524 105.5 42.2763 105.5 42.3 105.5C42.3237 105.5 42.3474 105.5 42.371 105.5C42.3947 105.5 42.4182 105.5 42.4417 105.5C42.4652 105.5 42.4887 105.5 42.512 105.5C42.5354 105.5 42.5587 105.5 42.582 105.5C42.6052 105.5 42.6284 105.5 42.6515 105.5C42.6747 105.5 42.6977 105.5 42.7207 105.5C42.7437 105.5 42.7667 105.5 42.7895 105.5C42.8124 105.5 42.8352 105.5 42.858 105.5C42.8807 105.5 42.9034 105.5 42.926 105.5C42.9487 105.5 42.9712 105.5 42.9937 105.5C43.0162 105.5 43.0386 105.5 43.061 105.5C43.0834 105.5 43.1057 105.5 43.1279 105.5C43.1501 105.5 43.1723 105.5 43.1944 105.5C43.2165 105.5 43.2386 105.5 43.2606 105.5C43.2825 105.5 43.3045 105.5 43.3263 105.5C43.3482 105.5 43.3699 105.5 43.3917 105.5C43.4134 105.5 43.435 105.5 43.4566 105.5C43.4782 105.5 43.4997 105.5 43.5212 105.5C43.5427 105.5 43.564 105.5 43.5854 105.5C43.6067 105.5 43.628 105.5 43.6492 105.5C43.6703 105.5 43.6915 105.5 43.7125 105.5C43.7336 105.5 43.7546 105.5 43.7755 105.5C43.7965 105.5 43.8173 105.5 43.8381 105.5C43.8589 105.5 43.8796 105.5 43.9003 105.5C43.9209 105.5 43.9415 105.5 43.9621 105.5C43.9826 105.5 44.003 105.5 44.0234 105.5C44.0438 105.5 44.0642 105.5 44.0844 105.5C44.1047 105.5 44.1248 105.5 44.145 105.5C44.1651 105.5 44.1851 105.5 44.2051 105.5C44.2251 105.5 44.245 105.5 44.2649 105.5C44.2847 105.5 44.3045 105.5 44.3242 105.5C44.3439 105.5 44.3635 105.5 44.3831 105.5C44.4027 105.5 44.4222 105.5 44.4416 105.5C44.461 105.5 44.4804 105.5 44.4997 105.5C44.519 105.5 44.5382 105.5 44.5573 105.5C44.5765 105.5 44.5956 105.5 44.6146 105.5C44.6336 105.5 44.6525 105.5 44.6714 105.5C44.6903 105.5 44.7091 105.5 44.7278 105.5C44.7465 105.5 44.7652 105.5 44.7838 105.5C44.8024 105.5 44.8209 105.5 44.8393 105.5C44.8578 105.5 44.8761 105.5 44.8944 105.5C44.9127 105.5 44.931 105.5 44.9491 105.5C44.9673 105.5 44.9854 105.5 45.0034 105.5C45.0214 105.5 45.0394 105.5 45.0572 105.5C45.0751 105.5 45.0929 105.5 45.1106 105.5C45.1284 105.5 45.146 105.5 45.1636 105.5C45.1812 105.5 45.1987 105.5 45.2161 105.5C45.2336 105.5 45.2509 105.5 45.2682 105.5C45.2855 105.5 45.3027 105.5 45.3199 105.5C45.337 105.5 45.3541 105.5 45.3711 105.5C45.3881 105.5 45.405 105.5 45.4219 105.5C45.4387 105.5 45.4555 105.5 45.4722 105.5C45.4889 105.5 45.5055 105.5 45.5221 105.5C45.5386 105.5 45.5551 105.5 45.5715 105.5C45.5879 105.5 45.6042 105.5 45.6205 105.5C45.6367 105.5 45.6529 105.5 45.669 105.5C45.6851 105.5 45.7012 105.5 45.7171 105.5C45.7331 105.5 45.749 105.5 45.7648 105.5C45.7806 105.5 45.7963 105.5 45.8119 105.5C45.8276 105.5 45.8432 105.5 45.8587 105.5C45.8742 105.5 45.8896 105.5 45.9049 105.5C45.9203 105.5 45.9356 105.5 45.9507 105.5C45.9659 105.5 45.9811 105.5 45.9961 105.5C46.0111 105.5 46.0261 105.5 46.041 105.5C46.0559 105.5 46.0707 105.5 46.0854 105.5C46.1002 105.5 46.1148 105.5 46.1294 105.5C46.144 105.5 46.1585 105.5 46.1729 105.5C46.1873 105.5 46.2017 105.5 46.2159 105.5C46.2302 105.5 46.2444 105.5 46.2585 105.5C46.2726 105.5 46.2866 105.5 46.3006 105.5C46.3145 105.5 46.3284 105.5 46.3422 105.5C46.356 105.5 46.3697 105.5 46.3834 105.5C46.397 105.5 46.4105 105.5 46.424 105.5C46.4375 105.5 46.4509 105.5 46.4642 105.5C46.4776 105.5 46.4908 105.5 46.504 105.5C46.5171 105.5 46.5302 105.5 46.5432 105.5C46.5562 105.5 46.5691 105.5 46.582 105.5C46.5948 105.5 46.6076 105.5 46.6202 105.5C46.6329 105.5 46.6455 105.5 46.658 105.5C46.6706 105.5 46.683 105.5 46.6954 105.5C46.7077 105.5 46.72 105.5 46.7322 105.5C46.7444 105.5 46.7565 105.5 46.7685 105.5C46.7806 105.5 46.7925 105.5 46.8044 105.5C46.8162 105.5 46.828 105.5 46.8397 105.5C46.8514 105.5 46.8631 105.5 46.8746 105.5C46.8861 105.5 46.8976 105.5 46.909 105.5C46.9203 105.5 46.9316 105.5 46.9428 105.5C46.9541 105.5 46.9652 105.5 46.9762 105.5C46.9873 105.5 46.9982 105.5 47.0091 105.5C47.02 105.5 47.0308 105.5 47.0415 105.5C47.0522 105.5 47.0628 105.5 47.0734 105.5C47.0839 105.5 47.0944 105.5 47.1048 105.5C47.1151 105.5 47.1254 105.5 47.1356 105.5C47.1459 105.5 47.156 105.5 47.166 105.5C47.1761 105.5 47.186 105.5 47.1959 105.5C47.2057 105.5 47.2155 105.5 47.2252 105.5C47.2349 105.5 47.2446 105.5 47.2541 105.5C47.2636 105.5 47.2731 105.5 47.2824 105.5C47.2918 105.5 47.3011 105.5 47.3102 105.5C47.3194 105.5 47.3285 105.5 47.3375 105.5C47.3466 105.5 47.3555 105.5 47.3643 105.5C47.3732 105.5 47.3819 105.5 47.3906 105.5C47.3993 105.5 47.4079 105.5 47.4164 105.5C47.4249 105.5 47.4333 105.5 47.4416 105.5C47.4499 105.5 47.4582 105.5 47.4663 105.5C47.4745 105.5 47.4825 105.5 47.4905 105.5C47.4985 105.5 47.5064 105.5 47.5142 105.5C47.522 105.5 47.5297 105.5 47.5373 105.5C47.5449 105.5 47.5525 105.5 47.5599 105.5C47.5674 105.5 47.5747 105.5 47.582 105.5C47.5893 105.5 47.5965 105.5 47.6036 105.5C47.6107 105.5 47.6177 105.5 47.6246 105.5C47.6315 105.5 47.6383 105.5 47.6451 105.5C47.6518 105.5 47.6585 105.5 47.665 105.5C47.6716 105.5 47.6781 105.5 47.6844 105.5C47.6908 105.5 47.6971 105.5 47.7033 105.5C47.7095 105.5 47.7156 105.5 47.7217 105.5C47.7277 105.5 47.7336 105.5 47.7395 105.5C47.7453 105.5 47.751 105.5 47.7567 105.5C47.7624 105.5 47.7679 105.5 47.7734 105.5C47.7789 105.5 47.7843 105.5 47.7896 105.5C47.7949 105.5 47.8001 105.5 47.8052 105.5C47.8103 105.5 47.8153 105.5 47.8203 105.5C47.8252 105.5 47.83 105.5 47.8348 105.5C47.8395 105.5 47.8442 105.5 47.8488 105.5C47.8533 105.5 47.8578 105.5 47.8622 105.5C47.8666 105.5 47.8708 105.5 47.875 105.5C47.8792 105.5 47.8833 105.5 47.8873 105.5C47.8914 105.5 47.8953 105.5 47.8991 105.5C47.9029 105.5 47.9067 105.5 47.9103 105.5C47.9139 105.5 47.9175 105.5 47.9209 105.5C47.9244 105.5 47.9277 105.5 47.931 105.5C47.9342 105.5 47.9374 105.5 47.9405 105.5C47.9436 105.5 47.9465 105.5 47.9494 105.5C47.9523 105.5 47.9551 105.5 47.9578 105.5C47.9605 105.5 47.9631 105.5 47.9656 105.5C47.9681 105.5 47.9705 105.5 47.9729 105.5C47.9752 105.5 47.9774 105.5 47.9795 105.5C47.9816 105.5 47.9837 105.5 47.9856 105.5C47.9875 105.5 47.9894 105.5 47.9911 105.5C47.9929 105.5 47.9945 105.5 47.9961 105.5C47.9976 105.5 47.9991 105.5 48.0005 105.5C48.0018 105.5 48.0031 105.5 48.0042 105.5C48.0054 105.5 48.0065 105.5 48.0075 105.5C48.0084 105.5 48.0093 105.5 48.0101 105.5C48.0109 105.5 48.0116 105.5 48.0121 105.5C48.0127 105.5 48.0132 105.5 48.0136 105.5C48.014 105.5 48.0143 105.5 48.0145 105.5C48.0147 105.5 48.0148 105.5 48.0148 104.5ZM1.78814e-07 43.0139C8.34465e-07 50.5003 3.45707e-06 80.0879 5.42402e-06 101.507H2.00001C2 80.0879 2 50.5003 2 43.0139H1.78814e-07ZM76 47.5C68.9124 47.5 63.7815 50.5651 60.1854 55.238C56.6215 59.8691 54.5816 66.0496 53.5141 72.3325L55.4859 72.6675C56.5262 66.5447 58.4863 60.7252 61.7704 56.4578C65.0224 52.2321 69.5876 49.5 76 49.5V47.5ZM76 48.5C76.8252 47.9351 76.8249 47.9348 76.8247 47.9344C76.8246 47.9342 76.8243 47.9338 76.8241 47.9336C76.8237 47.933 76.8233 47.9324 76.8229 47.9318C76.822 47.9305 76.821 47.929 76.8199 47.9275C76.8177 47.9243 76.815 47.9205 76.812 47.9162C76.8058 47.9074 76.7979 47.8964 76.7882 47.883C76.7688 47.8564 76.7423 47.8208 76.7084 47.7772C76.6408 47.6902 76.5439 47.5711 76.4164 47.4282C76.1617 47.1425 75.7839 46.7603 75.273 46.3473C74.2497 45.5202 72.6929 44.5703 70.5312 44.0299L70.0461 45.9701C71.8844 46.4297 73.1833 47.2298 74.0157 47.9027C74.4326 48.2397 74.7326 48.545 74.9238 48.7593C75.0192 48.8664 75.0873 48.9505 75.1289 49.004C75.1497 49.0308 75.1638 49.0499 75.1714 49.0603C75.1752 49.0656 75.1774 49.0686 75.178 49.0694C75.1783 49.0698 75.1781 49.0697 75.1776 49.0689C75.1773 49.0685 75.177 49.068 75.1765 49.0673C75.1763 49.067 75.176 49.0666 75.1757 49.0662C75.1756 49.066 75.1754 49.0657 75.1753 49.0656C75.1751 49.0652 75.1748 49.0649 76 48.5ZM71.2857 45.0765C71.3185 44.6496 71.3329 44.1695 71.3372 43.7037L69.3373 43.6849C69.3332 44.1279 69.3195 44.5589 69.2916 44.9235L71.2857 45.0765ZM61.6962 45.4806C62.8109 45.2576 64.3995 45.2493 66.0056 45.3721C67.5988 45.4939 69.1133 45.7369 70.0461 45.9701L70.5312 44.0299C69.464 43.7631 67.8341 43.5061 66.1581 43.3779C64.4949 43.2507 62.6893 43.2424 61.304 43.5194L61.6962 45.4806ZM82 76C82 80.8253 80.857 85.145 79.0608 88.2241C77.2504 91.3277 74.8962 93 72.5 93V95C75.9028 95 78.7986 92.6429 80.7884 89.2318C82.7925 85.7962 84 81.1158 84 76H82ZM72.5 93C70.1038 93 67.7496 91.3277 65.9392 88.2241C64.143 85.145 63 80.8253 63 76H61C61 81.1158 62.2075 85.7962 64.2116 89.2318C66.2014 92.6429 69.0972 95 72.5 95V93ZM63 76C63 71.1747 64.143 66.855 65.9392 63.7759C67.7496 60.6723 70.1038 59 72.5 59V57C69.0972 57 66.2014 59.3571 64.2116 62.7682C62.2075 66.2038 61 70.8842 61 76H63ZM72.5 59C74.8962 59 77.2504 60.6723 79.0608 63.7759C80.857 66.855 82 71.1747 82 76H84C84 70.8842 82.7925 66.2038 80.7884 62.7682C78.7986 59.3571 75.9028 57 72.5 57V59ZM48.0148 104.5C47.6176 105.418 47.6178 105.418 47.618 105.418C47.6181 105.418 47.6183 105.418 47.6185 105.418C47.6189 105.418 47.6194 105.419 47.6201 105.419C47.6214 105.419 47.6233 105.42 47.6256 105.421C47.6303 105.423 47.637 105.426 47.6457 105.43C47.663 105.437 47.6883 105.448 47.7211 105.462C47.7866 105.49 47.8824 105.53 48.0057 105.581C48.2523 105.682 48.6089 105.826 49.0537 105.998C49.9425 106.343 51.1868 106.8 52.6096 107.254C55.4235 108.15 59.0547 109.072 62.0242 109L61.9758 107C59.3611 107.064 55.9998 106.235 53.217 105.348C51.8416 104.91 50.6366 104.467 49.7757 104.133C49.3456 103.967 49.0023 103.828 48.7676 103.731C48.6503 103.683 48.5601 103.645 48.4999 103.62C48.4698 103.607 48.4472 103.597 48.4324 103.591C48.425 103.588 48.4196 103.586 48.4162 103.584C48.4145 103.583 48.4132 103.583 48.4125 103.583C48.4122 103.582 48.4119 103.582 48.4118 103.582C48.4118 103.582 48.4118 103.582 48.4118 103.582C48.4118 103.582 48.4119 103.582 48.0148 104.5ZM62.0242 109C67.2096 108.874 70.5017 107.952 74.9984 105.367L74.0016 103.633C69.7939 106.052 66.8278 106.883 61.9758 107L62.0242 109ZM3.99477 103.5C2.88961 103.5 2.00001 102.611 2.00001 101.507H5.42402e-06C5.66244e-06 103.716 1.78622 105.5 3.99477 105.5V103.5ZM68.1859 39.6363C68.9282 40.8946 69.3505 42.2798 69.3373 43.6849L71.3372 43.7037C71.3543 41.881 70.8063 40.142 69.9084 38.6201L68.1859 39.6363ZM1.13875 39.2166C0.379143 40.3546 5.96046e-08 41.66 1.78814e-07 43.0139H2C2 42.0408 2.2699 41.1244 2.8022 40.327L1.13875 39.2166Z" fill="url(#paint2_linear)"/>
<path d="M42 13.5C40.5 14 36.9448 18.8803 40.5956 16.9755C49.8932 12.1246 55.9448 23.912 62.294 14.547C65.115 10.386 51.9482 8.24946 50.5001 9.5" stroke="#333333" stroke-width="2"/>
<path d="M126.16 59.6677C122.687 56.8681 102.651 62.1314 102.66 59.582C102.677 55.082 131.224 42.186 131.224 42.186C131.224 42.186 95.1823 53.5546 95.1458 63.5546C95.124 69.5545 110.648 63.1111 116.138 65.6312C119.688 67.2601 88.5748 83.0307 88.5748 83.0307C88.5748 83.0307 85.0401 92.5179 85.5401 92.5197C89.0401 92.5325 109.089 79.1055 109.089 79.1055C109.089 79.1055 94.5437 91.5526 82.5201 98.0087C80.4414 99.1249 80 103.5 80 103.5C80 103.5 92.7704 96.637 100.544 91.5744C108.038 86.6935 120.6 76.1475 120.6 76.1475C120.6 76.1475 111.907 82.7587 106.062 86.5945C100.714 90.1038 92.031 95.0434 92.031 95.0434C92.031 95.0434 136.131 67.7041 126.16 59.6677Z" fill="url(#paint3_linear)"/>
<path d="M88.5766 82.5307L105.617 71.5928L88.5839 80.5307L88.5766 82.5307Z" fill="url(#paint4_linear)"/>
<path d="M80.0973 49.4449C80.0973 49.4449 84.4301 53.5474 86.0324 56.5001C88.7714 61.5476 89.9028 70.5364 89.9028 70.5364C89.9028 70.5364 90.4527 61.2279 87.5369 56.0139C85.5693 52.4956 80.0973 49.4449 80.0973 49.4449Z" fill="url(#paint5_linear)"/>
<path d="M87.5785 51.5141C87.5785 51.5141 89.1294 53.4877 90.046 55.0371C91.3984 57.3228 91.9859 61.5553 91.9859 61.5553C91.9859 61.5553 92.2907 57.2928 91.046 55.0463C90.1092 53.3555 87.5785 51.5141 87.5785 51.5141Z" fill="url(#paint6_linear)"/>
<path d="M10.3164 57.9111C11.1328 57.7607 11.8418 57.5996 12.4434 57.4277C13.0664 57.2559 13.582 57.0518 13.9902 56.8154C14.3984 56.5576 14.6992 56.2568 14.8926 55.9131C15.1074 55.5479 15.2148 55.0967 15.2148 54.5596C15.2148 54.1084 15.043 53.7002 14.6992 53.335C14.3555 52.9697 13.9043 52.6582 13.3457 52.4004C12.7871 52.1426 12.1426 51.9492 11.4121 51.8203C10.6816 51.6914 9.91895 51.627 9.12402 51.627C8.93066 51.627 8.7373 51.627 8.54395 51.627C8.35059 51.627 8.14648 51.6377 7.93164 51.6592C8.06055 52.3682 8.14648 53.1738 8.18945 54.0762C8.25391 54.9785 8.28613 55.9131 8.28613 56.8799C8.28613 57.6963 8.26465 58.5234 8.22168 59.3613C8.2002 60.1992 8.16797 60.9941 8.125 61.7461C8.08203 62.4766 8.01758 63.1533 7.93164 63.7764C7.86719 64.3779 7.80273 64.8721 7.73828 65.2588C7.67383 65.5596 7.54492 65.7852 7.35156 65.9355C7.17969 66.0859 6.97559 66.1611 6.73926 66.1611C6.50293 66.1611 6.27734 66.0859 6.0625 65.9355C5.86914 65.7852 5.77246 65.5596 5.77246 65.2588C5.77246 65.1514 5.7832 65.0654 5.80469 65.001C5.86914 64.4639 5.93359 63.873 5.99805 63.2285C6.08398 62.5625 6.14844 61.8643 6.19141 61.1338C6.23438 60.4033 6.2666 59.6621 6.28809 58.9102C6.33105 58.1367 6.35254 57.374 6.35254 56.6221C6.35254 55.3975 6.30957 54.2695 6.22363 53.2383C6.1377 52.1855 5.97656 51.3799 5.74023 50.8213C5.61133 50.542 5.54688 50.2842 5.54688 50.0479C5.54688 49.7471 5.62207 49.5107 5.77246 49.3389C5.92285 49.1455 6.11621 49.0488 6.35254 49.0488C6.76074 49.0488 7.11523 49.2959 7.41602 49.79C7.65234 49.7686 7.87793 49.7578 8.09277 49.7578C8.30762 49.7578 8.52246 49.7578 8.7373 49.7578C9.81152 49.7578 10.8535 49.8545 11.8633 50.0479C12.8945 50.2412 13.7969 50.5312 14.5703 50.918C15.3652 51.3047 15.999 51.7988 16.4717 52.4004C16.9658 53.002 17.2129 53.7217 17.2129 54.5596C17.2129 56.042 16.6328 57.2021 15.4727 58.04C14.334 58.8779 12.7227 59.4365 10.6387 59.7158C10.5957 59.7158 10.5635 59.7266 10.542 59.748C10.542 59.748 10.5205 59.748 10.4775 59.748C10.1982 59.748 9.99414 59.6514 9.86523 59.458C9.73633 59.2432 9.67188 59.0068 9.67188 58.749C9.67188 58.5771 9.72559 58.4053 9.83301 58.2334C9.94043 58.0615 10.1016 57.9541 10.3164 57.9111ZM22.1113 50.7568C22.0039 51.5947 21.9287 52.626 21.8857 53.8506C21.8428 55.0537 21.8213 56.2998 21.8213 57.5889C21.8213 58.9209 21.8643 60.2314 21.9502 61.5205C22.0576 62.8096 22.1113 63.9375 22.1113 64.9043C22.1113 65.3125 22.0146 65.6348 21.8213 65.8711C21.6279 66.0859 21.3916 66.1934 21.1123 66.1934C20.9404 66.1934 20.7686 66.1182 20.5967 65.9678C20.4463 65.7959 20.3496 65.5381 20.3066 65.1943C20.1562 63.9697 20.0488 62.5947 19.9844 61.0693C19.9414 59.5439 19.9199 58.0078 19.9199 56.4609C19.9199 55.3223 19.9414 54.2373 19.9844 53.2061C20.0273 52.1533 20.0918 51.1865 20.1777 50.3057C20.2207 49.9834 20.3174 49.7471 20.4678 49.5967C20.6182 49.4463 20.8115 49.3711 21.0479 49.3711C21.3271 49.3711 21.5742 49.4785 21.7891 49.6934C22.0039 49.9082 22.1113 50.1982 22.1113 50.5635V50.7568ZM28.9434 50.9502C28.9219 50.8857 28.9111 50.7891 28.9111 50.6602C28.9111 50.2949 29.0078 50.0156 29.2012 49.8223C29.416 49.6074 29.6416 49.5 29.8779 49.5C30.0713 49.5 30.2646 49.5859 30.458 49.7578C30.6514 49.9082 30.7695 50.1338 30.8125 50.4346C30.9844 51.4873 31.0918 52.5938 31.1348 53.7539C31.1992 54.9141 31.2314 56.0957 31.2314 57.2988C31.2314 57.8145 31.2207 58.416 31.1992 59.1035C31.1777 59.7695 31.1348 60.457 31.0703 61.166C31.0059 61.8535 30.9199 62.541 30.8125 63.2285C30.7266 63.8945 30.6191 64.4961 30.4902 65.0332C30.3613 65.5488 30.2002 65.9678 30.0068 66.29C29.8135 66.6123 29.5986 66.7734 29.3623 66.7734C29.126 66.7734 28.9111 66.6875 28.7178 66.5156C28.5459 66.3438 28.46 66.0752 28.46 65.71C28.46 65.5381 28.4707 65.4092 28.4922 65.3232C28.7285 64.2275 28.9111 63.1641 29.04 62.1328C29.1689 61.1016 29.2656 60.0703 29.3301 59.0391C28.041 59.2969 26.6982 59.4258 25.3018 59.4258C24.5498 59.4258 23.9697 59.3828 23.5615 59.2969C23.1533 59.2109 22.9492 58.9209 22.9492 58.4268C22.9492 58.1904 23.0566 57.9971 23.2715 57.8467C23.4863 57.6748 23.7871 57.5889 24.1738 57.5889C24.3457 57.6104 24.5176 57.6211 24.6895 57.6211C24.8613 57.6211 25.0332 57.6211 25.2051 57.6211C25.8926 57.6211 26.5908 57.5889 27.2998 57.5244C28.0088 57.4385 28.707 57.3096 29.3945 57.1377C29.3945 55.9775 29.3516 54.8818 29.2656 53.8506C29.1797 52.8193 29.0723 51.8525 28.9434 50.9502Z" fill="white"/>
<defs>
<linearGradient id="paint0_linear" x1="83" y1="108.004" x2="-13.2938" y2="15.9526" gradientUnits="userSpaceOnUse">
<stop offset="0.135417" stop-color="#F23D3D"/>
<stop offset="1" stop-color="#D95E32"/>
</linearGradient>
<linearGradient id="paint1_linear" x1="83" y1="108.004" x2="-13.2938" y2="15.9526" gradientUnits="userSpaceOnUse">
<stop offset="0.135417" stop-color="#F23D3D"/>
<stop offset="1" stop-color="#D95E32"/>
</linearGradient>
<linearGradient id="paint2_linear" x1="83" y1="108.004" x2="-13.2938" y2="15.9526" gradientUnits="userSpaceOnUse">
<stop offset="0.135417" stop-color="#F23D3D"/>
<stop offset="1" stop-color="#D95E32"/>
</linearGradient>
<linearGradient id="paint3_linear" x1="131" y1="103.686" x2="75.84" y2="46.2075" gradientUnits="userSpaceOnUse">
<stop offset="0.135417" stop-color="#F23D3D"/>
<stop offset="1" stop-color="#D95E32"/>
</linearGradient>
<linearGradient id="paint4_linear" x1="131" y1="103.686" x2="75.84" y2="46.2075" gradientUnits="userSpaceOnUse">
<stop offset="0.135417" stop-color="#F23D3D"/>
<stop offset="1" stop-color="#D95E32"/>
</linearGradient>
<linearGradient id="paint5_linear" x1="91.9259" y1="70.5551" x2="74.1508" y2="57.6106" gradientUnits="userSpaceOnUse">
<stop offset="0.135417" stop-color="#F23D3D"/>
<stop offset="1" stop-color="#D95E32"/>
</linearGradient>
<linearGradient id="paint6_linear" x1="91.9259" y1="70.5551" x2="74.1508" y2="57.6106" gradientUnits="userSpaceOnUse">
<stop offset="0.135417" stop-color="#F23D3D"/>
<stop offset="1" stop-color="#D95E32"/>
</linearGradient>
</defs>
</svg>
