<svg width="1024" height="1024" viewBox="0 0 104 104" fill="none" xmlns="http://www.w3.org/2000/svg">
<g filter="url(#filter0_d)">
<rect x="22" y="15" width="60" height="60" rx="13" fill="url(#paint0_linear)"/>
</g>
<path fill-rule="evenodd" clip-rule="evenodd" d="M35.3265 40.0443C35.1092 40.3699 35 40.7436 35 41.135C35 43.6537 35 53.6081 35 60.8141C35 61.3716 35.4501 61.8212 36.0076 61.8212C42.1702 61.8212 50.8175 61.8212 50.8175 61.8212C50.4207 61.633 50.1397 61.4848 50.1397 61.4848C47.7846 59.8026 46.3272 57.1029 45.9342 54.5878C45.0931 49.2048 46.802 45.8405 49.8033 43.3172C51.4039 41.9714 53.5041 41.635 55.3545 41.635C56.1955 41.4668 57.6384 41.635 58.3113 41.8032C58.3215 41.6701 58.3262 41.5168 58.3276 41.3639C58.3327 40.821 58.1695 40.2954 57.8936 39.8277C55.0326 34.9783 50.1363 27 47.0957 27C44.1999 27 36.951 37.6106 35.3265 40.0443ZM47.069 33.8088C48.2487 33.8088 49.2051 32.8525 49.2051 31.6727C49.2051 30.493 48.2487 29.5366 47.069 29.5366C45.8893 29.5366 44.9329 30.493 44.9329 31.6727C44.9329 32.8525 45.8893 33.8088 47.069 33.8088Z" fill="white"/>
<path d="M62.5878 52.2328C62.5878 55.5773 61.0062 58.2886 59.0552 58.2886C57.1043 58.2886 55.5227 55.5773 55.5227 52.2328C55.5227 48.8882 57.1043 46.1769 59.0552 46.1769C61.0062 46.1769 62.5878 48.8882 62.5878 52.2328Z" fill="white"/>
<path d="M49.8033 43.3172L49.5868 43.0597L49.8033 43.3172ZM45.9342 54.5878L45.6018 54.6398L45.9342 54.5878ZM51.3172 45.8405L51.6057 46.0136L51.3172 45.8405ZM50.1397 51.5599L49.8038 51.5792C49.8143 51.761 49.9674 51.9014 50.1494 51.8962C50.3313 51.891 50.4761 51.7419 50.4761 51.5599L50.1397 51.5599ZM51.4854 46.1769L51.7823 46.3352L51.4854 46.1769ZM52.9994 51.0553L52.6677 50.9989L52.9994 51.0553ZM55.4482 60.0357C55.577 60.1697 55.7899 60.174 55.9239 60.0452C56.0579 59.9165 56.0622 59.7035 55.9335 59.5695L55.4482 60.0357ZM50.1397 61.4848L49.9441 61.7586L49.9626 61.7718L49.9827 61.7824L50.1397 61.4848ZM60.2328 42.9808V43.3172H60.8708L60.5104 42.7907L60.2328 42.9808ZM55.5227 62.9988L55.5308 63.3351L55.5227 62.9988ZM59.8958 62.1129C60.0569 62.0203 60.1124 61.8146 60.0198 61.6535C59.9272 61.4925 59.7215 61.437 59.5604 61.5296L59.8958 62.1129ZM57.8936 39.8277L58.1833 39.6568L57.8936 39.8277ZM58.3276 41.3639L57.9912 41.3608L58.3276 41.3639ZM35.3265 40.0443L35.6063 40.2311L35.3265 40.0443ZM47.0957 26.6636C46.6405 26.6636 46.1457 26.868 45.6487 27.1743C45.1442 27.4851 44.5992 27.9251 44.0346 28.4494C42.9048 29.4985 41.6647 30.9154 40.4722 32.3987C38.0855 35.3673 35.8606 38.6382 35.0467 39.8575L35.6063 40.2311C36.4169 39.0167 38.6288 35.7654 40.9966 32.8203C42.1813 31.3467 43.3978 29.9589 44.4925 28.9425C45.0401 28.4339 45.5491 28.026 46.0017 27.7471C46.4618 27.4636 46.827 27.3364 47.0957 27.3364V26.6636ZM48.8687 31.6727C48.8687 32.6667 48.0629 33.4724 47.069 33.4724V34.1453C48.4346 34.1453 49.5416 33.0383 49.5416 31.6727H48.8687ZM47.069 33.4724C46.0751 33.4724 45.2693 32.6667 45.2693 31.6727H44.5965C44.5965 33.0383 45.7035 34.1453 47.069 34.1453V33.4724ZM45.2693 31.6727C45.2693 30.6788 46.0751 29.8731 47.069 29.8731V29.2002C45.7035 29.2002 44.5965 30.3072 44.5965 31.6727H45.2693ZM47.069 29.8731C48.0629 29.8731 48.8687 30.6788 48.8687 31.6727H49.5416C49.5416 30.3072 48.4346 29.2002 47.069 29.2002V29.8731ZM49.5868 43.0597C48.053 44.3492 46.8356 45.8658 46.1135 47.7603C45.3915 49.6547 45.1741 51.9024 45.6018 54.6398L46.2666 54.5359C45.8533 51.8903 46.0698 49.7643 46.7423 47.9999C47.4147 46.2357 48.5523 44.8085 50.0198 43.5747L49.5868 43.0597ZM55.3545 41.2986C53.474 41.2986 51.2773 41.6384 49.5868 43.0597L50.0198 43.5747C51.5306 42.3045 53.5341 41.9714 55.3545 41.9714V41.2986ZM55.1928 41.34C53.9011 42.0477 53.224 42.4916 52.6845 43.0981C52.1593 43.6884 51.7694 44.4328 51.0287 45.6674L51.6057 46.0136C52.3789 44.7249 52.7174 44.0735 53.1872 43.5453C53.6426 43.0334 54.2272 42.6362 55.5161 41.9301L55.1928 41.34ZM51.0287 45.6674C50.3042 46.8749 50.0028 48.3618 49.8784 49.5236C49.8157 50.1086 49.797 50.62 49.7939 50.9857C49.7924 51.1687 49.7948 51.3156 49.7976 51.4174C49.799 51.4683 49.8005 51.508 49.8017 51.5354C49.8023 51.549 49.8028 51.5596 49.8032 51.567C49.8034 51.5707 49.8035 51.5735 49.8036 51.5756C49.8037 51.5766 49.8037 51.5774 49.8038 51.578C49.8038 51.5783 49.8038 51.5786 49.8038 51.5788C49.8038 51.5789 49.8038 51.579 49.8038 51.5791C49.8038 51.5792 49.8038 51.5792 50.1397 51.5599C50.4756 51.5406 50.4756 51.5406 50.4756 51.5407C50.4756 51.5407 50.4756 51.5407 50.4756 51.5407C50.4756 51.5407 50.4756 51.5406 50.4756 51.5405C50.4756 51.5403 50.4755 51.5399 50.4755 51.5392C50.4754 51.538 50.4753 51.5359 50.4752 51.533C50.4749 51.5273 50.4745 51.5183 50.4739 51.5063C50.4729 51.4823 50.4715 51.4461 50.4702 51.3988C50.4676 51.3043 50.4653 51.1655 50.4668 50.9913C50.4697 50.6426 50.4876 50.1538 50.5474 49.5953C50.668 48.4703 50.9553 47.0975 51.6057 46.0136L51.0287 45.6674ZM50.1397 51.5599C50.4761 51.5599 50.4761 51.56 50.4761 51.56C50.4761 51.56 50.4761 51.5601 50.4761 51.5601C50.4761 51.5601 50.4761 51.5601 50.4761 51.56C50.4761 51.5599 50.4761 51.5596 50.4761 51.5591C50.4761 51.5581 50.4762 51.5565 50.4762 51.5541C50.4762 51.5495 50.4763 51.5422 50.4764 51.5323C50.4767 51.5125 50.4773 51.4824 50.4786 51.4427C50.4811 51.3634 50.4862 51.246 50.4964 51.0966C50.5168 50.7977 50.5578 50.372 50.64 49.8688C50.8047 48.8597 51.1328 47.5531 51.7823 46.3352L51.1886 46.0186C50.4924 47.324 50.1476 48.7089 49.9759 49.7604C49.8898 50.2876 49.8467 50.7345 49.8251 51.0507C49.8143 51.2089 49.8088 51.3346 49.8061 51.4215C49.8047 51.4649 49.804 51.4987 49.8036 51.522C49.8035 51.5337 49.8034 51.5428 49.8033 51.5491C49.8033 51.5523 49.8033 51.5548 49.8033 51.5566C49.8033 51.5575 49.8033 51.5582 49.8033 51.5588C49.8033 51.559 49.8033 51.5593 49.8033 51.5595C49.8033 51.5596 49.8033 51.5597 49.8033 51.5597C49.8033 51.5598 49.8033 51.5599 50.1397 51.5599ZM51.7823 46.3352C52.8253 44.3796 53.8403 43.3307 55.5695 41.8938L55.1395 41.3763C53.3699 42.8467 52.2863 43.9604 51.1886 46.0186L51.7823 46.3352ZM52.6677 50.9989C52.147 54.0638 52.8915 57.374 55.4482 60.0357L55.9335 59.5695C53.5384 57.0761 52.8426 53.9868 53.3311 51.1116L52.6677 50.9989ZM45.6018 54.6398C46.0073 57.2345 47.5079 60.0184 49.9441 61.7586L50.3352 61.211C48.0614 59.5868 46.6472 56.9713 46.2666 54.5359L45.6018 54.6398ZM47.0957 27.3364C47.724 27.3364 48.5187 27.7592 49.4404 28.5744C50.3474 29.3766 51.3183 30.5051 52.2934 31.7979C54.2425 34.3819 56.1733 37.5739 57.6038 39.9987L58.1833 39.6568C56.7528 37.232 54.805 34.0103 52.8306 31.3927C51.844 30.0847 50.8419 28.9157 49.8862 28.0704C48.9453 27.2381 47.9877 26.6636 47.0957 26.6636V27.3364ZM50.1397 61.4848C49.9827 61.7824 49.9827 61.7824 49.9827 61.7824C49.9828 61.7824 49.9828 61.7824 49.9828 61.7824C49.9828 61.7824 49.9828 61.7824 49.9828 61.7824C49.9829 61.7825 49.983 61.7825 49.9831 61.7826C49.9833 61.7826 49.9835 61.7828 49.9838 61.7829C49.9845 61.7833 49.9854 61.7838 49.9865 61.7844C49.9889 61.7856 49.9923 61.7874 49.9967 61.7897C50.0056 61.7943 50.0185 61.8011 50.0352 61.8097C50.0686 61.827 50.1171 61.8519 50.178 61.8827C50.2999 61.9443 50.4719 62.0297 50.6733 62.1252L50.9617 61.5173C50.7663 61.4246 50.5995 61.3418 50.4816 61.2822C50.4227 61.2524 50.3761 61.2285 50.3444 61.2121C50.3286 61.2039 50.3164 61.1976 50.3084 61.1934C50.3044 61.1913 50.3013 61.1897 50.2994 61.1886C50.2984 61.1881 50.2977 61.1877 50.2972 61.1875C50.297 61.1874 50.2968 61.1873 50.2967 61.1873C50.2967 61.1872 50.2967 61.1872 50.2967 61.1872C50.2966 61.1872 50.2966 61.1872 50.2967 61.1872C50.2967 61.1872 50.2967 61.1872 50.2967 61.1872C50.2967 61.1872 50.2967 61.1872 50.1397 61.4848ZM50.8175 61.8212C50.8175 61.4848 50.8175 61.4848 50.8174 61.4848C50.8173 61.4848 50.8172 61.4848 50.8171 61.4848C50.817 61.4848 50.8168 61.4848 50.8166 61.4848C50.8164 61.4848 50.8162 61.4848 50.8159 61.4848C50.8157 61.4848 50.8154 61.4848 50.815 61.4848C50.8147 61.4848 50.8144 61.4848 50.814 61.4848C50.8136 61.4848 50.8131 61.4848 50.8127 61.4848C50.8122 61.4848 50.8117 61.4848 50.8112 61.4848C50.8107 61.4848 50.8101 61.4848 50.8096 61.4848C50.809 61.4848 50.8084 61.4848 50.8077 61.4848C50.807 61.4848 50.8064 61.4848 50.8056 61.4848C50.8049 61.4848 50.8042 61.4848 50.8034 61.4848C50.8026 61.4848 50.8018 61.4848 50.801 61.4848C50.8001 61.4848 50.7993 61.4848 50.7983 61.4848C50.7974 61.4848 50.7965 61.4848 50.7955 61.4848C50.7946 61.4848 50.7936 61.4848 50.7925 61.4848C50.7915 61.4848 50.7904 61.4848 50.7893 61.4848C50.7882 61.4848 50.7871 61.4848 50.7859 61.4848C50.7848 61.4848 50.7836 61.4848 50.7824 61.4848C50.7811 61.4848 50.7799 61.4848 50.7786 61.4848C50.7773 61.4848 50.776 61.4848 50.7746 61.4848C50.7733 61.4848 50.7719 61.4848 50.7705 61.4848C50.7691 61.4848 50.7676 61.4848 50.7662 61.4848C50.7647 61.4848 50.7632 61.4848 50.7617 61.4848C50.7601 61.4848 50.7586 61.4848 50.757 61.4848C50.7554 61.4848 50.7537 61.4848 50.7521 61.4848C50.7504 61.4848 50.7487 61.4848 50.747 61.4848C50.7453 61.4848 50.7435 61.4848 50.7417 61.4848C50.74 61.4848 50.7382 61.4848 50.7363 61.4848C50.7345 61.4848 50.7326 61.4848 50.7307 61.4848C50.7288 61.4848 50.7268 61.4848 50.7249 61.4848C50.7229 61.4848 50.7209 61.4848 50.7189 61.4848C50.7169 61.4848 50.7148 61.4848 50.7127 61.4848C50.7106 61.4848 50.7085 61.4848 50.7064 61.4848C50.7042 61.4848 50.702 61.4848 50.6998 61.4848C50.6976 61.4848 50.6954 61.4848 50.6931 61.4848C50.6909 61.4848 50.6886 61.4848 50.6862 61.4848C50.6839 61.4848 50.6816 61.4848 50.6792 61.4848C50.6768 61.4848 50.6744 61.4848 50.6719 61.4848C50.6695 61.4848 50.667 61.4848 50.6645 61.4848C50.662 61.4848 50.6594 61.4848 50.6569 61.4848C50.6543 61.4848 50.6517 61.4848 50.6491 61.4848C50.6465 61.4848 50.6438 61.4848 50.6411 61.4848C50.6384 61.4848 50.6357 61.4848 50.633 61.4848C50.6302 61.4848 50.6275 61.4848 50.6247 61.4848C50.6219 61.4848 50.619 61.4848 50.6162 61.4848C50.6133 61.4848 50.6104 61.4848 50.6075 61.4848C50.6046 61.4848 50.6017 61.4848 50.5987 61.4848C50.5957 61.4848 50.5927 61.4848 50.5897 61.4848C50.5866 61.4848 50.5836 61.4848 50.5805 61.4848C50.5774 61.4848 50.5743 61.4848 50.5711 61.4848C50.568 61.4848 50.5648 61.4848 50.5616 61.4848C50.5584 61.4848 50.5551 61.4848 50.5519 61.4848C50.5486 61.4848 50.5453 61.4848 50.542 61.4848C50.5387 61.4848 50.5353 61.4848 50.532 61.4848C50.5286 61.4848 50.5252 61.4848 50.5217 61.4848C50.5183 61.4848 50.5148 61.4848 50.5113 61.4848C50.5079 61.4848 50.5043 61.4848 50.5008 61.4848C50.4972 61.4848 50.4937 61.4848 50.4901 61.4848C50.4865 61.4848 50.4828 61.4848 50.4792 61.4848C50.4755 61.4848 50.4718 61.4848 50.4681 61.4848C50.4644 61.4848 50.4606 61.4848 50.4569 61.4848C50.4531 61.4848 50.4493 61.4848 50.4455 61.4848C50.4416 61.4848 50.4378 61.4848 50.4339 61.4848C50.43 61.4848 50.4261 61.4848 50.4222 61.4848C50.4182 61.4848 50.4143 61.4848 50.4103 61.4848C50.4063 61.4848 50.4023 61.4848 50.3982 61.4848C50.3942 61.4848 50.3901 61.4848 50.386 61.4848C50.3819 61.4848 50.3778 61.4848 50.3736 61.4848C50.3694 61.4848 50.3653 61.4848 50.3611 61.4848C50.3568 61.4848 50.3526 61.4848 50.3483 61.4848C50.3441 61.4848 50.3398 61.4848 50.3355 61.4848C50.3311 61.4848 50.3268 61.4848 50.3224 61.4848C50.318 61.4848 50.3136 61.4848 50.3092 61.4848C50.3048 61.4848 50.3003 61.4848 50.2958 61.4848C50.2914 61.4848 50.2869 61.4848 50.2823 61.4848C50.2778 61.4848 50.2732 61.4848 50.2686 61.4848C50.2641 61.4848 50.2594 61.4848 50.2548 61.4848C50.2502 61.4848 50.2455 61.4848 50.2408 61.4848C50.2361 61.4848 50.2314 61.4848 50.2266 61.4848C50.2219 61.4848 50.2171 61.4848 50.2123 61.4848C50.2075 61.4848 50.2027 61.4848 50.1978 61.4848C50.193 61.4848 50.1881 61.4848 50.1832 61.4848C50.1783 61.4848 50.1734 61.4848 50.1684 61.4848C50.1634 61.4848 50.1585 61.4848 50.1535 61.4848C50.1484 61.4848 50.1434 61.4848 50.1384 61.4848C50.1333 61.4848 50.1282 61.4848 50.1231 61.4848C50.118 61.4848 50.1128 61.4848 50.1077 61.4848C50.1025 61.4848 50.0973 61.4848 50.0921 61.4848C50.0869 61.4848 50.0817 61.4848 50.0764 61.4848C50.0711 61.4848 50.0658 61.4848 50.0605 61.4848C50.0552 61.4848 50.0499 61.4848 50.0445 61.4848C50.0391 61.4848 50.0337 61.4848 50.0283 61.4848C50.0229 61.4848 50.0175 61.4848 50.012 61.4848C50.0065 61.4848 50.001 61.4848 49.9955 61.4848C49.99 61.4848 49.9844 61.4848 49.9789 61.4848C49.9733 61.4848 49.9677 61.4848 49.9621 61.4848C49.9565 61.4848 49.9508 61.4848 49.9452 61.4848C49.9395 61.4848 49.9338 61.4848 49.9281 61.4848C49.9224 61.4848 49.9166 61.4848 49.9108 61.4848C49.9051 61.4848 49.8993 61.4848 49.8935 61.4848C49.8877 61.4848 49.8818 61.4848 49.8759 61.4848C49.8701 61.4848 49.8642 61.4848 49.8583 61.4848C49.8524 61.4848 49.8464 61.4848 49.8405 61.4848C49.8345 61.4848 49.8285 61.4848 49.8225 61.4848C49.8165 61.4848 49.8104 61.4848 49.8044 61.4848C49.7983 61.4848 49.7922 61.4848 49.7861 61.4848C49.78 61.4848 49.7739 61.4848 49.7677 61.4848C49.7616 61.4848 49.7554 61.4848 49.7492 61.4848C49.743 61.4848 49.7367 61.4848 49.7305 61.4848C49.7242 61.4848 49.7179 61.4848 49.7116 61.4848C49.7053 61.4848 49.699 61.4848 49.6927 61.4848C49.6863 61.4848 49.68 61.4848 49.6736 61.4848C49.6672 61.4848 49.6607 61.4848 49.6543 61.4848C49.6479 61.4848 49.6414 61.4848 49.6349 61.4848C49.6284 61.4848 49.6219 61.4848 49.6154 61.4848C49.6088 61.4848 49.6023 61.4848 49.5957 61.4848C49.5891 61.4848 49.5825 61.4848 49.5759 61.4848C49.5692 61.4848 49.5626 61.4848 49.5559 61.4848C49.5492 61.4848 49.5425 61.4848 49.5358 61.4848C49.5291 61.4848 49.5223 61.4848 49.5156 61.4848C49.5088 61.4848 49.502 61.4848 49.4952 61.4848C49.4884 61.4848 49.4815 61.4848 49.4747 61.4848C49.4678 61.4848 49.4609 61.4848 49.454 61.4848C49.4471 61.4848 49.4402 61.4848 49.4332 61.4848C49.4263 61.4848 49.4193 61.4848 49.4123 61.4848C49.4053 61.4848 49.3983 61.4848 49.3913 61.4848C49.3842 61.4848 49.3772 61.4848 49.3701 61.4848C49.363 61.4848 49.3559 61.4848 49.3488 61.4848C49.3416 61.4848 49.3345 61.4848 49.3273 61.4848C49.3201 61.4848 49.3129 61.4848 49.3057 61.4848C49.2985 61.4848 49.2912 61.4848 49.284 61.4848C49.2767 61.4848 49.2694 61.4848 49.2621 61.4848C49.2548 61.4848 49.2475 61.4848 49.2401 61.4848C49.2328 61.4848 49.2254 61.4848 49.218 61.4848C49.2106 61.4848 49.2032 61.4848 49.1958 61.4848C49.1883 61.4848 49.1809 61.4848 49.1734 61.4848C49.1659 61.4848 49.1584 61.4848 49.1509 61.4848C49.1434 61.4848 49.1358 61.4848 49.1282 61.4848C49.1207 61.4848 49.1131 61.4848 49.1055 61.4848C49.0979 61.4848 49.0902 61.4848 49.0826 61.4848C49.0749 61.4848 49.0672 61.4848 49.0596 61.4848C49.0519 61.4848 49.0441 61.4848 49.0364 61.4848C49.0287 61.4848 49.0209 61.4848 49.0131 61.4848C49.0053 61.4848 48.9975 61.4848 48.9897 61.4848C48.9819 61.4848 48.9741 61.4848 48.9662 61.4848C48.9583 61.4848 48.9504 61.4848 48.9425 61.4848C48.9346 61.4848 48.9267 61.4848 48.9188 61.4848C48.9108 61.4848 48.9028 61.4848 48.8948 61.4848C48.8869 61.4848 48.8788 61.4848 48.8708 61.4848C48.8628 61.4848 48.8547 61.4848 48.8467 61.4848C48.8386 61.4848 48.8305 61.4848 48.8224 61.4848C48.8143 61.4848 48.8062 61.4848 48.798 61.4848C48.7898 61.4848 48.7817 61.4848 48.7735 61.4848C48.7653 61.4848 48.7571 61.4848 48.7488 61.4848C48.7406 61.4848 48.7324 61.4848 48.7241 61.4848C48.7158 61.4848 48.7075 61.4848 48.6992 61.4848C48.6909 61.4848 48.6826 61.4848 48.6742 61.4848C48.6658 61.4848 48.6575 61.4848 48.6491 61.4848C48.6407 61.4848 48.6323 61.4848 48.6238 61.4848C48.6154 61.4848 48.607 61.4848 48.5985 61.4848C48.59 61.4848 48.5815 61.4848 48.573 61.4848C48.5645 61.4848 48.556 61.4848 48.5474 61.4848C48.5389 61.4848 48.5303 61.4848 48.5217 61.4848C48.5131 61.4848 48.5045 61.4848 48.4959 61.4848C48.4873 61.4848 48.4786 61.4848 48.4699 61.4848C48.4613 61.4848 48.4526 61.4848 48.4439 61.4848C48.4352 61.4848 48.4265 61.4848 48.4177 61.4848C48.409 61.4848 48.4002 61.4848 48.3914 61.4848C48.3827 61.4848 48.3739 61.4848 48.365 61.4848C48.3562 61.4848 48.3474 61.4848 48.3385 61.4848C48.3297 61.4848 48.3208 61.4848 48.3119 61.4848C48.303 61.4848 48.2941 61.4848 48.2852 61.4848C48.2762 61.4848 48.2673 61.4848 48.2583 61.4848C48.2493 61.4848 48.2404 61.4848 48.2313 61.4848C48.2223 61.4848 48.2133 61.4848 48.2043 61.4848C48.1952 61.4848 48.1862 61.4848 48.1771 61.4848C48.168 61.4848 48.1589 61.4848 48.1498 61.4848C48.1407 61.4848 48.1316 61.4848 48.1224 61.4848C48.1132 61.4848 48.1041 61.4848 48.0949 61.4848C48.0857 61.4848 48.0765 61.4848 48.0673 61.4848C48.058 61.4848 48.0488 61.4848 48.0395 61.4848C48.0303 61.4848 48.021 61.4848 48.0117 61.4848C48.0024 61.4848 47.9931 61.4848 47.9838 61.4848C47.9744 61.4848 47.9651 61.4848 47.9557 61.4848C47.9464 61.4848 47.937 61.4848 47.9276 61.4848C47.9182 61.4848 47.9088 61.4848 47.8993 61.4848C47.8899 61.4848 47.8804 61.4848 47.871 61.4848C47.8615 61.4848 47.852 61.4848 47.8425 61.4848C47.833 61.4848 47.8235 61.4848 47.8139 61.4848C47.8044 61.4848 47.7948 61.4848 47.7852 61.4848C47.7757 61.4848 47.7661 61.4848 47.7565 61.4848C47.7469 61.4848 47.7372 61.4848 47.7276 61.4848C47.7179 61.4848 47.7083 61.4848 47.6986 61.4848C47.6889 61.4848 47.6792 61.4848 47.6695 61.4848C47.6598 61.4848 47.6501 61.4848 47.6403 61.4848C47.6306 61.4848 47.6208 61.4848 47.6111 61.4848C47.6013 61.4848 47.5915 61.4848 47.5817 61.4848C47.5719 61.4848 47.562 61.4848 47.5522 61.4848C47.5423 61.4848 47.5325 61.4848 47.5226 61.4848C47.5127 61.4848 47.5028 61.4848 47.4929 61.4848C47.483 61.4848 47.4731 61.4848 47.4631 61.4848C47.4532 61.4848 47.4432 61.4848 47.4333 61.4848C47.4233 61.4848 47.4133 61.4848 47.4033 61.4848C47.3933 61.4848 47.3833 61.4848 47.3732 61.4848C47.3632 61.4848 47.3531 61.4848 47.3431 61.4848C47.333 61.4848 47.3229 61.4848 47.3128 61.4848C47.3027 61.4848 47.2926 61.4848 47.2824 61.4848C47.2723 61.4848 47.2622 61.4848 47.252 61.4848C47.2418 61.4848 47.2316 61.4848 47.2215 61.4848C47.2113 61.4848 47.201 61.4848 47.1908 61.4848C47.1806 61.4848 47.1703 61.4848 47.1601 61.4848C47.1498 61.4848 47.1396 61.4848 47.1293 61.4848C47.119 61.4848 47.1087 61.4848 47.0983 61.4848C47.088 61.4848 47.0777 61.4848 47.0673 61.4848C47.057 61.4848 47.0466 61.4848 47.0362 61.4848C47.0259 61.4848 47.0155 61.4848 47.0051 61.4848C46.9946 61.4848 46.9842 61.4848 46.9738 61.4848C46.9633 61.4848 46.9529 61.4848 46.9424 61.4848C46.9319 61.4848 46.9215 61.4848 46.911 61.4848C46.9005 61.4848 46.8899 61.4848 46.8794 61.4848C46.8689 61.4848 46.8583 61.4848 46.8478 61.4848C46.8372 61.4848 46.8267 61.4848 46.8161 61.4848C46.8055 61.4848 46.7949 61.4848 46.7843 61.4848C46.7736 61.4848 46.763 61.4848 46.7524 61.4848C46.7417 61.4848 46.7311 61.4848 46.7204 61.4848C46.7097 61.4848 46.699 61.4848 46.6883 61.4848C46.6776 61.4848 46.6669 61.4848 46.6562 61.4848C46.6454 61.4848 46.6347 61.4848 46.6239 61.4848C46.6132 61.4848 46.6024 61.4848 46.5916 61.4848C46.5808 61.4848 46.57 61.4848 46.5592 61.4848C46.5484 61.4848 46.5376 61.4848 46.5267 61.4848C46.5159 61.4848 46.505 61.4848 46.4942 61.4848C46.4833 61.4848 46.4724 61.4848 46.4615 61.4848C46.4506 61.4848 46.4397 61.4848 46.4288 61.4848C46.4179 61.4848 46.4069 61.4848 46.396 61.4848C46.385 61.4848 46.3741 61.4848 46.3631 61.4848C46.3521 61.4848 46.3411 61.4848 46.3301 61.4848C46.3191 61.4848 46.3081 61.4848 46.2971 61.4848C46.286 61.4848 46.275 61.4848 46.2639 61.4848C46.2529 61.4848 46.2418 61.4848 46.2307 61.4848C46.2196 61.4848 46.2086 61.4848 46.1974 61.4848C46.1863 61.4848 46.1752 61.4848 46.1641 61.4848C46.1529 61.4848 46.1418 61.4848 46.1306 61.4848C46.1195 61.4848 46.1083 61.4848 46.0971 61.4848C46.0859 61.4848 46.0747 61.4848 46.0635 61.4848C46.0523 61.4848 46.0411 61.4848 46.0299 61.4848C46.0186 61.4848 46.0074 61.4848 45.9961 61.4848C45.9849 61.4848 45.9736 61.4848 45.9623 61.4848C45.951 61.4848 45.9397 61.4848 45.9284 61.4848C45.9171 61.4848 45.9058 61.4848 45.8944 61.4848C45.8831 61.4848 45.8718 61.4848 45.8604 61.4848C45.849 61.4848 45.8377 61.4848 45.8263 61.4848C45.8149 61.4848 45.8035 61.4848 45.7921 61.4848C45.7807 61.4848 45.7693 61.4848 45.7579 61.4848C45.7464 61.4848 45.735 61.4848 45.7235 61.4848C45.7121 61.4848 45.7006 61.4848 45.6891 61.4848C45.6777 61.4848 45.6662 61.4848 45.6547 61.4848C45.6432 61.4848 45.6316 61.4848 45.6201 61.4848C45.6086 61.4848 45.5971 61.4848 45.5855 61.4848C45.574 61.4848 45.5624 61.4848 45.5508 61.4848C45.5393 61.4848 45.5277 61.4848 45.5161 61.4848C45.5045 61.4848 45.4929 61.4848 45.4813 61.4848C45.4697 61.4848 45.4581 61.4848 45.4464 61.4848C45.4348 61.4848 45.4231 61.4848 45.4115 61.4848C45.3998 61.4848 45.3882 61.4848 45.3765 61.4848C45.3648 61.4848 45.3531 61.4848 45.3414 61.4848C45.3297 61.4848 45.318 61.4848 45.3063 61.4848C45.2945 61.4848 45.2828 61.4848 45.2711 61.4848C45.2593 61.4848 45.2476 61.4848 45.2358 61.4848C45.224 61.4848 45.2122 61.4848 45.2005 61.4848C45.1887 61.4848 45.1769 61.4848 45.1651 61.4848C45.1532 61.4848 45.1414 61.4848 45.1296 61.4848C45.1178 61.4848 45.1059 61.4848 45.0941 61.4848C45.0822 61.4848 45.0704 61.4848 45.0585 61.4848C45.0466 61.4848 45.0347 61.4848 45.0229 61.4848C45.011 61.4848 44.9991 61.4848 44.9872 61.4848C44.9752 61.4848 44.9633 61.4848 44.9514 61.4848C44.9395 61.4848 44.9275 61.4848 44.9156 61.4848C44.9036 61.4848 44.8917 61.4848 44.8797 61.4848C44.8677 61.4848 44.8557 61.4848 44.8438 61.4848C44.8318 61.4848 44.8198 61.4848 44.8078 61.4848C44.7957 61.4848 44.7837 61.4848 44.7717 61.4848C44.7597 61.4848 44.7476 61.4848 44.7356 61.4848C44.7235 61.4848 44.7115 61.4848 44.6994 61.4848C44.6874 61.4848 44.6753 61.4848 44.6632 61.4848C44.6511 61.4848 44.639 61.4848 44.6269 61.4848C44.6148 61.4848 44.6027 61.4848 44.5906 61.4848C44.5785 61.4848 44.5663 61.4848 44.5542 61.4848C44.542 61.4848 44.5299 61.4848 44.5177 61.4848C44.5056 61.4848 44.4934 61.4848 44.4812 61.4848C44.4691 61.4848 44.4569 61.4848 44.4447 61.4848C44.4325 61.4848 44.4203 61.4848 44.4081 61.4848C44.3959 61.4848 44.3837 61.4848 44.3714 61.4848C44.3592 61.4848 44.347 61.4848 44.3347 61.4848C44.3225 61.4848 44.3102 61.4848 44.298 61.4848C44.2857 61.4848 44.2734 61.4848 44.2612 61.4848C44.2489 61.4848 44.2366 61.4848 44.2243 61.4848C44.212 61.4848 44.1997 61.4848 44.1874 61.4848C44.1751 61.4848 44.1628 61.4848 44.1504 61.4848C44.1381 61.4848 44.1258 61.4848 44.1134 61.4848C44.1011 61.4848 44.0887 61.4848 44.0764 61.4848C44.064 61.4848 44.0516 61.4848 44.0393 61.4848C44.0269 61.4848 44.0145 61.4848 44.0021 61.4848C43.9897 61.4848 43.9773 61.4848 43.9649 61.4848C43.9525 61.4848 43.9401 61.4848 43.9277 61.4848C43.9153 61.4848 43.9028 61.4848 43.8904 61.4848C43.8779 61.4848 43.8655 61.4848 43.8531 61.4848C43.8406 61.4848 43.8281 61.4848 43.8157 61.4848C43.8032 61.4848 43.7907 61.4848 43.7783 61.4848C43.7658 61.4848 43.7533 61.4848 43.7408 61.4848C43.7283 61.4848 43.7158 61.4848 43.7033 61.4848C43.6908 61.4848 43.6782 61.4848 43.6657 61.4848C43.6532 61.4848 43.6407 61.4848 43.6281 61.4848C43.6156 61.4848 43.603 61.4848 43.5905 61.4848C43.5779 61.4848 43.5654 61.4848 43.5528 61.4848C43.5403 61.4848 43.5277 61.4848 43.5151 61.4848C43.5025 61.4848 43.4899 61.4848 43.4773 61.4848C43.4648 61.4848 43.4522 61.4848 43.4395 61.4848C43.4269 61.4848 43.4143 61.4848 43.4017 61.4848C43.3891 61.4848 43.3765 61.4848 43.3638 61.4848C43.3512 61.4848 43.3386 61.4848 43.3259 61.4848C43.3133 61.4848 43.3006 61.4848 43.288 61.4848C43.2753 61.4848 43.2627 61.4848 43.25 61.4848C43.2373 61.4848 43.2246 61.4848 43.212 61.4848C43.1993 61.4848 43.1866 61.4848 43.1739 61.4848C43.1612 61.4848 43.1485 61.4848 43.1358 61.4848C43.1231 61.4848 43.1104 61.4848 43.0977 61.4848C43.085 61.4848 43.0722 61.4848 43.0595 61.4848C43.0468 61.4848 43.034 61.4848 43.0213 61.4848C43.0086 61.4848 42.9958 61.4848 42.9831 61.4848C42.9703 61.4848 42.9576 61.4848 42.9448 61.4848C42.932 61.4848 42.9193 61.4848 42.9065 61.4848C42.8937 61.4848 42.881 61.4848 42.8682 61.4848C42.8554 61.4848 42.8426 61.4848 42.8298 61.4848C42.817 61.4848 42.8042 61.4848 42.7914 61.4848C42.7786 61.4848 42.7658 61.4848 42.753 61.4848C42.7402 61.4848 42.7273 61.4848 42.7145 61.4848C42.7017 61.4848 42.6889 61.4848 42.676 61.4848C42.6632 61.4848 42.6504 61.4848 42.6375 61.4848C42.6247 61.4848 42.6118 61.4848 42.599 61.4848C42.5861 61.4848 42.5733 61.4848 42.5604 61.4848C42.5475 61.4848 42.5347 61.4848 42.5218 61.4848C42.5089 61.4848 42.4961 61.4848 42.4832 61.4848C42.4703 61.4848 42.4574 61.4848 42.4445 61.4848C42.4316 61.4848 42.4187 61.4848 42.4058 61.4848C42.3929 61.4848 42.38 61.4848 42.3671 61.4848C42.3542 61.4848 42.3413 61.4848 42.3284 61.4848C42.3155 61.4848 42.3026 61.4848 42.2897 61.4848C42.2767 61.4848 42.2638 61.4848 42.2509 61.4848C42.2379 61.4848 42.225 61.4848 42.2121 61.4848C42.1991 61.4848 42.1862 61.4848 42.1732 61.4848C42.1603 61.4848 42.1473 61.4848 42.1344 61.4848C42.1214 61.4848 42.1085 61.4848 42.0955 61.4848C42.0826 61.4848 42.0696 61.4848 42.0566 61.4848C42.0437 61.4848 42.0307 61.4848 42.0177 61.4848C42.0047 61.4848 41.9918 61.4848 41.9788 61.4848C41.9658 61.4848 41.9528 61.4848 41.9398 61.4848C41.9268 61.4848 41.9138 61.4848 41.9008 61.4848C41.8878 61.4848 41.8748 61.4848 41.8618 61.4848C41.8488 61.4848 41.8358 61.4848 41.8228 61.4848C41.8098 61.4848 41.7968 61.4848 41.7838 61.4848C41.7708 61.4848 41.7578 61.4848 41.7448 61.4848C41.7317 61.4848 41.7187 61.4848 41.7057 61.4848C41.6927 61.4848 41.6796 61.4848 41.6666 61.4848C41.6536 61.4848 41.6405 61.4848 41.6275 61.4848C41.6145 61.4848 41.6014 61.4848 41.5884 61.4848C41.5753 61.4848 41.5623 61.4848 41.5493 61.4848C41.5362 61.4848 41.5232 61.4848 41.5101 61.4848C41.4971 61.4848 41.484 61.4848 41.4709 61.4848C41.4579 61.4848 41.4448 61.4848 41.4318 61.4848C41.4187 61.4848 41.4056 61.4848 41.3926 61.4848C41.3795 61.4848 41.3665 61.4848 41.3534 61.4848C41.3403 61.4848 41.3272 61.4848 41.3142 61.4848C41.3011 61.4848 41.288 61.4848 41.2749 61.4848C41.2619 61.4848 41.2488 61.4848 41.2357 61.4848C41.2226 61.4848 41.2095 61.4848 41.1965 61.4848C41.1834 61.4848 41.1703 61.4848 41.1572 61.4848C41.1441 61.4848 41.131 61.4848 41.1179 61.4848C41.1048 61.4848 41.0918 61.4848 41.0787 61.4848C41.0656 61.4848 41.0525 61.4848 41.0394 61.4848C41.0263 61.4848 41.0132 61.4848 41.0001 61.4848C40.987 61.4848 40.9739 61.4848 40.9608 61.4848C40.9477 61.4848 40.9346 61.4848 40.9215 61.4848C40.9084 61.4848 40.8953 61.4848 40.8822 61.4848C40.8691 61.4848 40.8559 61.4848 40.8428 61.4848C40.8297 61.4848 40.8166 61.4848 40.8035 61.4848C40.7904 61.4848 40.7773 61.4848 40.7642 61.4848C40.7511 61.4848 40.738 61.4848 40.7248 61.4848C40.7117 61.4848 40.6986 61.4848 40.6855 61.4848C40.6724 61.4848 40.6593 61.4848 40.6462 61.4848C40.633 61.4848 40.6199 61.4848 40.6068 61.4848C40.5937 61.4848 40.5806 61.4848 40.5675 61.4848C40.5543 61.4848 40.5412 61.4848 40.5281 61.4848C40.515 61.4848 40.5019 61.4848 40.4887 61.4848C40.4756 61.4848 40.4625 61.4848 40.4494 61.4848C40.4363 61.4848 40.4231 61.4848 40.41 61.4848C40.3969 61.4848 40.3838 61.4848 40.3707 61.4848C40.3575 61.4848 40.3444 61.4848 40.3313 61.4848C40.3182 61.4848 40.3051 61.4848 40.292 61.4848C40.2788 61.4848 40.2657 61.4848 40.2526 61.4848C40.2395 61.4848 40.2264 61.4848 40.2132 61.4848C40.2001 61.4848 40.187 61.4848 40.1739 61.4848C40.1608 61.4848 40.1477 61.4848 40.1345 61.4848C40.1214 61.4848 40.1083 61.4848 40.0952 61.4848C40.0821 61.4848 40.069 61.4848 40.0558 61.4848C40.0427 61.4848 40.0296 61.4848 40.0165 61.4848C40.0034 61.4848 39.9903 61.4848 39.9772 61.4848C39.9641 61.4848 39.9509 61.4848 39.9378 61.4848C39.9247 61.4848 39.9116 61.4848 39.8985 61.4848C39.8854 61.4848 39.8723 61.4848 39.8592 61.4848C39.8461 61.4848 39.833 61.4848 39.8199 61.4848C39.8068 61.4848 39.7937 61.4848 39.7806 61.4848C39.7675 61.4848 39.7544 61.4848 39.7413 61.4848C39.7282 61.4848 39.7151 61.4848 39.702 61.4848C39.6889 61.4848 39.6758 61.4848 39.6627 61.4848C39.6496 61.4848 39.6365 61.4848 39.6234 61.4848C39.6104 61.4848 39.5973 61.4848 39.5842 61.4848C39.5711 61.4848 39.558 61.4848 39.5449 61.4848C39.5319 61.4848 39.5188 61.4848 39.5057 61.4848C39.4926 61.4848 39.4795 61.4848 39.4665 61.4848C39.4534 61.4848 39.4403 61.4848 39.4272 61.4848C39.4142 61.4848 39.4011 61.4848 39.388 61.4848C39.375 61.4848 39.3619 61.4848 39.3488 61.4848C39.3358 61.4848 39.3227 61.4848 39.3097 61.4848C39.2966 61.4848 39.2836 61.4848 39.2705 61.4848C39.2574 61.4848 39.2444 61.4848 39.2313 61.4848C39.2183 61.4848 39.2053 61.4848 39.1922 61.4848C39.1792 61.4848 39.1661 61.4848 39.1531 61.4848C39.14 61.4848 39.127 61.4848 39.114 61.4848C39.1009 61.4848 39.0879 61.4848 39.0749 61.4848C39.0619 61.4848 39.0488 61.4848 39.0358 61.4848C39.0228 61.4848 39.0098 61.4848 38.9968 61.4848C38.9837 61.4848 38.9707 61.4848 38.9577 61.4848C38.9447 61.4848 38.9317 61.4848 38.9187 61.4848C38.9057 61.4848 38.8927 61.4848 38.8797 61.4848C38.8667 61.4848 38.8537 61.4848 38.8407 61.4848C38.8277 61.4848 38.8147 61.4848 38.8017 61.4848C38.7888 61.4848 38.7758 61.4848 38.7628 61.4848C38.7498 61.4848 38.7368 61.4848 38.7239 61.4848C38.7109 61.4848 38.6979 61.4848 38.685 61.4848C38.672 61.4848 38.659 61.4848 38.6461 61.4848C38.6331 61.4848 38.6202 61.4848 38.6072 61.4848C38.5943 61.4848 38.5813 61.4848 38.5684 61.4848C38.5554 61.4848 38.5425 61.4848 38.5296 61.4848C38.5166 61.4848 38.5037 61.4848 38.4908 61.4848C38.4779 61.4848 38.4649 61.4848 38.452 61.4848C38.4391 61.4848 38.4262 61.4848 38.4133 61.4848C38.4004 61.4848 38.3875 61.4848 38.3746 61.4848C38.3617 61.4848 38.3488 61.4848 38.3359 61.4848C38.323 61.4848 38.3101 61.4848 38.2972 61.4848C38.2843 61.4848 38.2714 61.4848 38.2586 61.4848C38.2457 61.4848 38.2328 61.4848 38.2199 61.4848C38.2071 61.4848 38.1942 61.4848 38.1814 61.4848C38.1685 61.4848 38.1557 61.4848 38.1428 61.4848C38.13 61.4848 38.1171 61.4848 38.1043 61.4848C38.0914 61.4848 38.0786 61.4848 38.0658 61.4848C38.0529 61.4848 38.0401 61.4848 38.0273 61.4848C38.0145 61.4848 38.0017 61.4848 37.9889 61.4848C37.9761 61.4848 37.9633 61.4848 37.9505 61.4848C37.9377 61.4848 37.9249 61.4848 37.9121 61.4848C37.8993 61.4848 37.8865 61.4848 37.8737 61.4848C37.861 61.4848 37.8482 61.4848 37.8354 61.4848C37.8227 61.4848 37.8099 61.4848 37.7971 61.4848C37.7844 61.4848 37.7716 61.4848 37.7589 61.4848C37.7461 61.4848 37.7334 61.4848 37.7207 61.4848C37.7079 61.4848 37.6952 61.4848 37.6825 61.4848C37.6698 61.4848 37.6571 61.4848 37.6443 61.4848C37.6316 61.4848 37.6189 61.4848 37.6062 61.4848C37.5935 61.4848 37.5808 61.4848 37.5682 61.4848C37.5555 61.4848 37.5428 61.4848 37.5301 61.4848C37.5174 61.4848 37.5048 61.4848 37.4921 61.4848C37.4794 61.4848 37.4668 61.4848 37.4541 61.4848C37.4415 61.4848 37.4289 61.4848 37.4162 61.4848C37.4036 61.4848 37.3909 61.4848 37.3783 61.4848C37.3657 61.4848 37.3531 61.4848 37.3405 61.4848C37.3279 61.4848 37.3153 61.4848 37.3027 61.4848C37.2901 61.4848 37.2775 61.4848 37.2649 61.4848C37.2523 61.4848 37.2397 61.4848 37.2271 61.4848C37.2146 61.4848 37.202 61.4848 37.1894 61.4848C37.1769 61.4848 37.1643 61.4848 37.1518 61.4848C37.1393 61.4848 37.1267 61.4848 37.1142 61.4848C37.1017 61.4848 37.0891 61.4848 37.0766 61.4848C37.0641 61.4848 37.0516 61.4848 37.0391 61.4848C37.0266 61.4848 37.0141 61.4848 37.0016 61.4848C36.9891 61.4848 36.9766 61.4848 36.9642 61.4848C36.9517 61.4848 36.9392 61.4848 36.9268 61.4848C36.9143 61.4848 36.9019 61.4848 36.8894 61.4848C36.877 61.4848 36.8645 61.4848 36.8521 61.4848C36.8397 61.4848 36.8272 61.4848 36.8148 61.4848C36.8024 61.4848 36.79 61.4848 36.7776 61.4848C36.7652 61.4848 36.7528 61.4848 36.7404 61.4848C36.7281 61.4848 36.7157 61.4848 36.7033 61.4848C36.691 61.4848 36.6786 61.4848 36.6662 61.4848C36.6539 61.4848 36.6416 61.4848 36.6292 61.4848C36.6169 61.4848 36.6046 61.4848 36.5922 61.4848C36.5799 61.4848 36.5676 61.4848 36.5553 61.4848C36.543 61.4848 36.5307 61.4848 36.5184 61.4848C36.5061 61.4848 36.4939 61.4848 36.4816 61.4848C36.4693 61.4848 36.4571 61.4848 36.4448 61.4848C36.4326 61.4848 36.4203 61.4848 36.4081 61.4848C36.3958 61.4848 36.3836 61.4848 36.3714 61.4848C36.3592 61.4848 36.347 61.4848 36.3348 61.4848C36.3226 61.4848 36.3104 61.4848 36.2982 61.4848C36.286 61.4848 36.2738 61.4848 36.2617 61.4848C36.2495 61.4848 36.2374 61.4848 36.2252 61.4848C36.2131 61.4848 36.2009 61.4848 36.1888 61.4848C36.1767 61.4848 36.1646 61.4848 36.1524 61.4848C36.1403 61.4848 36.1282 61.4848 36.1161 61.4848C36.104 61.4848 36.092 61.4848 36.0799 61.4848C36.0678 61.4848 36.0557 61.4848 36.0437 61.4848C36.0316 61.4848 36.0196 61.4848 36.0076 61.4848V62.1577C36.0196 62.1577 36.0316 62.1577 36.0437 62.1577C36.0557 62.1577 36.0678 62.1577 36.0799 62.1577C36.092 62.1577 36.104 62.1577 36.1161 62.1577C36.1282 62.1577 36.1403 62.1577 36.1524 62.1577C36.1646 62.1577 36.1767 62.1577 36.1888 62.1577C36.2009 62.1577 36.2131 62.1577 36.2252 62.1577C36.2374 62.1577 36.2495 62.1577 36.2617 62.1577C36.2738 62.1577 36.286 62.1577 36.2982 62.1577C36.3104 62.1577 36.3226 62.1577 36.3348 62.1577C36.347 62.1577 36.3592 62.1577 36.3714 62.1577C36.3836 62.1577 36.3958 62.1577 36.4081 62.1577C36.4203 62.1577 36.4326 62.1577 36.4448 62.1577C36.4571 62.1577 36.4693 62.1577 36.4816 62.1577C36.4939 62.1577 36.5061 62.1577 36.5184 62.1577C36.5307 62.1577 36.543 62.1577 36.5553 62.1577C36.5676 62.1577 36.5799 62.1577 36.5922 62.1577C36.6046 62.1577 36.6169 62.1577 36.6292 62.1577C36.6416 62.1577 36.6539 62.1577 36.6662 62.1577C36.6786 62.1577 36.691 62.1577 36.7033 62.1577C36.7157 62.1577 36.7281 62.1577 36.7404 62.1577C36.7528 62.1577 36.7652 62.1577 36.7776 62.1577C36.79 62.1577 36.8024 62.1577 36.8148 62.1577C36.8272 62.1577 36.8397 62.1577 36.8521 62.1577C36.8645 62.1577 36.877 62.1577 36.8894 62.1577C36.9019 62.1577 36.9143 62.1577 36.9268 62.1577C36.9392 62.1577 36.9517 62.1577 36.9642 62.1577C36.9766 62.1577 36.9891 62.1577 37.0016 62.1577C37.0141 62.1577 37.0266 62.1577 37.0391 62.1577C37.0516 62.1577 37.0641 62.1577 37.0766 62.1577C37.0891 62.1577 37.1017 62.1577 37.1142 62.1577C37.1267 62.1577 37.1393 62.1577 37.1518 62.1577C37.1643 62.1577 37.1769 62.1577 37.1894 62.1577C37.202 62.1577 37.2146 62.1577 37.2271 62.1577C37.2397 62.1577 37.2523 62.1577 37.2649 62.1577C37.2775 62.1577 37.2901 62.1577 37.3027 62.1577C37.3153 62.1577 37.3279 62.1577 37.3405 62.1577C37.3531 62.1577 37.3657 62.1577 37.3783 62.1577C37.3909 62.1577 37.4036 62.1577 37.4162 62.1577C37.4289 62.1577 37.4415 62.1577 37.4541 62.1577C37.4668 62.1577 37.4794 62.1577 37.4921 62.1577C37.5048 62.1577 37.5174 62.1577 37.5301 62.1577C37.5428 62.1577 37.5555 62.1577 37.5682 62.1577C37.5808 62.1577 37.5935 62.1577 37.6062 62.1577C37.6189 62.1577 37.6316 62.1577 37.6443 62.1577C37.6571 62.1577 37.6698 62.1577 37.6825 62.1577C37.6952 62.1577 37.7079 62.1577 37.7207 62.1577C37.7334 62.1577 37.7461 62.1577 37.7589 62.1577C37.7716 62.1577 37.7844 62.1577 37.7971 62.1577C37.8099 62.1577 37.8227 62.1577 37.8354 62.1577C37.8482 62.1577 37.861 62.1577 37.8737 62.1577C37.8865 62.1577 37.8993 62.1577 37.9121 62.1577C37.9249 62.1577 37.9377 62.1577 37.9505 62.1577C37.9633 62.1577 37.9761 62.1577 37.9889 62.1577C38.0017 62.1577 38.0145 62.1577 38.0273 62.1577C38.0401 62.1577 38.0529 62.1577 38.0658 62.1577C38.0786 62.1577 38.0914 62.1577 38.1043 62.1577C38.1171 62.1577 38.13 62.1577 38.1428 62.1577C38.1557 62.1577 38.1685 62.1577 38.1814 62.1577C38.1942 62.1577 38.2071 62.1577 38.2199 62.1577C38.2328 62.1577 38.2457 62.1577 38.2586 62.1577C38.2714 62.1577 38.2843 62.1577 38.2972 62.1577C38.3101 62.1577 38.323 62.1577 38.3359 62.1577C38.3488 62.1577 38.3617 62.1577 38.3746 62.1577C38.3875 62.1577 38.4004 62.1577 38.4133 62.1577C38.4262 62.1577 38.4391 62.1577 38.452 62.1577C38.4649 62.1577 38.4779 62.1577 38.4908 62.1577C38.5037 62.1577 38.5166 62.1577 38.5296 62.1577C38.5425 62.1577 38.5554 62.1577 38.5684 62.1577C38.5813 62.1577 38.5943 62.1577 38.6072 62.1577C38.6202 62.1577 38.6331 62.1577 38.6461 62.1577C38.659 62.1577 38.672 62.1577 38.685 62.1577C38.6979 62.1577 38.7109 62.1577 38.7239 62.1577C38.7368 62.1577 38.7498 62.1577 38.7628 62.1577C38.7758 62.1577 38.7888 62.1577 38.8017 62.1577C38.8147 62.1577 38.8277 62.1577 38.8407 62.1577C38.8537 62.1577 38.8667 62.1577 38.8797 62.1577C38.8927 62.1577 38.9057 62.1577 38.9187 62.1577C38.9317 62.1577 38.9447 62.1577 38.9577 62.1577C38.9707 62.1577 38.9837 62.1577 38.9968 62.1577C39.0098 62.1577 39.0228 62.1577 39.0358 62.1577C39.0488 62.1577 39.0619 62.1577 39.0749 62.1577C39.0879 62.1577 39.1009 62.1577 39.114 62.1577C39.127 62.1577 39.14 62.1577 39.1531 62.1577C39.1661 62.1577 39.1792 62.1577 39.1922 62.1577C39.2053 62.1577 39.2183 62.1577 39.2313 62.1577C39.2444 62.1577 39.2574 62.1577 39.2705 62.1577C39.2836 62.1577 39.2966 62.1577 39.3097 62.1577C39.3227 62.1577 39.3358 62.1577 39.3488 62.1577C39.3619 62.1577 39.375 62.1577 39.388 62.1577C39.4011 62.1577 39.4142 62.1577 39.4272 62.1577C39.4403 62.1577 39.4534 62.1577 39.4665 62.1577C39.4795 62.1577 39.4926 62.1577 39.5057 62.1577C39.5188 62.1577 39.5319 62.1577 39.5449 62.1577C39.558 62.1577 39.5711 62.1577 39.5842 62.1577C39.5973 62.1577 39.6104 62.1577 39.6234 62.1577C39.6365 62.1577 39.6496 62.1577 39.6627 62.1577C39.6758 62.1577 39.6889 62.1577 39.702 62.1577C39.7151 62.1577 39.7282 62.1577 39.7413 62.1577C39.7544 62.1577 39.7675 62.1577 39.7806 62.1577C39.7937 62.1577 39.8068 62.1577 39.8199 62.1577C39.833 62.1577 39.8461 62.1577 39.8592 62.1577C39.8723 62.1577 39.8854 62.1577 39.8985 62.1577C39.9116 62.1577 39.9247 62.1577 39.9378 62.1577C39.9509 62.1577 39.9641 62.1577 39.9772 62.1577C39.9903 62.1577 40.0034 62.1577 40.0165 62.1577C40.0296 62.1577 40.0427 62.1577 40.0558 62.1577C40.069 62.1577 40.0821 62.1577 40.0952 62.1577C40.1083 62.1577 40.1214 62.1577 40.1345 62.1577C40.1477 62.1577 40.1608 62.1577 40.1739 62.1577C40.187 62.1577 40.2001 62.1577 40.2132 62.1577C40.2264 62.1577 40.2395 62.1577 40.2526 62.1577C40.2657 62.1577 40.2788 62.1577 40.292 62.1577C40.3051 62.1577 40.3182 62.1577 40.3313 62.1577C40.3444 62.1577 40.3575 62.1577 40.3707 62.1577C40.3838 62.1577 40.3969 62.1577 40.41 62.1577C40.4231 62.1577 40.4363 62.1577 40.4494 62.1577C40.4625 62.1577 40.4756 62.1577 40.4887 62.1577C40.5019 62.1577 40.515 62.1577 40.5281 62.1577C40.5412 62.1577 40.5543 62.1577 40.5675 62.1577C40.5806 62.1577 40.5937 62.1577 40.6068 62.1577C40.6199 62.1577 40.633 62.1577 40.6462 62.1577C40.6593 62.1577 40.6724 62.1577 40.6855 62.1577C40.6986 62.1577 40.7117 62.1577 40.7248 62.1577C40.738 62.1577 40.7511 62.1577 40.7642 62.1577C40.7773 62.1577 40.7904 62.1577 40.8035 62.1577C40.8166 62.1577 40.8297 62.1577 40.8428 62.1577C40.8559 62.1577 40.8691 62.1577 40.8822 62.1577C40.8953 62.1577 40.9084 62.1577 40.9215 62.1577C40.9346 62.1577 40.9477 62.1577 40.9608 62.1577C40.9739 62.1577 40.987 62.1577 41.0001 62.1577C41.0132 62.1577 41.0263 62.1577 41.0394 62.1577C41.0525 62.1577 41.0656 62.1577 41.0787 62.1577C41.0918 62.1577 41.1048 62.1577 41.1179 62.1577C41.131 62.1577 41.1441 62.1577 41.1572 62.1577C41.1703 62.1577 41.1834 62.1577 41.1965 62.1577C41.2095 62.1577 41.2226 62.1577 41.2357 62.1577C41.2488 62.1577 41.2619 62.1577 41.2749 62.1577C41.288 62.1577 41.3011 62.1577 41.3142 62.1577C41.3272 62.1577 41.3403 62.1577 41.3534 62.1577C41.3665 62.1577 41.3795 62.1577 41.3926 62.1577C41.4056 62.1577 41.4187 62.1577 41.4318 62.1577C41.4448 62.1577 41.4579 62.1577 41.4709 62.1577C41.484 62.1577 41.4971 62.1577 41.5101 62.1577C41.5232 62.1577 41.5362 62.1577 41.5493 62.1577C41.5623 62.1577 41.5753 62.1577 41.5884 62.1577C41.6014 62.1577 41.6145 62.1577 41.6275 62.1577C41.6405 62.1577 41.6536 62.1577 41.6666 62.1577C41.6796 62.1577 41.6927 62.1577 41.7057 62.1577C41.7187 62.1577 41.7317 62.1577 41.7448 62.1577C41.7578 62.1577 41.7708 62.1577 41.7838 62.1577C41.7968 62.1577 41.8098 62.1577 41.8228 62.1577C41.8358 62.1577 41.8488 62.1577 41.8618 62.1577C41.8748 62.1577 41.8878 62.1577 41.9008 62.1577C41.9138 62.1577 41.9268 62.1577 41.9398 62.1577C41.9528 62.1577 41.9658 62.1577 41.9788 62.1577C41.9918 62.1577 42.0047 62.1577 42.0177 62.1577C42.0307 62.1577 42.0437 62.1577 42.0566 62.1577C42.0696 62.1577 42.0826 62.1577 42.0955 62.1577C42.1085 62.1577 42.1214 62.1577 42.1344 62.1577C42.1473 62.1577 42.1603 62.1577 42.1732 62.1577C42.1862 62.1577 42.1991 62.1577 42.2121 62.1577C42.225 62.1577 42.2379 62.1577 42.2509 62.1577C42.2638 62.1577 42.2767 62.1577 42.2897 62.1577C42.3026 62.1577 42.3155 62.1577 42.3284 62.1577C42.3413 62.1577 42.3542 62.1577 42.3671 62.1577C42.38 62.1577 42.3929 62.1577 42.4058 62.1577C42.4187 62.1577 42.4316 62.1577 42.4445 62.1577C42.4574 62.1577 42.4703 62.1577 42.4832 62.1577C42.4961 62.1577 42.5089 62.1577 42.5218 62.1577C42.5347 62.1577 42.5475 62.1577 42.5604 62.1577C42.5733 62.1577 42.5861 62.1577 42.599 62.1577C42.6118 62.1577 42.6247 62.1577 42.6375 62.1577C42.6504 62.1577 42.6632 62.1577 42.676 62.1577C42.6889 62.1577 42.7017 62.1577 42.7145 62.1577C42.7273 62.1577 42.7402 62.1577 42.753 62.1577C42.7658 62.1577 42.7786 62.1577 42.7914 62.1577C42.8042 62.1577 42.817 62.1577 42.8298 62.1577C42.8426 62.1577 42.8554 62.1577 42.8682 62.1577C42.881 62.1577 42.8937 62.1577 42.9065 62.1577C42.9193 62.1577 42.932 62.1577 42.9448 62.1577C42.9576 62.1577 42.9703 62.1577 42.9831 62.1577C42.9958 62.1577 43.0086 62.1577 43.0213 62.1577C43.034 62.1577 43.0468 62.1577 43.0595 62.1577C43.0722 62.1577 43.085 62.1577 43.0977 62.1577C43.1104 62.1577 43.1231 62.1577 43.1358 62.1577C43.1485 62.1577 43.1612 62.1577 43.1739 62.1577C43.1866 62.1577 43.1993 62.1577 43.212 62.1577C43.2246 62.1577 43.2373 62.1577 43.25 62.1577C43.2627 62.1577 43.2753 62.1577 43.288 62.1577C43.3006 62.1577 43.3133 62.1577 43.3259 62.1577C43.3386 62.1577 43.3512 62.1577 43.3638 62.1577C43.3765 62.1577 43.3891 62.1577 43.4017 62.1577C43.4143 62.1577 43.4269 62.1577 43.4395 62.1577C43.4522 62.1577 43.4648 62.1577 43.4773 62.1577C43.4899 62.1577 43.5025 62.1577 43.5151 62.1577C43.5277 62.1577 43.5403 62.1577 43.5528 62.1577C43.5654 62.1577 43.5779 62.1577 43.5905 62.1577C43.603 62.1577 43.6156 62.1577 43.6281 62.1577C43.6407 62.1577 43.6532 62.1577 43.6657 62.1577C43.6782 62.1577 43.6908 62.1577 43.7033 62.1577C43.7158 62.1577 43.7283 62.1577 43.7408 62.1577C43.7533 62.1577 43.7658 62.1577 43.7783 62.1577C43.7907 62.1577 43.8032 62.1577 43.8157 62.1577C43.8281 62.1577 43.8406 62.1577 43.8531 62.1577C43.8655 62.1577 43.8779 62.1577 43.8904 62.1577C43.9028 62.1577 43.9153 62.1577 43.9277 62.1577C43.9401 62.1577 43.9525 62.1577 43.9649 62.1577C43.9773 62.1577 43.9897 62.1577 44.0021 62.1577C44.0145 62.1577 44.0269 62.1577 44.0393 62.1577C44.0516 62.1577 44.064 62.1577 44.0764 62.1577C44.0887 62.1577 44.1011 62.1577 44.1134 62.1577C44.1258 62.1577 44.1381 62.1577 44.1504 62.1577C44.1628 62.1577 44.1751 62.1577 44.1874 62.1577C44.1997 62.1577 44.212 62.1577 44.2243 62.1577C44.2366 62.1577 44.2489 62.1577 44.2612 62.1577C44.2734 62.1577 44.2857 62.1577 44.298 62.1577C44.3102 62.1577 44.3225 62.1577 44.3347 62.1577C44.347 62.1577 44.3592 62.1577 44.3714 62.1577C44.3837 62.1577 44.3959 62.1577 44.4081 62.1577C44.4203 62.1577 44.4325 62.1577 44.4447 62.1577C44.4569 62.1577 44.4691 62.1577 44.4812 62.1577C44.4934 62.1577 44.5056 62.1577 44.5177 62.1577C44.5299 62.1577 44.542 62.1577 44.5542 62.1577C44.5663 62.1577 44.5785 62.1577 44.5906 62.1577C44.6027 62.1577 44.6148 62.1577 44.6269 62.1577C44.639 62.1577 44.6511 62.1577 44.6632 62.1577C44.6753 62.1577 44.6874 62.1577 44.6994 62.1577C44.7115 62.1577 44.7235 62.1577 44.7356 62.1577C44.7476 62.1577 44.7597 62.1577 44.7717 62.1577C44.7837 62.1577 44.7957 62.1577 44.8078 62.1577C44.8198 62.1577 44.8318 62.1577 44.8438 62.1577C44.8557 62.1577 44.8677 62.1577 44.8797 62.1577C44.8917 62.1577 44.9036 62.1577 44.9156 62.1577C44.9275 62.1577 44.9395 62.1577 44.9514 62.1577C44.9633 62.1577 44.9752 62.1577 44.9872 62.1577C44.9991 62.1577 45.011 62.1577 45.0229 62.1577C45.0347 62.1577 45.0466 62.1577 45.0585 62.1577C45.0704 62.1577 45.0822 62.1577 45.0941 62.1577C45.1059 62.1577 45.1178 62.1577 45.1296 62.1577C45.1414 62.1577 45.1532 62.1577 45.1651 62.1577C45.1769 62.1577 45.1887 62.1577 45.2005 62.1577C45.2122 62.1577 45.224 62.1577 45.2358 62.1577C45.2476 62.1577 45.2593 62.1577 45.2711 62.1577C45.2828 62.1577 45.2945 62.1577 45.3063 62.1577C45.318 62.1577 45.3297 62.1577 45.3414 62.1577C45.3531 62.1577 45.3648 62.1577 45.3765 62.1577C45.3882 62.1577 45.3998 62.1577 45.4115 62.1577C45.4231 62.1577 45.4348 62.1577 45.4464 62.1577C45.4581 62.1577 45.4697 62.1577 45.4813 62.1577C45.4929 62.1577 45.5045 62.1577 45.5161 62.1577C45.5277 62.1577 45.5393 62.1577 45.5508 62.1577C45.5624 62.1577 45.574 62.1577 45.5855 62.1577C45.5971 62.1577 45.6086 62.1577 45.6201 62.1577C45.6316 62.1577 45.6432 62.1577 45.6547 62.1577C45.6662 62.1577 45.6777 62.1577 45.6891 62.1577C45.7006 62.1577 45.7121 62.1577 45.7235 62.1577C45.735 62.1577 45.7464 62.1577 45.7579 62.1577C45.7693 62.1577 45.7807 62.1577 45.7921 62.1577C45.8035 62.1577 45.8149 62.1577 45.8263 62.1577C45.8377 62.1577 45.849 62.1577 45.8604 62.1577C45.8718 62.1577 45.8831 62.1577 45.8944 62.1577C45.9058 62.1577 45.9171 62.1577 45.9284 62.1577C45.9397 62.1577 45.951 62.1577 45.9623 62.1577C45.9736 62.1577 45.9849 62.1577 45.9961 62.1577C46.0074 62.1577 46.0186 62.1577 46.0299 62.1577C46.0411 62.1577 46.0523 62.1577 46.0635 62.1577C46.0747 62.1577 46.0859 62.1577 46.0971 62.1577C46.1083 62.1577 46.1195 62.1577 46.1306 62.1577C46.1418 62.1577 46.1529 62.1577 46.1641 62.1577C46.1752 62.1577 46.1863 62.1577 46.1974 62.1577C46.2086 62.1577 46.2196 62.1577 46.2307 62.1577C46.2418 62.1577 46.2529 62.1577 46.2639 62.1577C46.275 62.1577 46.286 62.1577 46.2971 62.1577C46.3081 62.1577 46.3191 62.1577 46.3301 62.1577C46.3411 62.1577 46.3521 62.1577 46.3631 62.1577C46.3741 62.1577 46.385 62.1577 46.396 62.1577C46.4069 62.1577 46.4179 62.1577 46.4288 62.1577C46.4397 62.1577 46.4506 62.1577 46.4615 62.1577C46.4724 62.1577 46.4833 62.1577 46.4942 62.1577C46.505 62.1577 46.5159 62.1577 46.5267 62.1577C46.5376 62.1577 46.5484 62.1577 46.5592 62.1577C46.57 62.1577 46.5808 62.1577 46.5916 62.1577C46.6024 62.1577 46.6132 62.1577 46.6239 62.1577C46.6347 62.1577 46.6454 62.1577 46.6562 62.1577C46.6669 62.1577 46.6776 62.1577 46.6883 62.1577C46.699 62.1577 46.7097 62.1577 46.7204 62.1577C46.7311 62.1577 46.7417 62.1577 46.7524 62.1577C46.763 62.1577 46.7736 62.1577 46.7843 62.1577C46.7949 62.1577 46.8055 62.1577 46.8161 62.1577C46.8267 62.1577 46.8372 62.1577 46.8478 62.1577C46.8583 62.1577 46.8689 62.1577 46.8794 62.1577C46.8899 62.1577 46.9005 62.1577 46.911 62.1577C46.9215 62.1577 46.9319 62.1577 46.9424 62.1577C46.9529 62.1577 46.9633 62.1577 46.9738 62.1577C46.9842 62.1577 46.9946 62.1577 47.0051 62.1577C47.0155 62.1577 47.0259 62.1577 47.0362 62.1577C47.0466 62.1577 47.057 62.1577 47.0673 62.1577C47.0777 62.1577 47.088 62.1577 47.0983 62.1577C47.1087 62.1577 47.119 62.1577 47.1293 62.1577C47.1396 62.1577 47.1498 62.1577 47.1601 62.1577C47.1703 62.1577 47.1806 62.1577 47.1908 62.1577C47.201 62.1577 47.2113 62.1577 47.2215 62.1577C47.2316 62.1577 47.2418 62.1577 47.252 62.1577C47.2622 62.1577 47.2723 62.1577 47.2824 62.1577C47.2926 62.1577 47.3027 62.1577 47.3128 62.1577C47.3229 62.1577 47.333 62.1577 47.3431 62.1577C47.3531 62.1577 47.3632 62.1577 47.3732 62.1577C47.3833 62.1577 47.3933 62.1577 47.4033 62.1577C47.4133 62.1577 47.4233 62.1577 47.4333 62.1577C47.4432 62.1577 47.4532 62.1577 47.4631 62.1577C47.4731 62.1577 47.483 62.1577 47.4929 62.1577C47.5028 62.1577 47.5127 62.1577 47.5226 62.1577C47.5325 62.1577 47.5423 62.1577 47.5522 62.1577C47.562 62.1577 47.5719 62.1577 47.5817 62.1577C47.5915 62.1577 47.6013 62.1577 47.6111 62.1577C47.6208 62.1577 47.6306 62.1577 47.6403 62.1577C47.6501 62.1577 47.6598 62.1577 47.6695 62.1577C47.6792 62.1577 47.6889 62.1577 47.6986 62.1577C47.7083 62.1577 47.7179 62.1577 47.7276 62.1577C47.7372 62.1577 47.7469 62.1577 47.7565 62.1577C47.7661 62.1577 47.7757 62.1577 47.7852 62.1577C47.7948 62.1577 47.8044 62.1577 47.8139 62.1577C47.8235 62.1577 47.833 62.1577 47.8425 62.1577C47.852 62.1577 47.8615 62.1577 47.871 62.1577C47.8804 62.1577 47.8899 62.1577 47.8993 62.1577C47.9088 62.1577 47.9182 62.1577 47.9276 62.1577C47.937 62.1577 47.9464 62.1577 47.9557 62.1577C47.9651 62.1577 47.9744 62.1577 47.9838 62.1577C47.9931 62.1577 48.0024 62.1577 48.0117 62.1577C48.021 62.1577 48.0303 62.1577 48.0395 62.1577C48.0488 62.1577 48.058 62.1577 48.0673 62.1577C48.0765 62.1577 48.0857 62.1577 48.0949 62.1577C48.1041 62.1577 48.1132 62.1577 48.1224 62.1577C48.1316 62.1577 48.1407 62.1577 48.1498 62.1577C48.1589 62.1577 48.168 62.1577 48.1771 62.1577C48.1862 62.1577 48.1952 62.1577 48.2043 62.1577C48.2133 62.1577 48.2223 62.1577 48.2313 62.1577C48.2404 62.1577 48.2493 62.1577 48.2583 62.1577C48.2673 62.1577 48.2762 62.1577 48.2852 62.1577C48.2941 62.1577 48.303 62.1577 48.3119 62.1577C48.3208 62.1577 48.3297 62.1577 48.3385 62.1577C48.3474 62.1577 48.3562 62.1577 48.365 62.1577C48.3739 62.1577 48.3827 62.1577 48.3914 62.1577C48.4002 62.1577 48.409 62.1577 48.4177 62.1577C48.4265 62.1577 48.4352 62.1577 48.4439 62.1577C48.4526 62.1577 48.4613 62.1577 48.4699 62.1577C48.4786 62.1577 48.4873 62.1577 48.4959 62.1577C48.5045 62.1577 48.5131 62.1577 48.5217 62.1577C48.5303 62.1577 48.5389 62.1577 48.5474 62.1577C48.556 62.1577 48.5645 62.1577 48.573 62.1577C48.5815 62.1577 48.59 62.1577 48.5985 62.1577C48.607 62.1577 48.6154 62.1577 48.6238 62.1577C48.6323 62.1577 48.6407 62.1577 48.6491 62.1577C48.6575 62.1577 48.6658 62.1577 48.6742 62.1577C48.6826 62.1577 48.6909 62.1577 48.6992 62.1577C48.7075 62.1577 48.7158 62.1577 48.7241 62.1577C48.7324 62.1577 48.7406 62.1577 48.7488 62.1577C48.7571 62.1577 48.7653 62.1577 48.7735 62.1577C48.7817 62.1577 48.7898 62.1577 48.798 62.1577C48.8062 62.1577 48.8143 62.1577 48.8224 62.1577C48.8305 62.1577 48.8386 62.1577 48.8467 62.1577C48.8547 62.1577 48.8628 62.1577 48.8708 62.1577C48.8788 62.1577 48.8869 62.1577 48.8948 62.1577C48.9028 62.1577 48.9108 62.1577 48.9188 62.1577C48.9267 62.1577 48.9346 62.1577 48.9425 62.1577C48.9504 62.1577 48.9583 62.1577 48.9662 62.1577C48.9741 62.1577 48.9819 62.1577 48.9897 62.1577C48.9975 62.1577 49.0053 62.1577 49.0131 62.1577C49.0209 62.1577 49.0287 62.1577 49.0364 62.1577C49.0441 62.1577 49.0519 62.1577 49.0596 62.1577C49.0672 62.1577 49.0749 62.1577 49.0826 62.1577C49.0902 62.1577 49.0979 62.1577 49.1055 62.1577C49.1131 62.1577 49.1207 62.1577 49.1282 62.1577C49.1358 62.1577 49.1434 62.1577 49.1509 62.1577C49.1584 62.1577 49.1659 62.1577 49.1734 62.1577C49.1809 62.1577 49.1883 62.1577 49.1958 62.1577C49.2032 62.1577 49.2106 62.1577 49.218 62.1577C49.2254 62.1577 49.2328 62.1577 49.2401 62.1577C49.2475 62.1577 49.2548 62.1577 49.2621 62.1577C49.2694 62.1577 49.2767 62.1577 49.284 62.1577C49.2912 62.1577 49.2985 62.1577 49.3057 62.1577C49.3129 62.1577 49.3201 62.1577 49.3273 62.1577C49.3345 62.1577 49.3416 62.1577 49.3488 62.1577C49.3559 62.1577 49.363 62.1577 49.3701 62.1577C49.3772 62.1577 49.3842 62.1577 49.3913 62.1577C49.3983 62.1577 49.4053 62.1577 49.4123 62.1577C49.4193 62.1577 49.4263 62.1577 49.4332 62.1577C49.4402 62.1577 49.4471 62.1577 49.454 62.1577C49.4609 62.1577 49.4678 62.1577 49.4747 62.1577C49.4815 62.1577 49.4884 62.1577 49.4952 62.1577C49.502 62.1577 49.5088 62.1577 49.5156 62.1577C49.5223 62.1577 49.5291 62.1577 49.5358 62.1577C49.5425 62.1577 49.5492 62.1577 49.5559 62.1577C49.5626 62.1577 49.5692 62.1577 49.5759 62.1577C49.5825 62.1577 49.5891 62.1577 49.5957 62.1577C49.6023 62.1577 49.6088 62.1577 49.6154 62.1577C49.6219 62.1577 49.6284 62.1577 49.6349 62.1577C49.6414 62.1577 49.6479 62.1577 49.6543 62.1577C49.6607 62.1577 49.6672 62.1577 49.6736 62.1577C49.68 62.1577 49.6863 62.1577 49.6927 62.1577C49.699 62.1577 49.7053 62.1577 49.7116 62.1577C49.7179 62.1577 49.7242 62.1577 49.7305 62.1577C49.7367 62.1577 49.743 62.1577 49.7492 62.1577C49.7554 62.1577 49.7616 62.1577 49.7677 62.1577C49.7739 62.1577 49.78 62.1577 49.7861 62.1577C49.7922 62.1577 49.7983 62.1577 49.8044 62.1577C49.8104 62.1577 49.8165 62.1577 49.8225 62.1577C49.8285 62.1577 49.8345 62.1577 49.8405 62.1577C49.8464 62.1577 49.8524 62.1577 49.8583 62.1577C49.8642 62.1577 49.8701 62.1577 49.8759 62.1577C49.8818 62.1577 49.8877 62.1577 49.8935 62.1577C49.8993 62.1577 49.9051 62.1577 49.9108 62.1577C49.9166 62.1577 49.9224 62.1577 49.9281 62.1577C49.9338 62.1577 49.9395 62.1577 49.9452 62.1577C49.9508 62.1577 49.9565 62.1577 49.9621 62.1577C49.9677 62.1577 49.9733 62.1577 49.9789 62.1577C49.9844 62.1577 49.99 62.1577 49.9955 62.1577C50.001 62.1577 50.0065 62.1577 50.012 62.1577C50.0175 62.1577 50.0229 62.1577 50.0283 62.1577C50.0337 62.1577 50.0391 62.1577 50.0445 62.1577C50.0499 62.1577 50.0552 62.1577 50.0605 62.1577C50.0658 62.1577 50.0711 62.1577 50.0764 62.1577C50.0817 62.1577 50.0869 62.1577 50.0921 62.1577C50.0973 62.1577 50.1025 62.1577 50.1077 62.1577C50.1128 62.1577 50.118 62.1577 50.1231 62.1577C50.1282 62.1577 50.1333 62.1577 50.1384 62.1577C50.1434 62.1577 50.1484 62.1577 50.1535 62.1577C50.1585 62.1577 50.1634 62.1577 50.1684 62.1577C50.1734 62.1577 50.1783 62.1577 50.1832 62.1577C50.1881 62.1577 50.193 62.1577 50.1978 62.1577C50.2027 62.1577 50.2075 62.1577 50.2123 62.1577C50.2171 62.1577 50.2219 62.1577 50.2266 62.1577C50.2314 62.1577 50.2361 62.1577 50.2408 62.1577C50.2455 62.1577 50.2502 62.1577 50.2548 62.1577C50.2594 62.1577 50.2641 62.1577 50.2686 62.1577C50.2732 62.1577 50.2778 62.1577 50.2823 62.1577C50.2869 62.1577 50.2914 62.1577 50.2958 62.1577C50.3003 62.1577 50.3048 62.1577 50.3092 62.1577C50.3136 62.1577 50.318 62.1577 50.3224 62.1577C50.3268 62.1577 50.3311 62.1577 50.3355 62.1577C50.3398 62.1577 50.3441 62.1577 50.3483 62.1577C50.3526 62.1577 50.3568 62.1577 50.3611 62.1577C50.3653 62.1577 50.3694 62.1577 50.3736 62.1577C50.3778 62.1577 50.3819 62.1577 50.386 62.1577C50.3901 62.1577 50.3942 62.1577 50.3982 62.1577C50.4023 62.1577 50.4063 62.1577 50.4103 62.1577C50.4143 62.1577 50.4182 62.1577 50.4222 62.1577C50.4261 62.1577 50.43 62.1577 50.4339 62.1577C50.4378 62.1577 50.4416 62.1577 50.4455 62.1577C50.4493 62.1577 50.4531 62.1577 50.4569 62.1577C50.4606 62.1577 50.4644 62.1577 50.4681 62.1577C50.4718 62.1577 50.4755 62.1577 50.4792 62.1577C50.4828 62.1577 50.4865 62.1577 50.4901 62.1577C50.4937 62.1577 50.4972 62.1577 50.5008 62.1577C50.5043 62.1577 50.5079 62.1577 50.5113 62.1577C50.5148 62.1577 50.5183 62.1577 50.5217 62.1577C50.5252 62.1577 50.5286 62.1577 50.532 62.1577C50.5353 62.1577 50.5387 62.1577 50.542 62.1577C50.5453 62.1577 50.5486 62.1577 50.5519 62.1577C50.5551 62.1577 50.5584 62.1577 50.5616 62.1577C50.5648 62.1577 50.568 62.1577 50.5711 62.1577C50.5743 62.1577 50.5774 62.1577 50.5805 62.1577C50.5836 62.1577 50.5866 62.1577 50.5897 62.1577C50.5927 62.1577 50.5957 62.1577 50.5987 62.1577C50.6017 62.1577 50.6046 62.1577 50.6075 62.1577C50.6104 62.1577 50.6133 62.1577 50.6162 62.1577C50.619 62.1577 50.6219 62.1577 50.6247 62.1577C50.6275 62.1577 50.6302 62.1577 50.633 62.1577C50.6357 62.1577 50.6384 62.1577 50.6411 62.1577C50.6438 62.1577 50.6465 62.1577 50.6491 62.1577C50.6517 62.1577 50.6543 62.1577 50.6569 62.1577C50.6594 62.1577 50.662 62.1577 50.6645 62.1577C50.667 62.1577 50.6695 62.1577 50.6719 62.1577C50.6744 62.1577 50.6768 62.1577 50.6792 62.1577C50.6816 62.1577 50.6839 62.1577 50.6862 62.1577C50.6886 62.1577 50.6909 62.1577 50.6931 62.1577C50.6954 62.1577 50.6976 62.1577 50.6998 62.1577C50.702 62.1577 50.7042 62.1577 50.7064 62.1577C50.7085 62.1577 50.7106 62.1577 50.7127 62.1577C50.7148 62.1577 50.7169 62.1577 50.7189 62.1577C50.7209 62.1577 50.7229 62.1577 50.7249 62.1577C50.7268 62.1577 50.7288 62.1577 50.7307 62.1577C50.7326 62.1577 50.7345 62.1577 50.7363 62.1577C50.7382 62.1577 50.74 62.1577 50.7417 62.1577C50.7435 62.1577 50.7453 62.1577 50.747 62.1577C50.7487 62.1577 50.7504 62.1577 50.7521 62.1577C50.7537 62.1577 50.7554 62.1577 50.757 62.1577C50.7586 62.1577 50.7601 62.1577 50.7617 62.1577C50.7632 62.1577 50.7647 62.1577 50.7662 62.1577C50.7676 62.1577 50.7691 62.1577 50.7705 62.1577C50.7719 62.1577 50.7733 62.1577 50.7746 62.1577C50.776 62.1577 50.7773 62.1577 50.7786 62.1577C50.7799 62.1577 50.7811 62.1577 50.7824 62.1577C50.7836 62.1577 50.7848 62.1577 50.7859 62.1577C50.7871 62.1577 50.7882 62.1577 50.7893 62.1577C50.7904 62.1577 50.7915 62.1577 50.7925 62.1577C50.7936 62.1577 50.7946 62.1577 50.7955 62.1577C50.7965 62.1577 50.7974 62.1577 50.7983 62.1577C50.7993 62.1577 50.8001 62.1577 50.801 62.1577C50.8018 62.1577 50.8026 62.1577 50.8034 62.1577C50.8042 62.1577 50.8049 62.1577 50.8056 62.1577C50.8064 62.1577 50.807 62.1577 50.8077 62.1577C50.8084 62.1577 50.809 62.1577 50.8096 62.1577C50.8101 62.1577 50.8107 62.1577 50.8112 62.1577C50.8117 62.1577 50.8122 62.1577 50.8127 62.1577C50.8131 62.1577 50.8136 62.1577 50.814 62.1577C50.8144 62.1577 50.8147 62.1577 50.815 62.1577C50.8154 62.1577 50.8157 62.1577 50.8159 62.1577C50.8162 62.1577 50.8164 62.1577 50.8166 62.1577C50.8168 62.1577 50.817 62.1577 50.8171 62.1577C50.8172 62.1577 50.8173 62.1577 50.8174 62.1577C50.8175 62.1577 50.8175 62.1577 50.8175 61.8212ZM34.6636 41.135C34.6636 43.6537 34.6636 53.6081 34.6636 60.8141H35.3364C35.3364 53.6081 35.3364 43.6537 35.3364 41.135H34.6636ZM60.2328 42.6443C57.8482 42.6443 56.122 43.6755 54.9122 45.2477C53.7131 46.8058 53.0268 48.8851 52.6677 50.9989L53.3311 51.1116C53.6811 49.0517 54.3405 47.0938 55.4454 45.658C56.5395 44.2364 58.0754 43.3172 60.2328 43.3172V42.6443ZM60.2328 42.9808C60.5104 42.7907 60.5103 42.7906 60.5102 42.7905C60.5102 42.7904 60.5101 42.7903 60.51 42.7902C60.5099 42.79 60.5098 42.7898 60.5096 42.7896C60.5093 42.7892 60.509 42.7887 60.5086 42.7881C60.5079 42.7871 60.507 42.7858 60.506 42.7843C60.5039 42.7814 60.5012 42.7777 60.498 42.7732C60.4914 42.7642 60.4825 42.7523 60.4711 42.7376C60.4484 42.7083 60.4158 42.6682 60.3729 42.6202C60.2872 42.5241 60.1601 42.3955 59.9882 42.2565C59.6439 41.9782 59.1201 41.6587 58.3929 41.4768L58.2297 42.1296C58.8481 42.2842 59.2851 42.5534 59.5652 42.7798C59.7054 42.8932 59.8064 42.9959 59.8707 43.068C59.9028 43.104 59.9257 43.1323 59.9397 43.1503C59.9467 43.1593 59.9514 43.1658 59.954 43.1693C59.9553 43.171 59.956 43.1721 59.9562 43.1723C59.9563 43.1725 59.9563 43.1724 59.9561 43.1722C59.956 43.172 59.9559 43.1719 59.9557 43.1716C59.9556 43.1715 59.9556 43.1714 59.9555 43.1713C59.9554 43.1712 59.9553 43.1711 59.9553 43.171C59.9552 43.1709 59.9552 43.1708 60.2328 42.9808ZM58.6467 41.829C58.6577 41.6853 58.6626 41.5238 58.664 41.3671L57.9912 41.3608C57.9898 41.5098 57.9852 41.6548 57.9758 41.7775L58.6467 41.829ZM55.4205 41.9649C55.7955 41.8899 56.3299 41.8871 56.8703 41.9284C57.4063 41.9694 57.9158 42.0512 58.2297 42.1296L58.3929 41.4768C58.0338 41.3871 57.4855 41.3006 56.9216 41.2575C56.362 41.2147 55.7545 41.2119 55.2885 41.3051L55.4205 41.9649ZM62.2514 52.2328C62.2514 53.8562 61.8668 55.3095 61.2626 56.3454C60.6535 57.3896 59.8614 57.9522 59.0552 57.9522V58.6251C60.2001 58.6251 61.1743 57.8321 61.8438 56.6844C62.518 55.5286 62.9243 53.9539 62.9243 52.2328H62.2514ZM59.0552 57.9522C58.2491 57.9522 57.457 57.3896 56.8479 56.3454C56.2436 55.3095 55.8591 53.8562 55.8591 52.2328H55.1862C55.1862 53.9539 55.5925 55.5286 56.2667 56.6844C56.9362 57.8321 57.9104 58.6251 59.0552 58.6251V57.9522ZM55.8591 52.2328C55.8591 50.6094 56.2436 49.1561 56.8479 48.1202C57.457 47.076 58.2491 46.5133 59.0552 46.5133V45.8405C57.9104 45.8405 56.9362 46.6335 56.2667 47.7811C55.5925 48.937 55.1862 50.5116 55.1862 52.2328H55.8591ZM59.0552 46.5133C59.8614 46.5133 60.6535 47.076 61.2626 48.1202C61.8668 49.1561 62.2514 50.6094 62.2514 52.2328H62.9243C62.9243 50.5116 62.518 48.937 61.8438 47.7811C61.1743 46.6335 60.2001 45.8405 59.0552 45.8405V46.5133ZM50.8175 61.8212C50.6839 62.13 50.6839 62.13 50.684 62.1301C50.684 62.1301 50.6841 62.1301 50.6842 62.1301C50.6843 62.1302 50.6845 62.1303 50.6847 62.1304C50.6852 62.1306 50.6858 62.1308 50.6866 62.1312C50.6882 62.1318 50.6904 62.1328 50.6933 62.1341C50.6992 62.1366 50.7077 62.1402 50.7187 62.1448C50.7408 62.1542 50.773 62.1677 50.8145 62.1848C50.8974 62.2189 51.0174 62.2674 51.167 62.3254C51.4661 62.4411 51.8847 62.595 52.3634 62.7476C53.3101 63.0494 54.5318 63.3593 55.5308 63.3351L55.5145 62.6624C54.6348 62.6838 53.504 62.4049 52.5677 62.1065C52.105 61.959 51.6996 61.81 51.41 61.6979C51.2653 61.6419 51.1498 61.5952 51.0708 61.5626C51.0313 61.5464 51.001 61.5336 50.9807 61.5251C50.9706 61.5208 50.963 61.5176 50.958 61.5154C50.9555 61.5144 50.9537 61.5136 50.9526 61.5131C50.952 61.5128 50.9516 61.5127 50.9513 61.5126C50.9512 61.5125 50.9511 61.5125 50.9511 61.5125C50.9511 61.5124 50.9511 61.5125 50.9511 61.5124C50.9511 61.5125 50.9511 61.5125 50.8175 61.8212ZM55.5308 63.3351C57.2754 63.2928 58.383 62.9827 59.8958 62.1129L59.5604 61.5296C58.1448 62.3434 57.1469 62.6229 55.5145 62.6624L55.5308 63.3351ZM57.6038 39.9987C57.8536 40.422 57.9956 40.888 57.9912 41.3608L58.664 41.3671C58.6698 40.7539 58.4854 40.1688 58.1833 39.6568L57.6038 39.9987ZM36.0076 61.4848C35.6357 61.4848 35.3364 61.1856 35.3364 60.8141H34.6636C34.6636 61.5576 35.2645 62.1577 36.0076 62.1577V61.4848ZM35.0467 39.8575C34.7911 40.2403 34.6636 40.6795 34.6636 41.135H35.3364C35.3364 40.8076 35.4272 40.4994 35.6063 40.2311L35.0467 39.8575Z" fill="white"/>
<path d="M48.7939 31.2055C48.2893 31.3737 47.0931 33.0156 48.3214 32.3748C51.4495 30.7427 53.4854 34.7084 55.6216 31.5577C56.5707 30.1578 52.1409 29.439 51.6537 29.8597" stroke="#333333" stroke-width="0.672874"/>
<path d="M77.1085 46.738C75.9399 45.7961 69.1992 47.5669 69.2023 46.7091C69.2078 45.1952 78.8122 40.8565 78.8122 40.8565C78.8122 40.8565 66.6864 44.6813 66.6741 48.0457C66.6668 50.0643 71.8895 47.8965 73.7368 48.7443C74.9309 49.2923 64.4634 54.5982 64.4634 54.5982C64.4634 54.5982 63.2742 57.79 63.4424 57.7906C64.6199 57.7949 71.3652 53.2776 71.3652 53.2776C71.3652 53.2776 66.4716 57.4652 62.4264 59.6373C61.727 60.0128 61.5785 61.4847 61.5785 61.4847C61.5785 61.4847 65.8749 59.1758 68.4902 57.4726C71.0116 55.8305 75.2379 52.2824 75.2379 52.2824C75.2379 52.2824 72.3132 54.5067 70.3467 55.7972C68.5476 56.9778 65.6262 58.6397 65.6262 58.6397C65.6262 58.6397 80.4631 49.4417 77.1085 46.738Z" fill="white"/>
<path d="M64.464 54.43L70.1969 50.75L64.4665 53.7571L64.464 54.43Z" fill="white"/>
<path d="M61.6113 43.2987C61.6113 43.2987 63.069 44.6789 63.608 45.6723C64.5295 47.3705 64.9102 50.3946 64.9102 50.3946C64.9102 50.3946 65.0952 47.2629 64.1142 45.5087C63.4523 44.325 61.6113 43.2987 61.6113 43.2987Z" fill="white"/>
<path d="M64.1282 43.9948C64.1282 43.9948 64.65 44.6588 64.9584 45.1801C65.4134 45.9491 65.611 47.373 65.611 47.373C65.611 47.373 65.7136 45.939 65.2948 45.1832C64.9796 44.6143 64.1282 43.9948 64.1282 43.9948Z" fill="white"/>
<path d="M39.2385 44.3427C39.4859 44.2972 39.7007 44.2483 39.883 44.1963C40.0718 44.1442 40.2281 44.0823 40.3518 44.0107C40.4755 43.9326 40.5666 43.8414 40.6252 43.7373C40.6903 43.6266 40.7229 43.4899 40.7229 43.3271C40.7229 43.1904 40.6708 43.0667 40.5666 42.956C40.4624 42.8453 40.3257 42.7509 40.1564 42.6728C39.9872 42.5947 39.7919 42.5361 39.5705 42.497C39.3492 42.458 39.118 42.4384 38.8771 42.4384C38.8186 42.4384 38.76 42.4384 38.7014 42.4384C38.6428 42.4384 38.5809 42.4417 38.5158 42.4482C38.5549 42.6631 38.5809 42.9072 38.5939 43.1806C38.6135 43.4541 38.6232 43.7373 38.6232 44.0302C38.6232 44.2776 38.6167 44.5283 38.6037 44.7822C38.5972 45.0361 38.5874 45.277 38.5744 45.5049C38.5614 45.7262 38.5419 45.9313 38.5158 46.1201C38.4963 46.3024 38.4768 46.4521 38.4572 46.5693C38.4377 46.6605 38.3986 46.7288 38.34 46.7744C38.288 46.82 38.2261 46.8427 38.1545 46.8427C38.0829 46.8427 38.0145 46.82 37.9494 46.7744C37.8908 46.7288 37.8615 46.6605 37.8615 46.5693C37.8615 46.5368 37.8648 46.5107 37.8713 46.4912C37.8908 46.3284 37.9104 46.1494 37.9299 45.9541C37.9559 45.7522 37.9755 45.5407 37.9885 45.3193C38.0015 45.098 38.0113 44.8733 38.0178 44.6455C38.0308 44.4111 38.0373 44.18 38.0373 43.9521C38.0373 43.581 38.0243 43.2392 37.9982 42.9267C37.9722 42.6077 37.9234 42.3636 37.8518 42.1943C37.8127 42.1097 37.7932 42.0315 37.7932 41.9599C37.7932 41.8688 37.816 41.7972 37.8615 41.7451C37.9071 41.6865 37.9657 41.6572 38.0373 41.6572C38.161 41.6572 38.2684 41.7321 38.3596 41.8818C38.4312 41.8753 38.4995 41.872 38.5646 41.872C38.6298 41.872 38.6949 41.872 38.76 41.872C39.0855 41.872 39.4012 41.9013 39.7072 41.9599C40.0197 42.0185 40.2932 42.1064 40.5275 42.2236C40.7684 42.3408 40.9605 42.4905 41.1037 42.6728C41.2535 42.8551 41.3283 43.0732 41.3283 43.3271C41.3283 43.7763 41.1525 44.1279 40.801 44.3818C40.4559 44.6357 39.9676 44.805 39.3361 44.8896C39.3231 44.8896 39.3133 44.8929 39.3068 44.8994C39.3068 44.8994 39.3003 44.8994 39.2873 44.8994C39.2027 44.8994 39.1408 44.8701 39.1018 44.8115C39.0627 44.7464 39.0432 44.6748 39.0432 44.5966C39.0432 44.5446 39.0594 44.4925 39.092 44.4404C39.1245 44.3883 39.1734 44.3558 39.2385 44.3427ZM42.8127 42.1748C42.7801 42.4287 42.7574 42.7412 42.7443 43.1123C42.7313 43.4769 42.7248 43.8545 42.7248 44.2451C42.7248 44.6487 42.7378 45.0459 42.7639 45.4365C42.7964 45.8271 42.8127 46.1689 42.8127 46.4619C42.8127 46.5856 42.7834 46.6832 42.7248 46.7549C42.6662 46.82 42.5946 46.8525 42.51 46.8525C42.4579 46.8525 42.4058 46.8297 42.3537 46.7841C42.3081 46.7321 42.2788 46.6539 42.2658 46.5498C42.2202 46.1787 42.1877 45.762 42.1682 45.2998C42.1551 44.8375 42.1486 44.372 42.1486 43.9033C42.1486 43.5582 42.1551 43.2295 42.1682 42.917C42.1812 42.598 42.2007 42.305 42.2268 42.0381C42.2398 41.9404 42.2691 41.8688 42.3146 41.8232C42.3602 41.7776 42.4188 41.7549 42.4904 41.7549C42.5751 41.7549 42.6499 41.7874 42.715 41.8525C42.7801 41.9176 42.8127 42.0055 42.8127 42.1162V42.1748ZM44.883 42.2334C44.8765 42.2138 44.8732 42.1845 44.8732 42.1455C44.8732 42.0348 44.9025 41.9502 44.9611 41.8916C45.0262 41.8265 45.0946 41.7939 45.1662 41.7939C45.2248 41.7939 45.2834 41.82 45.342 41.872C45.4006 41.9176 45.4364 41.986 45.4494 42.0771C45.5015 42.3961 45.534 42.7314 45.5471 43.083C45.5666 43.4345 45.5764 43.7926 45.5764 44.1572C45.5764 44.3134 45.5731 44.4957 45.5666 44.7041C45.5601 44.9059 45.5471 45.1142 45.5275 45.3291C45.508 45.5374 45.482 45.7457 45.4494 45.9541C45.4234 46.1559 45.3908 46.3382 45.3518 46.5009C45.3127 46.6572 45.2639 46.7841 45.2053 46.8818C45.1467 46.9795 45.0816 47.0283 45.01 47.0283C44.9383 47.0283 44.8732 47.0022 44.8146 46.9502C44.7626 46.8981 44.7365 46.8167 44.7365 46.706C44.7365 46.6539 44.7398 46.6149 44.7463 46.5888C44.8179 46.2568 44.8732 45.9345 44.9123 45.622C44.9514 45.3095 44.9807 44.997 45.0002 44.6845C44.6096 44.7627 44.2027 44.8017 43.7795 44.8017C43.5516 44.8017 43.3758 44.7887 43.2521 44.7627C43.1285 44.7366 43.0666 44.6487 43.0666 44.499C43.0666 44.4274 43.0992 44.3688 43.1643 44.3232C43.2294 44.2711 43.3205 44.2451 43.4377 44.2451C43.4898 44.2516 43.5419 44.2549 43.5939 44.2549C43.646 44.2549 43.6981 44.2549 43.7502 44.2549C43.9585 44.2549 44.1701 44.2451 44.385 44.2256C44.5998 44.1995 44.8114 44.1605 45.0197 44.1084C45.0197 43.7568 45.0067 43.4248 44.9807 43.1123C44.9546 42.7998 44.9221 42.5068 44.883 42.2334Z" fill="url(#paint1_linear)"/>
<defs>
<filter id="filter0_d" x="0" y="0" width="104" height="104" filterUnits="userSpaceOnUse" color-interpolation-filters="sRGB">
<feFlood flood-opacity="0" result="BackgroundImageFix"/>
<feColorMatrix in="SourceAlpha" type="matrix" values="0 0 0 0 0 0 0 0 0 0 0 0 0 0 0 0 0 0 127 0"/>
<feOffset dy="7"/>
<feGaussianBlur stdDeviation="11"/>
<feColorMatrix type="matrix" values="0 0 0 0 0 0 0 0 0 0 0 0 0 0 0 0 0 0 0.12 0"/>
<feBlend mode="normal" in2="BackgroundImageFix" result="effect1_dropShadow"/>
<feBlend mode="normal" in="SourceGraphic" in2="effect1_dropShadow" result="shape"/>
</filter>
<linearGradient id="paint0_linear" x1="82" y1="75" x2="29.2451" y2="9.19201" gradientUnits="userSpaceOnUse">
<stop offset="0.135417" stop-color="#F23D3D"/>
<stop offset="1" stop-color="#D95E32"/>
</linearGradient>
<linearGradient id="paint1_linear" x1="46.4388" y1="46.1955" x2="40.4253" y2="36.6482" gradientUnits="userSpaceOnUse">
<stop offset="0.135417" stop-color="#F23D3D"/>
<stop offset="1" stop-color="#D95E32"/>
</linearGradient>
</defs>
</svg>
