<svg width="1024" height="1024" viewBox="0 0 45 38" fill="none" xmlns="http://www.w3.org/2000/svg">
<path fill-rule="evenodd" clip-rule="evenodd" d="M1.3265 14.0443C1.10918 14.3699 1 14.7436 1 15.135C1 17.6537 1 27.6081 1 34.8141C1 35.3716 1.45013 35.8212 2.00755 35.8212C8.1702 35.8212 16.8175 35.8212 16.8175 35.8212C16.4207 35.633 16.1397 35.4848 16.1397 35.4848C13.7846 33.8026 12.3272 31.1029 11.9342 28.5878C11.0931 23.2048 12.802 19.8405 15.8033 17.3172C17.4039 15.9714 19.5041 15.635 21.3545 15.635C22.1955 15.4668 23.6384 15.635 24.3113 15.8032C24.3215 15.6701 24.3262 15.5168 24.3276 15.3639C24.3327 14.821 24.1695 14.2954 23.8936 13.8277C21.0326 8.97825 16.1363 1 13.0957 1C10.1999 1 2.95104 11.6106 1.3265 14.0443ZM13.069 7.80884C14.2487 7.80884 15.2051 6.85248 15.2051 5.67274C15.2051 4.493 14.2487 3.53663 13.069 3.53663C11.8893 3.53663 10.9329 4.493 10.9329 5.67274C10.9329 6.85248 11.8893 7.80884 13.069 7.80884Z" fill="white"/>
<path d="M28.5878 26.2328C28.5878 29.5773 27.0062 32.2886 25.0552 32.2886C23.1043 32.2886 21.5227 29.5773 21.5227 26.2328C21.5227 22.8882 23.1043 20.1769 25.0552 20.1769C27.0062 20.1769 28.5878 22.8882 28.5878 26.2328Z" fill="white"/>
<path d="M15.8033 17.3172L15.5868 17.0597L15.8033 17.3172ZM11.9342 28.5878L11.6018 28.6398L11.9342 28.5878ZM17.3172 19.8405L17.6057 20.0136L17.3172 19.8405ZM16.1397 25.5599L15.8038 25.5792C15.8143 25.761 15.9674 25.9014 16.1494 25.8962C16.3313 25.891 16.4761 25.7419 16.4761 25.5599L16.1397 25.5599ZM17.4854 20.1769L17.7823 20.3352L17.4854 20.1769ZM18.9994 25.0553L18.6677 24.9989L18.9994 25.0553ZM21.4482 34.0357C21.577 34.1697 21.7899 34.174 21.9239 34.0452C22.0579 33.9165 22.0622 33.7035 21.9335 33.5695L21.4482 34.0357ZM16.1397 35.4848L15.9441 35.7586L15.9626 35.7718L15.9827 35.7824L16.1397 35.4848ZM26.2328 16.9808V17.3172H26.8708L26.5104 16.7907L26.2328 16.9808ZM21.5227 36.9988L21.5308 37.3351L21.5227 36.9988ZM25.8958 36.1129C26.0569 36.0203 26.1124 35.8146 26.0198 35.6535C25.9272 35.4925 25.7215 35.437 25.5604 35.5296L25.8958 36.1129ZM23.8936 13.8277L24.1833 13.6568L23.8936 13.8277ZM24.3276 15.3639L23.9912 15.3608L24.3276 15.3639ZM1.3265 14.0443L1.60632 14.2311L1.3265 14.0443ZM13.0957 0.663563C12.6405 0.663563 12.1457 0.867992 11.6487 1.17426C11.1442 1.48512 10.5992 1.92515 10.0346 2.44939C8.90484 3.49848 7.66467 4.91544 6.47216 6.3987C4.08547 9.3673 1.86059 12.6382 1.04668 13.8575L1.60632 14.2311C2.41695 13.0167 4.62875 9.76543 6.99657 6.82031C8.18131 5.34671 9.39785 3.95892 10.4925 2.94247C11.0401 2.43394 11.5491 2.02601 12.0017 1.7471C12.4618 1.46359 12.827 1.33644 13.0957 1.33644V0.663563ZM14.8687 5.67274C14.8687 6.66667 14.0629 7.47241 13.069 7.47241V8.14528C14.4346 8.14528 15.5416 7.03829 15.5416 5.67274H14.8687ZM13.069 7.47241C12.0751 7.47241 11.2693 6.66667 11.2693 5.67274H10.5965C10.5965 7.03828 11.7035 8.14528 13.069 8.14528V7.47241ZM11.2693 5.67274C11.2693 4.6788 12.0751 3.87307 13.069 3.87307V3.20019C11.7035 3.20019 10.5965 4.30719 10.5965 5.67274H11.2693ZM13.069 3.87307C14.0629 3.87307 14.8687 4.67881 14.8687 5.67274H15.5416C15.5416 4.30719 14.4346 3.20019 13.069 3.20019V3.87307ZM15.5868 17.0597C14.053 18.3492 12.8356 19.8658 12.1135 21.7603C11.3915 23.6547 11.1741 25.9024 11.6018 28.6398L12.2666 28.5359C11.8533 25.8903 12.0698 23.7643 12.7423 21.9999C13.4147 20.2357 14.5523 18.8085 16.0198 17.5747L15.5868 17.0597ZM21.3545 15.2986C19.474 15.2986 17.2773 15.6384 15.5868 17.0597L16.0198 17.5747C17.5306 16.3045 19.5341 15.9714 21.3545 15.9714V15.2986ZM21.1928 15.34C19.9011 16.0477 19.224 16.4916 18.6845 17.0981C18.1593 17.6884 17.7694 18.4328 17.0287 19.6674L17.6057 20.0136C18.3789 18.7249 18.7174 18.0735 19.1872 17.5453C19.6426 17.0334 20.2272 16.6362 21.5161 15.9301L21.1928 15.34ZM17.0287 19.6674C16.3042 20.8749 16.0028 22.3618 15.8784 23.5236C15.8157 24.1086 15.797 24.62 15.7939 24.9857C15.7924 25.1687 15.7948 25.3156 15.7976 25.4174C15.799 25.4683 15.8005 25.508 15.8017 25.5354C15.8023 25.549 15.8028 25.5596 15.8032 25.567C15.8034 25.5707 15.8035 25.5735 15.8036 25.5756C15.8037 25.5766 15.8037 25.5774 15.8038 25.578C15.8038 25.5783 15.8038 25.5786 15.8038 25.5788C15.8038 25.5789 15.8038 25.579 15.8038 25.5791C15.8038 25.5792 15.8038 25.5792 16.1397 25.5599C16.4756 25.5406 16.4756 25.5406 16.4756 25.5407C16.4756 25.5407 16.4756 25.5407 16.4756 25.5407C16.4756 25.5407 16.4756 25.5406 16.4756 25.5405C16.4756 25.5403 16.4755 25.5399 16.4755 25.5392C16.4754 25.538 16.4753 25.5359 16.4752 25.533C16.4749 25.5273 16.4745 25.5183 16.4739 25.5063C16.4729 25.4823 16.4715 25.4461 16.4702 25.3988C16.4676 25.3043 16.4653 25.1655 16.4668 24.9913C16.4697 24.6426 16.4876 24.1538 16.5474 23.5953C16.668 22.4703 16.9553 21.0975 17.6057 20.0136L17.0287 19.6674ZM16.1397 25.5599C16.4761 25.5599 16.4761 25.56 16.4761 25.56C16.4761 25.56 16.4761 25.5601 16.4761 25.5601C16.4761 25.5601 16.4761 25.5601 16.4761 25.56C16.4761 25.5599 16.4761 25.5596 16.4761 25.5591C16.4761 25.5581 16.4762 25.5565 16.4762 25.5541C16.4762 25.5495 16.4763 25.5422 16.4764 25.5323C16.4767 25.5125 16.4773 25.4824 16.4786 25.4427C16.4811 25.3634 16.4862 25.246 16.4964 25.0966C16.5168 24.7977 16.5578 24.372 16.64 23.8688C16.8047 22.8597 17.1328 21.5531 17.7823 20.3352L17.1886 20.0186C16.4924 21.324 16.1476 22.7089 15.9759 23.7604C15.8898 24.2876 15.8467 24.7345 15.8251 25.0507C15.8143 25.2089 15.8088 25.3346 15.8061 25.4215C15.8047 25.4649 15.804 25.4987 15.8036 25.522C15.8035 25.5337 15.8034 25.5428 15.8033 25.5491C15.8033 25.5523 15.8033 25.5548 15.8033 25.5566C15.8033 25.5575 15.8033 25.5582 15.8033 25.5588C15.8033 25.559 15.8033 25.5593 15.8033 25.5595C15.8033 25.5596 15.8033 25.5597 15.8033 25.5597C15.8033 25.5598 15.8033 25.5599 16.1397 25.5599ZM17.7823 20.3352C18.8253 18.3796 19.8403 17.3307 21.5695 15.8938L21.1395 15.3763C19.3699 16.8467 18.2863 17.9604 17.1886 20.0186L17.7823 20.3352ZM18.6677 24.9989C18.147 28.0638 18.8915 31.374 21.4482 34.0357L21.9335 33.5695C19.5384 31.0761 18.8426 27.9868 19.3311 25.1116L18.6677 24.9989ZM11.6018 28.6398C12.0073 31.2345 13.5079 34.0184 15.9441 35.7586L16.3352 35.211C14.0614 33.5868 12.6472 30.9713 12.2666 28.5359L11.6018 28.6398ZM13.0957 1.33644C13.724 1.33644 14.5187 1.75916 15.4404 2.57438C16.3474 3.37656 17.3183 4.50513 18.2934 5.79791C20.2425 8.38185 22.1733 11.5739 23.6038 13.9987L24.1833 13.6568C22.7528 11.232 20.805 8.01027 18.8306 5.39271C17.844 4.08474 16.8419 2.91566 15.8862 2.07037C14.9453 1.23812 13.9877 0.663563 13.0957 0.663563V1.33644ZM16.1397 35.4848C15.9827 35.7824 15.9827 35.7824 15.9827 35.7824C15.9828 35.7824 15.9828 35.7824 15.9828 35.7824C15.9828 35.7824 15.9828 35.7824 15.9828 35.7824C15.9829 35.7825 15.983 35.7825 15.9831 35.7826C15.9833 35.7826 15.9835 35.7828 15.9838 35.7829C15.9845 35.7833 15.9854 35.7838 15.9865 35.7844C15.9889 35.7856 15.9923 35.7874 15.9967 35.7897C16.0056 35.7943 16.0185 35.8011 16.0352 35.8097C16.0686 35.827 16.1171 35.8519 16.178 35.8827C16.2999 35.9443 16.4719 36.0297 16.6733 36.1252L16.9617 35.5173C16.7663 35.4246 16.5995 35.3418 16.4816 35.2822C16.4227 35.2524 16.3761 35.2285 16.3444 35.2121C16.3286 35.2039 16.3164 35.1976 16.3084 35.1934C16.3044 35.1913 16.3013 35.1897 16.2994 35.1886C16.2984 35.1881 16.2977 35.1877 16.2972 35.1875C16.297 35.1874 16.2968 35.1873 16.2967 35.1873C16.2967 35.1872 16.2967 35.1872 16.2967 35.1872C16.2966 35.1872 16.2966 35.1872 16.2967 35.1872C16.2967 35.1872 16.2967 35.1872 16.2967 35.1872C16.2967 35.1872 16.2967 35.1872 16.1397 35.4848ZM16.8175 35.8212C16.8175 35.4848 16.8175 35.4848 16.8174 35.4848C16.8173 35.4848 16.8172 35.4848 16.8171 35.4848C16.817 35.4848 16.8168 35.4848 16.8166 35.4848C16.8164 35.4848 16.8162 35.4848 16.8159 35.4848C16.8157 35.4848 16.8154 35.4848 16.815 35.4848C16.8147 35.4848 16.8144 35.4848 16.814 35.4848C16.8136 35.4848 16.8131 35.4848 16.8127 35.4848C16.8122 35.4848 16.8117 35.4848 16.8112 35.4848C16.8107 35.4848 16.8101 35.4848 16.8096 35.4848C16.809 35.4848 16.8084 35.4848 16.8077 35.4848C16.807 35.4848 16.8064 35.4848 16.8056 35.4848C16.8049 35.4848 16.8042 35.4848 16.8034 35.4848C16.8026 35.4848 16.8018 35.4848 16.801 35.4848C16.8001 35.4848 16.7993 35.4848 16.7983 35.4848C16.7974 35.4848 16.7965 35.4848 16.7955 35.4848C16.7946 35.4848 16.7936 35.4848 16.7925 35.4848C16.7915 35.4848 16.7904 35.4848 16.7893 35.4848C16.7882 35.4848 16.7871 35.4848 16.7859 35.4848C16.7848 35.4848 16.7836 35.4848 16.7824 35.4848C16.7811 35.4848 16.7799 35.4848 16.7786 35.4848C16.7773 35.4848 16.776 35.4848 16.7746 35.4848C16.7733 35.4848 16.7719 35.4848 16.7705 35.4848C16.7691 35.4848 16.7676 35.4848 16.7662 35.4848C16.7647 35.4848 16.7632 35.4848 16.7617 35.4848C16.7601 35.4848 16.7586 35.4848 16.757 35.4848C16.7554 35.4848 16.7537 35.4848 16.7521 35.4848C16.7504 35.4848 16.7487 35.4848 16.747 35.4848C16.7453 35.4848 16.7435 35.4848 16.7417 35.4848C16.74 35.4848 16.7382 35.4848 16.7363 35.4848C16.7345 35.4848 16.7326 35.4848 16.7307 35.4848C16.7288 35.4848 16.7268 35.4848 16.7249 35.4848C16.7229 35.4848 16.7209 35.4848 16.7189 35.4848C16.7169 35.4848 16.7148 35.4848 16.7127 35.4848C16.7106 35.4848 16.7085 35.4848 16.7064 35.4848C16.7042 35.4848 16.702 35.4848 16.6998 35.4848C16.6976 35.4848 16.6954 35.4848 16.6931 35.4848C16.6909 35.4848 16.6886 35.4848 16.6862 35.4848C16.6839 35.4848 16.6816 35.4848 16.6792 35.4848C16.6768 35.4848 16.6744 35.4848 16.6719 35.4848C16.6695 35.4848 16.667 35.4848 16.6645 35.4848C16.662 35.4848 16.6594 35.4848 16.6569 35.4848C16.6543 35.4848 16.6517 35.4848 16.6491 35.4848C16.6465 35.4848 16.6438 35.4848 16.6411 35.4848C16.6384 35.4848 16.6357 35.4848 16.633 35.4848C16.6302 35.4848 16.6275 35.4848 16.6247 35.4848C16.6219 35.4848 16.619 35.4848 16.6162 35.4848C16.6133 35.4848 16.6104 35.4848 16.6075 35.4848C16.6046 35.4848 16.6017 35.4848 16.5987 35.4848C16.5957 35.4848 16.5927 35.4848 16.5897 35.4848C16.5866 35.4848 16.5836 35.4848 16.5805 35.4848C16.5774 35.4848 16.5743 35.4848 16.5711 35.4848C16.568 35.4848 16.5648 35.4848 16.5616 35.4848C16.5584 35.4848 16.5551 35.4848 16.5519 35.4848C16.5486 35.4848 16.5453 35.4848 16.542 35.4848C16.5387 35.4848 16.5353 35.4848 16.532 35.4848C16.5286 35.4848 16.5252 35.4848 16.5217 35.4848C16.5183 35.4848 16.5148 35.4848 16.5113 35.4848C16.5079 35.4848 16.5043 35.4848 16.5008 35.4848C16.4972 35.4848 16.4937 35.4848 16.4901 35.4848C16.4865 35.4848 16.4828 35.4848 16.4792 35.4848C16.4755 35.4848 16.4718 35.4848 16.4681 35.4848C16.4644 35.4848 16.4606 35.4848 16.4569 35.4848C16.4531 35.4848 16.4493 35.4848 16.4455 35.4848C16.4416 35.4848 16.4378 35.4848 16.4339 35.4848C16.43 35.4848 16.4261 35.4848 16.4222 35.4848C16.4182 35.4848 16.4143 35.4848 16.4103 35.4848C16.4063 35.4848 16.4023 35.4848 16.3982 35.4848C16.3942 35.4848 16.3901 35.4848 16.386 35.4848C16.3819 35.4848 16.3778 35.4848 16.3736 35.4848C16.3694 35.4848 16.3653 35.4848 16.3611 35.4848C16.3568 35.4848 16.3526 35.4848 16.3483 35.4848C16.3441 35.4848 16.3398 35.4848 16.3355 35.4848C16.3311 35.4848 16.3268 35.4848 16.3224 35.4848C16.318 35.4848 16.3136 35.4848 16.3092 35.4848C16.3048 35.4848 16.3003 35.4848 16.2958 35.4848C16.2914 35.4848 16.2869 35.4848 16.2823 35.4848C16.2778 35.4848 16.2732 35.4848 16.2686 35.4848C16.2641 35.4848 16.2594 35.4848 16.2548 35.4848C16.2502 35.4848 16.2455 35.4848 16.2408 35.4848C16.2361 35.4848 16.2314 35.4848 16.2266 35.4848C16.2219 35.4848 16.2171 35.4848 16.2123 35.4848C16.2075 35.4848 16.2027 35.4848 16.1978 35.4848C16.193 35.4848 16.1881 35.4848 16.1832 35.4848C16.1783 35.4848 16.1734 35.4848 16.1684 35.4848C16.1634 35.4848 16.1585 35.4848 16.1535 35.4848C16.1484 35.4848 16.1434 35.4848 16.1384 35.4848C16.1333 35.4848 16.1282 35.4848 16.1231 35.4848C16.118 35.4848 16.1128 35.4848 16.1077 35.4848C16.1025 35.4848 16.0973 35.4848 16.0921 35.4848C16.0869 35.4848 16.0817 35.4848 16.0764 35.4848C16.0711 35.4848 16.0658 35.4848 16.0605 35.4848C16.0552 35.4848 16.0499 35.4848 16.0445 35.4848C16.0391 35.4848 16.0337 35.4848 16.0283 35.4848C16.0229 35.4848 16.0175 35.4848 16.012 35.4848C16.0065 35.4848 16.001 35.4848 15.9955 35.4848C15.99 35.4848 15.9844 35.4848 15.9789 35.4848C15.9733 35.4848 15.9677 35.4848 15.9621 35.4848C15.9565 35.4848 15.9508 35.4848 15.9452 35.4848C15.9395 35.4848 15.9338 35.4848 15.9281 35.4848C15.9224 35.4848 15.9166 35.4848 15.9108 35.4848C15.9051 35.4848 15.8993 35.4848 15.8935 35.4848C15.8877 35.4848 15.8818 35.4848 15.8759 35.4848C15.8701 35.4848 15.8642 35.4848 15.8583 35.4848C15.8524 35.4848 15.8464 35.4848 15.8405 35.4848C15.8345 35.4848 15.8285 35.4848 15.8225 35.4848C15.8165 35.4848 15.8104 35.4848 15.8044 35.4848C15.7983 35.4848 15.7922 35.4848 15.7861 35.4848C15.78 35.4848 15.7739 35.4848 15.7677 35.4848C15.7616 35.4848 15.7554 35.4848 15.7492 35.4848C15.743 35.4848 15.7367 35.4848 15.7305 35.4848C15.7242 35.4848 15.7179 35.4848 15.7116 35.4848C15.7053 35.4848 15.699 35.4848 15.6927 35.4848C15.6863 35.4848 15.68 35.4848 15.6736 35.4848C15.6672 35.4848 15.6607 35.4848 15.6543 35.4848C15.6479 35.4848 15.6414 35.4848 15.6349 35.4848C15.6284 35.4848 15.6219 35.4848 15.6154 35.4848C15.6088 35.4848 15.6023 35.4848 15.5957 35.4848C15.5891 35.4848 15.5825 35.4848 15.5759 35.4848C15.5692 35.4848 15.5626 35.4848 15.5559 35.4848C15.5492 35.4848 15.5425 35.4848 15.5358 35.4848C15.5291 35.4848 15.5223 35.4848 15.5156 35.4848C15.5088 35.4848 15.502 35.4848 15.4952 35.4848C15.4884 35.4848 15.4815 35.4848 15.4747 35.4848C15.4678 35.4848 15.4609 35.4848 15.454 35.4848C15.4471 35.4848 15.4402 35.4848 15.4332 35.4848C15.4263 35.4848 15.4193 35.4848 15.4123 35.4848C15.4053 35.4848 15.3983 35.4848 15.3913 35.4848C15.3842 35.4848 15.3772 35.4848 15.3701 35.4848C15.363 35.4848 15.3559 35.4848 15.3488 35.4848C15.3416 35.4848 15.3345 35.4848 15.3273 35.4848C15.3201 35.4848 15.3129 35.4848 15.3057 35.4848C15.2985 35.4848 15.2912 35.4848 15.284 35.4848C15.2767 35.4848 15.2694 35.4848 15.2621 35.4848C15.2548 35.4848 15.2475 35.4848 15.2401 35.4848C15.2328 35.4848 15.2254 35.4848 15.218 35.4848C15.2106 35.4848 15.2032 35.4848 15.1958 35.4848C15.1883 35.4848 15.1809 35.4848 15.1734 35.4848C15.1659 35.4848 15.1584 35.4848 15.1509 35.4848C15.1434 35.4848 15.1358 35.4848 15.1282 35.4848C15.1207 35.4848 15.1131 35.4848 15.1055 35.4848C15.0979 35.4848 15.0902 35.4848 15.0826 35.4848C15.0749 35.4848 15.0672 35.4848 15.0596 35.4848C15.0519 35.4848 15.0441 35.4848 15.0364 35.4848C15.0287 35.4848 15.0209 35.4848 15.0131 35.4848C15.0053 35.4848 14.9975 35.4848 14.9897 35.4848C14.9819 35.4848 14.9741 35.4848 14.9662 35.4848C14.9583 35.4848 14.9504 35.4848 14.9425 35.4848C14.9346 35.4848 14.9267 35.4848 14.9188 35.4848C14.9108 35.4848 14.9028 35.4848 14.8948 35.4848C14.8869 35.4848 14.8788 35.4848 14.8708 35.4848C14.8628 35.4848 14.8547 35.4848 14.8467 35.4848C14.8386 35.4848 14.8305 35.4848 14.8224 35.4848C14.8143 35.4848 14.8062 35.4848 14.798 35.4848C14.7898 35.4848 14.7817 35.4848 14.7735 35.4848C14.7653 35.4848 14.7571 35.4848 14.7488 35.4848C14.7406 35.4848 14.7324 35.4848 14.7241 35.4848C14.7158 35.4848 14.7075 35.4848 14.6992 35.4848C14.6909 35.4848 14.6826 35.4848 14.6742 35.4848C14.6658 35.4848 14.6575 35.4848 14.6491 35.4848C14.6407 35.4848 14.6323 35.4848 14.6238 35.4848C14.6154 35.4848 14.607 35.4848 14.5985 35.4848C14.59 35.4848 14.5815 35.4848 14.573 35.4848C14.5645 35.4848 14.556 35.4848 14.5474 35.4848C14.5389 35.4848 14.5303 35.4848 14.5217 35.4848C14.5131 35.4848 14.5045 35.4848 14.4959 35.4848C14.4873 35.4848 14.4786 35.4848 14.4699 35.4848C14.4613 35.4848 14.4526 35.4848 14.4439 35.4848C14.4352 35.4848 14.4265 35.4848 14.4177 35.4848C14.409 35.4848 14.4002 35.4848 14.3914 35.4848C14.3827 35.4848 14.3739 35.4848 14.365 35.4848C14.3562 35.4848 14.3474 35.4848 14.3385 35.4848C14.3297 35.4848 14.3208 35.4848 14.3119 35.4848C14.303 35.4848 14.2941 35.4848 14.2852 35.4848C14.2762 35.4848 14.2673 35.4848 14.2583 35.4848C14.2493 35.4848 14.2404 35.4848 14.2313 35.4848C14.2223 35.4848 14.2133 35.4848 14.2043 35.4848C14.1952 35.4848 14.1862 35.4848 14.1771 35.4848C14.168 35.4848 14.1589 35.4848 14.1498 35.4848C14.1407 35.4848 14.1316 35.4848 14.1224 35.4848C14.1132 35.4848 14.1041 35.4848 14.0949 35.4848C14.0857 35.4848 14.0765 35.4848 14.0673 35.4848C14.058 35.4848 14.0488 35.4848 14.0395 35.4848C14.0303 35.4848 14.021 35.4848 14.0117 35.4848C14.0024 35.4848 13.9931 35.4848 13.9838 35.4848C13.9744 35.4848 13.9651 35.4848 13.9557 35.4848C13.9464 35.4848 13.937 35.4848 13.9276 35.4848C13.9182 35.4848 13.9088 35.4848 13.8993 35.4848C13.8899 35.4848 13.8804 35.4848 13.871 35.4848C13.8615 35.4848 13.852 35.4848 13.8425 35.4848C13.833 35.4848 13.8235 35.4848 13.8139 35.4848C13.8044 35.4848 13.7948 35.4848 13.7852 35.4848C13.7757 35.4848 13.7661 35.4848 13.7565 35.4848C13.7469 35.4848 13.7372 35.4848 13.7276 35.4848C13.7179 35.4848 13.7083 35.4848 13.6986 35.4848C13.6889 35.4848 13.6792 35.4848 13.6695 35.4848C13.6598 35.4848 13.6501 35.4848 13.6403 35.4848C13.6306 35.4848 13.6208 35.4848 13.6111 35.4848C13.6013 35.4848 13.5915 35.4848 13.5817 35.4848C13.5719 35.4848 13.562 35.4848 13.5522 35.4848C13.5423 35.4848 13.5325 35.4848 13.5226 35.4848C13.5127 35.4848 13.5028 35.4848 13.4929 35.4848C13.483 35.4848 13.4731 35.4848 13.4631 35.4848C13.4532 35.4848 13.4432 35.4848 13.4333 35.4848C13.4233 35.4848 13.4133 35.4848 13.4033 35.4848C13.3933 35.4848 13.3833 35.4848 13.3732 35.4848C13.3632 35.4848 13.3531 35.4848 13.3431 35.4848C13.333 35.4848 13.3229 35.4848 13.3128 35.4848C13.3027 35.4848 13.2926 35.4848 13.2824 35.4848C13.2723 35.4848 13.2622 35.4848 13.252 35.4848C13.2418 35.4848 13.2316 35.4848 13.2215 35.4848C13.2113 35.4848 13.201 35.4848 13.1908 35.4848C13.1806 35.4848 13.1703 35.4848 13.1601 35.4848C13.1498 35.4848 13.1396 35.4848 13.1293 35.4848C13.119 35.4848 13.1087 35.4848 13.0983 35.4848C13.088 35.4848 13.0777 35.4848 13.0673 35.4848C13.057 35.4848 13.0466 35.4848 13.0362 35.4848C13.0259 35.4848 13.0155 35.4848 13.0051 35.4848C12.9946 35.4848 12.9842 35.4848 12.9738 35.4848C12.9633 35.4848 12.9529 35.4848 12.9424 35.4848C12.9319 35.4848 12.9215 35.4848 12.911 35.4848C12.9005 35.4848 12.8899 35.4848 12.8794 35.4848C12.8689 35.4848 12.8583 35.4848 12.8478 35.4848C12.8372 35.4848 12.8267 35.4848 12.8161 35.4848C12.8055 35.4848 12.7949 35.4848 12.7843 35.4848C12.7736 35.4848 12.763 35.4848 12.7524 35.4848C12.7417 35.4848 12.7311 35.4848 12.7204 35.4848C12.7097 35.4848 12.699 35.4848 12.6883 35.4848C12.6776 35.4848 12.6669 35.4848 12.6562 35.4848C12.6454 35.4848 12.6347 35.4848 12.6239 35.4848C12.6132 35.4848 12.6024 35.4848 12.5916 35.4848C12.5808 35.4848 12.57 35.4848 12.5592 35.4848C12.5484 35.4848 12.5376 35.4848 12.5267 35.4848C12.5159 35.4848 12.505 35.4848 12.4942 35.4848C12.4833 35.4848 12.4724 35.4848 12.4615 35.4848C12.4506 35.4848 12.4397 35.4848 12.4288 35.4848C12.4179 35.4848 12.4069 35.4848 12.396 35.4848C12.385 35.4848 12.3741 35.4848 12.3631 35.4848C12.3521 35.4848 12.3411 35.4848 12.3301 35.4848C12.3191 35.4848 12.3081 35.4848 12.2971 35.4848C12.286 35.4848 12.275 35.4848 12.2639 35.4848C12.2529 35.4848 12.2418 35.4848 12.2307 35.4848C12.2196 35.4848 12.2086 35.4848 12.1974 35.4848C12.1863 35.4848 12.1752 35.4848 12.1641 35.4848C12.1529 35.4848 12.1418 35.4848 12.1306 35.4848C12.1195 35.4848 12.1083 35.4848 12.0971 35.4848C12.0859 35.4848 12.0747 35.4848 12.0635 35.4848C12.0523 35.4848 12.0411 35.4848 12.0299 35.4848C12.0186 35.4848 12.0074 35.4848 11.9961 35.4848C11.9849 35.4848 11.9736 35.4848 11.9623 35.4848C11.951 35.4848 11.9397 35.4848 11.9284 35.4848C11.9171 35.4848 11.9058 35.4848 11.8944 35.4848C11.8831 35.4848 11.8718 35.4848 11.8604 35.4848C11.849 35.4848 11.8377 35.4848 11.8263 35.4848C11.8149 35.4848 11.8035 35.4848 11.7921 35.4848C11.7807 35.4848 11.7693 35.4848 11.7579 35.4848C11.7464 35.4848 11.735 35.4848 11.7235 35.4848C11.7121 35.4848 11.7006 35.4848 11.6891 35.4848C11.6777 35.4848 11.6662 35.4848 11.6547 35.4848C11.6432 35.4848 11.6316 35.4848 11.6201 35.4848C11.6086 35.4848 11.5971 35.4848 11.5855 35.4848C11.574 35.4848 11.5624 35.4848 11.5508 35.4848C11.5393 35.4848 11.5277 35.4848 11.5161 35.4848C11.5045 35.4848 11.4929 35.4848 11.4813 35.4848C11.4697 35.4848 11.4581 35.4848 11.4464 35.4848C11.4348 35.4848 11.4231 35.4848 11.4115 35.4848C11.3998 35.4848 11.3882 35.4848 11.3765 35.4848C11.3648 35.4848 11.3531 35.4848 11.3414 35.4848C11.3297 35.4848 11.318 35.4848 11.3063 35.4848C11.2945 35.4848 11.2828 35.4848 11.2711 35.4848C11.2593 35.4848 11.2476 35.4848 11.2358 35.4848C11.224 35.4848 11.2122 35.4848 11.2005 35.4848C11.1887 35.4848 11.1769 35.4848 11.1651 35.4848C11.1532 35.4848 11.1414 35.4848 11.1296 35.4848C11.1178 35.4848 11.1059 35.4848 11.0941 35.4848C11.0822 35.4848 11.0704 35.4848 11.0585 35.4848C11.0466 35.4848 11.0347 35.4848 11.0229 35.4848C11.011 35.4848 10.9991 35.4848 10.9872 35.4848C10.9752 35.4848 10.9633 35.4848 10.9514 35.4848C10.9395 35.4848 10.9275 35.4848 10.9156 35.4848C10.9036 35.4848 10.8917 35.4848 10.8797 35.4848C10.8677 35.4848 10.8557 35.4848 10.8438 35.4848C10.8318 35.4848 10.8198 35.4848 10.8078 35.4848C10.7957 35.4848 10.7837 35.4848 10.7717 35.4848C10.7597 35.4848 10.7476 35.4848 10.7356 35.4848C10.7235 35.4848 10.7115 35.4848 10.6994 35.4848C10.6874 35.4848 10.6753 35.4848 10.6632 35.4848C10.6511 35.4848 10.639 35.4848 10.6269 35.4848C10.6148 35.4848 10.6027 35.4848 10.5906 35.4848C10.5785 35.4848 10.5663 35.4848 10.5542 35.4848C10.542 35.4848 10.5299 35.4848 10.5177 35.4848C10.5056 35.4848 10.4934 35.4848 10.4812 35.4848C10.4691 35.4848 10.4569 35.4848 10.4447 35.4848C10.4325 35.4848 10.4203 35.4848 10.4081 35.4848C10.3959 35.4848 10.3837 35.4848 10.3714 35.4848C10.3592 35.4848 10.347 35.4848 10.3347 35.4848C10.3225 35.4848 10.3102 35.4848 10.298 35.4848C10.2857 35.4848 10.2734 35.4848 10.2612 35.4848C10.2489 35.4848 10.2366 35.4848 10.2243 35.4848C10.212 35.4848 10.1997 35.4848 10.1874 35.4848C10.1751 35.4848 10.1628 35.4848 10.1504 35.4848C10.1381 35.4848 10.1258 35.4848 10.1134 35.4848C10.1011 35.4848 10.0887 35.4848 10.0764 35.4848C10.064 35.4848 10.0516 35.4848 10.0393 35.4848C10.0269 35.4848 10.0145 35.4848 10.0021 35.4848C9.98972 35.4848 9.97732 35.4848 9.96492 35.4848C9.95251 35.4848 9.94009 35.4848 9.92767 35.4848C9.91525 35.4848 9.90282 35.4848 9.89038 35.4848C9.87795 35.4848 9.8655 35.4848 9.85305 35.4848C9.8406 35.4848 9.82814 35.4848 9.81567 35.4848C9.80321 35.4848 9.79073 35.4848 9.77825 35.4848C9.76577 35.4848 9.75328 35.4848 9.74079 35.4848C9.72829 35.4848 9.71579 35.4848 9.70328 35.4848C9.69077 35.4848 9.67825 35.4848 9.66572 35.4848C9.6532 35.4848 9.64067 35.4848 9.62813 35.4848C9.61559 35.4848 9.60305 35.4848 9.5905 35.4848C9.57794 35.4848 9.56538 35.4848 9.55282 35.4848C9.54025 35.4848 9.52768 35.4848 9.5151 35.4848C9.50252 35.4848 9.48994 35.4848 9.47734 35.4848C9.46475 35.4848 9.45215 35.4848 9.43955 35.4848C9.42694 35.4848 9.41433 35.4848 9.40171 35.4848C9.38909 35.4848 9.37647 35.4848 9.36384 35.4848C9.3512 35.4848 9.33857 35.4848 9.32592 35.4848C9.31328 35.4848 9.30063 35.4848 9.28797 35.4848C9.27532 35.4848 9.26265 35.4848 9.24998 35.4848C9.23732 35.4848 9.22464 35.4848 9.21196 35.4848C9.19928 35.4848 9.18659 35.4848 9.1739 35.4848C9.16121 35.4848 9.14851 35.4848 9.1358 35.4848C9.1231 35.4848 9.11039 35.4848 9.09767 35.4848C9.08495 35.4848 9.07223 35.4848 9.0595 35.4848C9.04678 35.4848 9.03404 35.4848 9.0213 35.4848C9.00856 35.4848 8.99582 35.4848 8.98307 35.4848C8.97032 35.4848 8.95756 35.4848 8.9448 35.4848C8.93204 35.4848 8.91927 35.4848 8.9065 35.4848C8.89373 35.4848 8.88095 35.4848 8.86817 35.4848C8.85539 35.4848 8.8426 35.4848 8.8298 35.4848C8.81701 35.4848 8.80421 35.4848 8.79141 35.4848C8.7786 35.4848 8.7658 35.4848 8.75298 35.4848C8.74017 35.4848 8.72735 35.4848 8.71453 35.4848C8.7017 35.4848 8.68887 35.4848 8.67604 35.4848C8.66321 35.4848 8.65037 35.4848 8.63752 35.4848C8.62468 35.4848 8.61183 35.4848 8.59898 35.4848C8.58613 35.4848 8.57327 35.4848 8.56041 35.4848C8.54755 35.4848 8.53468 35.4848 8.52181 35.4848C8.50894 35.4848 8.49606 35.4848 8.48318 35.4848C8.4703 35.4848 8.45742 35.4848 8.44453 35.4848C8.43164 35.4848 8.41874 35.4848 8.40585 35.4848C8.39295 35.4848 8.38005 35.4848 8.36714 35.4848C8.35423 35.4848 8.34132 35.4848 8.32841 35.4848C8.3155 35.4848 8.30258 35.4848 8.28965 35.4848C8.27673 35.4848 8.2638 35.4848 8.25087 35.4848C8.23794 35.4848 8.22501 35.4848 8.21207 35.4848C8.19913 35.4848 8.18619 35.4848 8.17324 35.4848C8.1603 35.4848 8.14735 35.4848 8.13439 35.4848C8.12144 35.4848 8.10848 35.4848 8.09552 35.4848C8.08256 35.4848 8.06959 35.4848 8.05663 35.4848C8.04366 35.4848 8.03069 35.4848 8.01771 35.4848C8.00474 35.4848 7.99176 35.4848 7.97878 35.4848C7.96579 35.4848 7.95281 35.4848 7.93982 35.4848C7.92683 35.4848 7.91384 35.4848 7.90084 35.4848C7.88785 35.4848 7.87485 35.4848 7.86185 35.4848C7.84885 35.4848 7.83584 35.4848 7.82283 35.4848C7.80983 35.4848 7.79682 35.4848 7.7838 35.4848C7.77079 35.4848 7.75777 35.4848 7.74475 35.4848C7.73173 35.4848 7.71871 35.4848 7.70568 35.4848C7.69266 35.4848 7.67963 35.4848 7.6666 35.4848C7.65357 35.4848 7.64054 35.4848 7.6275 35.4848C7.61446 35.4848 7.60143 35.4848 7.58838 35.4848C7.57534 35.4848 7.5623 35.4848 7.54925 35.4848C7.53621 35.4848 7.52316 35.4848 7.51011 35.4848C7.49705 35.4848 7.484 35.4848 7.47095 35.4848C7.45789 35.4848 7.44483 35.4848 7.43177 35.4848C7.41871 35.4848 7.40565 35.4848 7.39258 35.4848C7.37952 35.4848 7.36645 35.4848 7.35338 35.4848C7.34031 35.4848 7.32724 35.4848 7.31417 35.4848C7.3011 35.4848 7.28802 35.4848 7.27495 35.4848C7.26187 35.4848 7.24879 35.4848 7.23571 35.4848C7.22263 35.4848 7.20955 35.4848 7.19646 35.4848C7.18338 35.4848 7.17029 35.4848 7.15721 35.4848C7.14412 35.4848 7.13103 35.4848 7.11794 35.4848C7.10485 35.4848 7.09176 35.4848 7.07866 35.4848C7.06557 35.4848 7.05247 35.4848 7.03938 35.4848C7.02628 35.4848 7.01318 35.4848 7.00008 35.4848C6.98699 35.4848 6.97389 35.4848 6.96078 35.4848C6.94768 35.4848 6.93458 35.4848 6.92148 35.4848C6.90837 35.4848 6.89527 35.4848 6.88216 35.4848C6.86905 35.4848 6.85595 35.4848 6.84284 35.4848C6.82973 35.4848 6.81662 35.4848 6.80351 35.4848C6.7904 35.4848 6.77729 35.4848 6.76418 35.4848C6.75107 35.4848 6.73795 35.4848 6.72484 35.4848C6.71173 35.4848 6.69861 35.4848 6.6855 35.4848C6.67238 35.4848 6.65927 35.4848 6.64615 35.4848C6.63304 35.4848 6.61992 35.4848 6.6068 35.4848C6.59369 35.4848 6.58057 35.4848 6.56745 35.4848C6.55433 35.4848 6.54122 35.4848 6.5281 35.4848C6.51498 35.4848 6.50186 35.4848 6.48874 35.4848C6.47562 35.4848 6.4625 35.4848 6.44938 35.4848C6.43626 35.4848 6.42315 35.4848 6.41003 35.4848C6.39691 35.4848 6.38379 35.4848 6.37067 35.4848C6.35755 35.4848 6.34443 35.4848 6.33131 35.4848C6.31819 35.4848 6.30507 35.4848 6.29195 35.4848C6.27883 35.4848 6.26571 35.4848 6.25259 35.4848C6.23948 35.4848 6.22636 35.4848 6.21324 35.4848C6.20012 35.4848 6.187 35.4848 6.17389 35.4848C6.16077 35.4848 6.14765 35.4848 6.13454 35.4848C6.12142 35.4848 6.1083 35.4848 6.09519 35.4848C6.08207 35.4848 6.06896 35.4848 6.05584 35.4848C6.04273 35.4848 6.02962 35.4848 6.0165 35.4848C6.00339 35.4848 5.99028 35.4848 5.97717 35.4848C5.96406 35.4848 5.95095 35.4848 5.93784 35.4848C5.92473 35.4848 5.91162 35.4848 5.89852 35.4848C5.88541 35.4848 5.8723 35.4848 5.8592 35.4848C5.84609 35.4848 5.83299 35.4848 5.81989 35.4848C5.80678 35.4848 5.79368 35.4848 5.78058 35.4848C5.76748 35.4848 5.75438 35.4848 5.74129 35.4848C5.72819 35.4848 5.71509 35.4848 5.702 35.4848C5.6889 35.4848 5.67581 35.4848 5.66272 35.4848C5.64962 35.4848 5.63653 35.4848 5.62345 35.4848C5.61036 35.4848 5.59727 35.4848 5.58418 35.4848C5.5711 35.4848 5.55801 35.4848 5.54493 35.4848C5.53185 35.4848 5.51877 35.4848 5.50569 35.4848C5.49261 35.4848 5.47954 35.4848 5.46646 35.4848C5.45339 35.4848 5.44032 35.4848 5.42724 35.4848C5.41417 35.4848 5.4011 35.4848 5.38804 35.4848C5.37497 35.4848 5.36191 35.4848 5.34885 35.4848C5.33578 35.4848 5.32272 35.4848 5.30966 35.4848C5.29661 35.4848 5.28355 35.4848 5.2705 35.4848C5.25744 35.4848 5.24439 35.4848 5.23135 35.4848C5.2183 35.4848 5.20525 35.4848 5.19221 35.4848C5.17916 35.4848 5.16612 35.4848 5.15308 35.4848C5.14005 35.4848 5.12701 35.4848 5.11398 35.4848C5.10094 35.4848 5.08791 35.4848 5.07489 35.4848C5.06186 35.4848 5.04883 35.4848 5.03581 35.4848C5.02279 35.4848 5.00977 35.4848 4.99675 35.4848C4.98374 35.4848 4.97072 35.4848 4.95771 35.4848C4.9447 35.4848 4.93169 35.4848 4.91869 35.4848C4.90569 35.4848 4.89268 35.4848 4.87969 35.4848C4.86669 35.4848 4.85369 35.4848 4.8407 35.4848C4.82771 35.4848 4.81472 35.4848 4.80174 35.4848C4.78875 35.4848 4.77577 35.4848 4.76279 35.4848C4.74981 35.4848 4.73684 35.4848 4.72387 35.4848C4.7109 35.4848 4.69793 35.4848 4.68496 35.4848C4.672 35.4848 4.65904 35.4848 4.64608 35.4848C4.63313 35.4848 4.62017 35.4848 4.60722 35.4848C4.59427 35.4848 4.58133 35.4848 4.56839 35.4848C4.55544 35.4848 4.54251 35.4848 4.52957 35.4848C4.51664 35.4848 4.50371 35.4848 4.49078 35.4848C4.47785 35.4848 4.46493 35.4848 4.45201 35.4848C4.4391 35.4848 4.42618 35.4848 4.41327 35.4848C4.40036 35.4848 4.38746 35.4848 4.37455 35.4848C4.36165 35.4848 4.34876 35.4848 4.33586 35.4848C4.32297 35.4848 4.31008 35.4848 4.2972 35.4848C4.28431 35.4848 4.27143 35.4848 4.25856 35.4848C4.24568 35.4848 4.23281 35.4848 4.21995 35.4848C4.20708 35.4848 4.19422 35.4848 4.18136 35.4848C4.1685 35.4848 4.15565 35.4848 4.14281 35.4848C4.12996 35.4848 4.11711 35.4848 4.10428 35.4848C4.09144 35.4848 4.07861 35.4848 4.06578 35.4848C4.05295 35.4848 4.04013 35.4848 4.02731 35.4848C4.01449 35.4848 4.00168 35.4848 3.98887 35.4848C3.97606 35.4848 3.96326 35.4848 3.95046 35.4848C3.93766 35.4848 3.92487 35.4848 3.91208 35.4848C3.89929 35.4848 3.88651 35.4848 3.87373 35.4848C3.86096 35.4848 3.84819 35.4848 3.83542 35.4848C3.82265 35.4848 3.80989 35.4848 3.79714 35.4848C3.78438 35.4848 3.77163 35.4848 3.75889 35.4848C3.74615 35.4848 3.73341 35.4848 3.72067 35.4848C3.70794 35.4848 3.69521 35.4848 3.68249 35.4848C3.66977 35.4848 3.65705 35.4848 3.64434 35.4848C3.63163 35.4848 3.61893 35.4848 3.60623 35.4848C3.59353 35.4848 3.58084 35.4848 3.56816 35.4848C3.55547 35.4848 3.54279 35.4848 3.53011 35.4848C3.51744 35.4848 3.50477 35.4848 3.49211 35.4848C3.47945 35.4848 3.46679 35.4848 3.45414 35.4848C3.44149 35.4848 3.42885 35.4848 3.41621 35.4848C3.40358 35.4848 3.39095 35.4848 3.37832 35.4848C3.3657 35.4848 3.35308 35.4848 3.34047 35.4848C3.32786 35.4848 3.31525 35.4848 3.30265 35.4848C3.29006 35.4848 3.27746 35.4848 3.26488 35.4848C3.25229 35.4848 3.23971 35.4848 3.22714 35.4848C3.21457 35.4848 3.20201 35.4848 3.18945 35.4848C3.17689 35.4848 3.16434 35.4848 3.15179 35.4848C3.13925 35.4848 3.12671 35.4848 3.11418 35.4848C3.10165 35.4848 3.08913 35.4848 3.07661 35.4848C3.0641 35.4848 3.05159 35.4848 3.03908 35.4848C3.02658 35.4848 3.01409 35.4848 3.0016 35.4848C2.98911 35.4848 2.97663 35.4848 2.96416 35.4848C2.95168 35.4848 2.93922 35.4848 2.92676 35.4848C2.9143 35.4848 2.90185 35.4848 2.88941 35.4848C2.87696 35.4848 2.86453 35.4848 2.8521 35.4848C2.83967 35.4848 2.82725 35.4848 2.81484 35.4848C2.80242 35.4848 2.79002 35.4848 2.77762 35.4848C2.76522 35.4848 2.75283 35.4848 2.74045 35.4848C2.72807 35.4848 2.71569 35.4848 2.70332 35.4848C2.69096 35.4848 2.6786 35.4848 2.66625 35.4848C2.6539 35.4848 2.64155 35.4848 2.62922 35.4848C2.61689 35.4848 2.60456 35.4848 2.59224 35.4848C2.57992 35.4848 2.56761 35.4848 2.55531 35.4848C2.54301 35.4848 2.53071 35.4848 2.51843 35.4848C2.50614 35.4848 2.49387 35.4848 2.4816 35.4848C2.46933 35.4848 2.45707 35.4848 2.44482 35.4848C2.43256 35.4848 2.42032 35.4848 2.40808 35.4848C2.39585 35.4848 2.38362 35.4848 2.37141 35.4848C2.35919 35.4848 2.34698 35.4848 2.33478 35.4848C2.32258 35.4848 2.31039 35.4848 2.2982 35.4848C2.28602 35.4848 2.27385 35.4848 2.26168 35.4848C2.24952 35.4848 2.23736 35.4848 2.22521 35.4848C2.21307 35.4848 2.20093 35.4848 2.1888 35.4848C2.17667 35.4848 2.16455 35.4848 2.15244 35.4848C2.14033 35.4848 2.12823 35.4848 2.11613 35.4848C2.10404 35.4848 2.09196 35.4848 2.07988 35.4848C2.06781 35.4848 2.05575 35.4848 2.04369 35.4848C2.03163 35.4848 2.01959 35.4848 2.00755 35.4848V36.1577C2.01959 36.1577 2.03163 36.1577 2.04369 36.1577C2.05575 36.1577 2.06781 36.1577 2.07988 36.1577C2.09196 36.1577 2.10404 36.1577 2.11613 36.1577C2.12823 36.1577 2.14033 36.1577 2.15244 36.1577C2.16455 36.1577 2.17667 36.1577 2.1888 36.1577C2.20093 36.1577 2.21307 36.1577 2.22521 36.1577C2.23736 36.1577 2.24952 36.1577 2.26168 36.1577C2.27385 36.1577 2.28602 36.1577 2.2982 36.1577C2.31039 36.1577 2.32258 36.1577 2.33478 36.1577C2.34698 36.1577 2.35919 36.1577 2.37141 36.1577C2.38362 36.1577 2.39585 36.1577 2.40808 36.1577C2.42032 36.1577 2.43256 36.1577 2.44482 36.1577C2.45707 36.1577 2.46933 36.1577 2.4816 36.1577C2.49387 36.1577 2.50614 36.1577 2.51843 36.1577C2.53071 36.1577 2.54301 36.1577 2.55531 36.1577C2.56761 36.1577 2.57992 36.1577 2.59224 36.1577C2.60456 36.1577 2.61689 36.1577 2.62922 36.1577C2.64155 36.1577 2.6539 36.1577 2.66625 36.1577C2.6786 36.1577 2.69096 36.1577 2.70332 36.1577C2.71569 36.1577 2.72807 36.1577 2.74045 36.1577C2.75283 36.1577 2.76522 36.1577 2.77762 36.1577C2.79002 36.1577 2.80242 36.1577 2.81484 36.1577C2.82725 36.1577 2.83967 36.1577 2.8521 36.1577C2.86453 36.1577 2.87696 36.1577 2.88941 36.1577C2.90185 36.1577 2.9143 36.1577 2.92676 36.1577C2.93922 36.1577 2.95168 36.1577 2.96416 36.1577C2.97663 36.1577 2.98911 36.1577 3.0016 36.1577C3.01409 36.1577 3.02658 36.1577 3.03908 36.1577C3.05159 36.1577 3.0641 36.1577 3.07661 36.1577C3.08913 36.1577 3.10165 36.1577 3.11418 36.1577C3.12671 36.1577 3.13925 36.1577 3.15179 36.1577C3.16434 36.1577 3.17689 36.1577 3.18945 36.1577C3.20201 36.1577 3.21457 36.1577 3.22714 36.1577C3.23971 36.1577 3.25229 36.1577 3.26488 36.1577C3.27746 36.1577 3.29006 36.1577 3.30265 36.1577C3.31525 36.1577 3.32786 36.1577 3.34047 36.1577C3.35308 36.1577 3.3657 36.1577 3.37832 36.1577C3.39095 36.1577 3.40358 36.1577 3.41621 36.1577C3.42885 36.1577 3.44149 36.1577 3.45414 36.1577C3.46679 36.1577 3.47945 36.1577 3.49211 36.1577C3.50477 36.1577 3.51744 36.1577 3.53011 36.1577C3.54279 36.1577 3.55547 36.1577 3.56816 36.1577C3.58084 36.1577 3.59353 36.1577 3.60623 36.1577C3.61893 36.1577 3.63163 36.1577 3.64434 36.1577C3.65705 36.1577 3.66977 36.1577 3.68249 36.1577C3.69521 36.1577 3.70794 36.1577 3.72067 36.1577C3.73341 36.1577 3.74615 36.1577 3.75889 36.1577C3.77163 36.1577 3.78438 36.1577 3.79714 36.1577C3.80989 36.1577 3.82265 36.1577 3.83542 36.1577C3.84819 36.1577 3.86096 36.1577 3.87373 36.1577C3.88651 36.1577 3.89929 36.1577 3.91208 36.1577C3.92487 36.1577 3.93766 36.1577 3.95046 36.1577C3.96326 36.1577 3.97606 36.1577 3.98887 36.1577C4.00168 36.1577 4.01449 36.1577 4.02731 36.1577C4.04013 36.1577 4.05295 36.1577 4.06578 36.1577C4.07861 36.1577 4.09144 36.1577 4.10428 36.1577C4.11711 36.1577 4.12996 36.1577 4.14281 36.1577C4.15565 36.1577 4.1685 36.1577 4.18136 36.1577C4.19422 36.1577 4.20708 36.1577 4.21995 36.1577C4.23281 36.1577 4.24568 36.1577 4.25856 36.1577C4.27143 36.1577 4.28431 36.1577 4.2972 36.1577C4.31008 36.1577 4.32297 36.1577 4.33586 36.1577C4.34876 36.1577 4.36165 36.1577 4.37455 36.1577C4.38746 36.1577 4.40036 36.1577 4.41327 36.1577C4.42618 36.1577 4.4391 36.1577 4.45201 36.1577C4.46493 36.1577 4.47785 36.1577 4.49078 36.1577C4.50371 36.1577 4.51664 36.1577 4.52957 36.1577C4.54251 36.1577 4.55544 36.1577 4.56839 36.1577C4.58133 36.1577 4.59427 36.1577 4.60722 36.1577C4.62017 36.1577 4.63313 36.1577 4.64608 36.1577C4.65904 36.1577 4.672 36.1577 4.68496 36.1577C4.69793 36.1577 4.7109 36.1577 4.72387 36.1577C4.73684 36.1577 4.74981 36.1577 4.76279 36.1577C4.77577 36.1577 4.78875 36.1577 4.80174 36.1577C4.81472 36.1577 4.82771 36.1577 4.8407 36.1577C4.85369 36.1577 4.86669 36.1577 4.87969 36.1577C4.89268 36.1577 4.90569 36.1577 4.91869 36.1577C4.93169 36.1577 4.9447 36.1577 4.95771 36.1577C4.97072 36.1577 4.98374 36.1577 4.99675 36.1577C5.00977 36.1577 5.02279 36.1577 5.03581 36.1577C5.04883 36.1577 5.06186 36.1577 5.07489 36.1577C5.08791 36.1577 5.10094 36.1577 5.11398 36.1577C5.12701 36.1577 5.14005 36.1577 5.15308 36.1577C5.16612 36.1577 5.17916 36.1577 5.19221 36.1577C5.20525 36.1577 5.2183 36.1577 5.23135 36.1577C5.24439 36.1577 5.25744 36.1577 5.2705 36.1577C5.28355 36.1577 5.29661 36.1577 5.30966 36.1577C5.32272 36.1577 5.33578 36.1577 5.34885 36.1577C5.36191 36.1577 5.37497 36.1577 5.38804 36.1577C5.4011 36.1577 5.41417 36.1577 5.42724 36.1577C5.44032 36.1577 5.45339 36.1577 5.46646 36.1577C5.47954 36.1577 5.49261 36.1577 5.50569 36.1577C5.51877 36.1577 5.53185 36.1577 5.54493 36.1577C5.55801 36.1577 5.5711 36.1577 5.58418 36.1577C5.59727 36.1577 5.61036 36.1577 5.62345 36.1577C5.63653 36.1577 5.64962 36.1577 5.66272 36.1577C5.67581 36.1577 5.6889 36.1577 5.702 36.1577C5.71509 36.1577 5.72819 36.1577 5.74129 36.1577C5.75438 36.1577 5.76748 36.1577 5.78058 36.1577C5.79368 36.1577 5.80678 36.1577 5.81989 36.1577C5.83299 36.1577 5.84609 36.1577 5.8592 36.1577C5.8723 36.1577 5.88541 36.1577 5.89852 36.1577C5.91162 36.1577 5.92473 36.1577 5.93784 36.1577C5.95095 36.1577 5.96406 36.1577 5.97717 36.1577C5.99028 36.1577 6.00339 36.1577 6.0165 36.1577C6.02962 36.1577 6.04273 36.1577 6.05584 36.1577C6.06896 36.1577 6.08207 36.1577 6.09519 36.1577C6.1083 36.1577 6.12142 36.1577 6.13454 36.1577C6.14765 36.1577 6.16077 36.1577 6.17389 36.1577C6.187 36.1577 6.20012 36.1577 6.21324 36.1577C6.22636 36.1577 6.23948 36.1577 6.25259 36.1577C6.26571 36.1577 6.27883 36.1577 6.29195 36.1577C6.30507 36.1577 6.31819 36.1577 6.33131 36.1577C6.34443 36.1577 6.35755 36.1577 6.37067 36.1577C6.38379 36.1577 6.39691 36.1577 6.41003 36.1577C6.42315 36.1577 6.43626 36.1577 6.44938 36.1577C6.4625 36.1577 6.47562 36.1577 6.48874 36.1577C6.50186 36.1577 6.51498 36.1577 6.5281 36.1577C6.54122 36.1577 6.55433 36.1577 6.56745 36.1577C6.58057 36.1577 6.59369 36.1577 6.6068 36.1577C6.61992 36.1577 6.63304 36.1577 6.64615 36.1577C6.65927 36.1577 6.67238 36.1577 6.6855 36.1577C6.69861 36.1577 6.71173 36.1577 6.72484 36.1577C6.73795 36.1577 6.75107 36.1577 6.76418 36.1577C6.77729 36.1577 6.7904 36.1577 6.80351 36.1577C6.81662 36.1577 6.82973 36.1577 6.84284 36.1577C6.85595 36.1577 6.86905 36.1577 6.88216 36.1577C6.89527 36.1577 6.90837 36.1577 6.92148 36.1577C6.93458 36.1577 6.94768 36.1577 6.96078 36.1577C6.97389 36.1577 6.98699 36.1577 7.00008 36.1577C7.01318 36.1577 7.02628 36.1577 7.03938 36.1577C7.05247 36.1577 7.06557 36.1577 7.07866 36.1577C7.09176 36.1577 7.10485 36.1577 7.11794 36.1577C7.13103 36.1577 7.14412 36.1577 7.15721 36.1577C7.17029 36.1577 7.18338 36.1577 7.19646 36.1577C7.20955 36.1577 7.22263 36.1577 7.23571 36.1577C7.24879 36.1577 7.26187 36.1577 7.27495 36.1577C7.28802 36.1577 7.3011 36.1577 7.31417 36.1577C7.32724 36.1577 7.34031 36.1577 7.35338 36.1577C7.36645 36.1577 7.37952 36.1577 7.39258 36.1577C7.40565 36.1577 7.41871 36.1577 7.43177 36.1577C7.44483 36.1577 7.45789 36.1577 7.47095 36.1577C7.484 36.1577 7.49705 36.1577 7.51011 36.1577C7.52316 36.1577 7.53621 36.1577 7.54925 36.1577C7.5623 36.1577 7.57534 36.1577 7.58838 36.1577C7.60143 36.1577 7.61446 36.1577 7.6275 36.1577C7.64054 36.1577 7.65357 36.1577 7.6666 36.1577C7.67963 36.1577 7.69266 36.1577 7.70568 36.1577C7.71871 36.1577 7.73173 36.1577 7.74475 36.1577C7.75777 36.1577 7.77079 36.1577 7.7838 36.1577C7.79682 36.1577 7.80983 36.1577 7.82283 36.1577C7.83584 36.1577 7.84885 36.1577 7.86185 36.1577C7.87485 36.1577 7.88785 36.1577 7.90084 36.1577C7.91384 36.1577 7.92683 36.1577 7.93982 36.1577C7.95281 36.1577 7.96579 36.1577 7.97878 36.1577C7.99176 36.1577 8.00474 36.1577 8.01771 36.1577C8.03069 36.1577 8.04366 36.1577 8.05663 36.1577C8.06959 36.1577 8.08256 36.1577 8.09552 36.1577C8.10848 36.1577 8.12144 36.1577 8.13439 36.1577C8.14735 36.1577 8.1603 36.1577 8.17324 36.1577C8.18619 36.1577 8.19913 36.1577 8.21207 36.1577C8.22501 36.1577 8.23794 36.1577 8.25087 36.1577C8.2638 36.1577 8.27673 36.1577 8.28965 36.1577C8.30258 36.1577 8.3155 36.1577 8.32841 36.1577C8.34132 36.1577 8.35423 36.1577 8.36714 36.1577C8.38005 36.1577 8.39295 36.1577 8.40585 36.1577C8.41874 36.1577 8.43164 36.1577 8.44453 36.1577C8.45742 36.1577 8.4703 36.1577 8.48318 36.1577C8.49606 36.1577 8.50894 36.1577 8.52181 36.1577C8.53468 36.1577 8.54755 36.1577 8.56041 36.1577C8.57327 36.1577 8.58613 36.1577 8.59898 36.1577C8.61183 36.1577 8.62468 36.1577 8.63752 36.1577C8.65037 36.1577 8.66321 36.1577 8.67604 36.1577C8.68887 36.1577 8.7017 36.1577 8.71453 36.1577C8.72735 36.1577 8.74017 36.1577 8.75298 36.1577C8.7658 36.1577 8.7786 36.1577 8.79141 36.1577C8.80421 36.1577 8.81701 36.1577 8.8298 36.1577C8.8426 36.1577 8.85539 36.1577 8.86817 36.1577C8.88095 36.1577 8.89373 36.1577 8.9065 36.1577C8.91927 36.1577 8.93204 36.1577 8.9448 36.1577C8.95756 36.1577 8.97032 36.1577 8.98307 36.1577C8.99582 36.1577 9.00856 36.1577 9.0213 36.1577C9.03404 36.1577 9.04678 36.1577 9.0595 36.1577C9.07223 36.1577 9.08495 36.1577 9.09767 36.1577C9.11039 36.1577 9.1231 36.1577 9.1358 36.1577C9.14851 36.1577 9.16121 36.1577 9.1739 36.1577C9.18659 36.1577 9.19928 36.1577 9.21196 36.1577C9.22464 36.1577 9.23732 36.1577 9.24998 36.1577C9.26265 36.1577 9.27532 36.1577 9.28797 36.1577C9.30063 36.1577 9.31328 36.1577 9.32592 36.1577C9.33857 36.1577 9.3512 36.1577 9.36384 36.1577C9.37647 36.1577 9.38909 36.1577 9.40171 36.1577C9.41433 36.1577 9.42694 36.1577 9.43955 36.1577C9.45215 36.1577 9.46475 36.1577 9.47734 36.1577C9.48994 36.1577 9.50252 36.1577 9.5151 36.1577C9.52768 36.1577 9.54025 36.1577 9.55282 36.1577C9.56538 36.1577 9.57794 36.1577 9.5905 36.1577C9.60305 36.1577 9.61559 36.1577 9.62813 36.1577C9.64067 36.1577 9.6532 36.1577 9.66572 36.1577C9.67825 36.1577 9.69077 36.1577 9.70328 36.1577C9.71579 36.1577 9.72829 36.1577 9.74079 36.1577C9.75328 36.1577 9.76577 36.1577 9.77825 36.1577C9.79073 36.1577 9.80321 36.1577 9.81567 36.1577C9.82814 36.1577 9.8406 36.1577 9.85305 36.1577C9.8655 36.1577 9.87795 36.1577 9.89038 36.1577C9.90282 36.1577 9.91525 36.1577 9.92767 36.1577C9.94009 36.1577 9.95251 36.1577 9.96492 36.1577C9.97732 36.1577 9.98972 36.1577 10.0021 36.1577C10.0145 36.1577 10.0269 36.1577 10.0393 36.1577C10.0516 36.1577 10.064 36.1577 10.0764 36.1577C10.0887 36.1577 10.1011 36.1577 10.1134 36.1577C10.1258 36.1577 10.1381 36.1577 10.1504 36.1577C10.1628 36.1577 10.1751 36.1577 10.1874 36.1577C10.1997 36.1577 10.212 36.1577 10.2243 36.1577C10.2366 36.1577 10.2489 36.1577 10.2612 36.1577C10.2734 36.1577 10.2857 36.1577 10.298 36.1577C10.3102 36.1577 10.3225 36.1577 10.3347 36.1577C10.347 36.1577 10.3592 36.1577 10.3714 36.1577C10.3837 36.1577 10.3959 36.1577 10.4081 36.1577C10.4203 36.1577 10.4325 36.1577 10.4447 36.1577C10.4569 36.1577 10.4691 36.1577 10.4812 36.1577C10.4934 36.1577 10.5056 36.1577 10.5177 36.1577C10.5299 36.1577 10.542 36.1577 10.5542 36.1577C10.5663 36.1577 10.5785 36.1577 10.5906 36.1577C10.6027 36.1577 10.6148 36.1577 10.6269 36.1577C10.639 36.1577 10.6511 36.1577 10.6632 36.1577C10.6753 36.1577 10.6874 36.1577 10.6994 36.1577C10.7115 36.1577 10.7235 36.1577 10.7356 36.1577C10.7476 36.1577 10.7597 36.1577 10.7717 36.1577C10.7837 36.1577 10.7957 36.1577 10.8078 36.1577C10.8198 36.1577 10.8318 36.1577 10.8438 36.1577C10.8557 36.1577 10.8677 36.1577 10.8797 36.1577C10.8917 36.1577 10.9036 36.1577 10.9156 36.1577C10.9275 36.1577 10.9395 36.1577 10.9514 36.1577C10.9633 36.1577 10.9752 36.1577 10.9872 36.1577C10.9991 36.1577 11.011 36.1577 11.0229 36.1577C11.0347 36.1577 11.0466 36.1577 11.0585 36.1577C11.0704 36.1577 11.0822 36.1577 11.0941 36.1577C11.1059 36.1577 11.1178 36.1577 11.1296 36.1577C11.1414 36.1577 11.1532 36.1577 11.1651 36.1577C11.1769 36.1577 11.1887 36.1577 11.2005 36.1577C11.2122 36.1577 11.224 36.1577 11.2358 36.1577C11.2476 36.1577 11.2593 36.1577 11.2711 36.1577C11.2828 36.1577 11.2945 36.1577 11.3063 36.1577C11.318 36.1577 11.3297 36.1577 11.3414 36.1577C11.3531 36.1577 11.3648 36.1577 11.3765 36.1577C11.3882 36.1577 11.3998 36.1577 11.4115 36.1577C11.4231 36.1577 11.4348 36.1577 11.4464 36.1577C11.4581 36.1577 11.4697 36.1577 11.4813 36.1577C11.4929 36.1577 11.5045 36.1577 11.5161 36.1577C11.5277 36.1577 11.5393 36.1577 11.5508 36.1577C11.5624 36.1577 11.574 36.1577 11.5855 36.1577C11.5971 36.1577 11.6086 36.1577 11.6201 36.1577C11.6316 36.1577 11.6432 36.1577 11.6547 36.1577C11.6662 36.1577 11.6777 36.1577 11.6891 36.1577C11.7006 36.1577 11.7121 36.1577 11.7235 36.1577C11.735 36.1577 11.7464 36.1577 11.7579 36.1577C11.7693 36.1577 11.7807 36.1577 11.7921 36.1577C11.8035 36.1577 11.8149 36.1577 11.8263 36.1577C11.8377 36.1577 11.849 36.1577 11.8604 36.1577C11.8718 36.1577 11.8831 36.1577 11.8944 36.1577C11.9058 36.1577 11.9171 36.1577 11.9284 36.1577C11.9397 36.1577 11.951 36.1577 11.9623 36.1577C11.9736 36.1577 11.9849 36.1577 11.9961 36.1577C12.0074 36.1577 12.0186 36.1577 12.0299 36.1577C12.0411 36.1577 12.0523 36.1577 12.0635 36.1577C12.0747 36.1577 12.0859 36.1577 12.0971 36.1577C12.1083 36.1577 12.1195 36.1577 12.1306 36.1577C12.1418 36.1577 12.1529 36.1577 12.1641 36.1577C12.1752 36.1577 12.1863 36.1577 12.1974 36.1577C12.2086 36.1577 12.2196 36.1577 12.2307 36.1577C12.2418 36.1577 12.2529 36.1577 12.2639 36.1577C12.275 36.1577 12.286 36.1577 12.2971 36.1577C12.3081 36.1577 12.3191 36.1577 12.3301 36.1577C12.3411 36.1577 12.3521 36.1577 12.3631 36.1577C12.3741 36.1577 12.385 36.1577 12.396 36.1577C12.4069 36.1577 12.4179 36.1577 12.4288 36.1577C12.4397 36.1577 12.4506 36.1577 12.4615 36.1577C12.4724 36.1577 12.4833 36.1577 12.4942 36.1577C12.505 36.1577 12.5159 36.1577 12.5267 36.1577C12.5376 36.1577 12.5484 36.1577 12.5592 36.1577C12.57 36.1577 12.5808 36.1577 12.5916 36.1577C12.6024 36.1577 12.6132 36.1577 12.6239 36.1577C12.6347 36.1577 12.6454 36.1577 12.6562 36.1577C12.6669 36.1577 12.6776 36.1577 12.6883 36.1577C12.699 36.1577 12.7097 36.1577 12.7204 36.1577C12.7311 36.1577 12.7417 36.1577 12.7524 36.1577C12.763 36.1577 12.7736 36.1577 12.7843 36.1577C12.7949 36.1577 12.8055 36.1577 12.8161 36.1577C12.8267 36.1577 12.8372 36.1577 12.8478 36.1577C12.8583 36.1577 12.8689 36.1577 12.8794 36.1577C12.8899 36.1577 12.9005 36.1577 12.911 36.1577C12.9215 36.1577 12.9319 36.1577 12.9424 36.1577C12.9529 36.1577 12.9633 36.1577 12.9738 36.1577C12.9842 36.1577 12.9946 36.1577 13.0051 36.1577C13.0155 36.1577 13.0259 36.1577 13.0362 36.1577C13.0466 36.1577 13.057 36.1577 13.0673 36.1577C13.0777 36.1577 13.088 36.1577 13.0983 36.1577C13.1087 36.1577 13.119 36.1577 13.1293 36.1577C13.1396 36.1577 13.1498 36.1577 13.1601 36.1577C13.1703 36.1577 13.1806 36.1577 13.1908 36.1577C13.201 36.1577 13.2113 36.1577 13.2215 36.1577C13.2316 36.1577 13.2418 36.1577 13.252 36.1577C13.2622 36.1577 13.2723 36.1577 13.2824 36.1577C13.2926 36.1577 13.3027 36.1577 13.3128 36.1577C13.3229 36.1577 13.333 36.1577 13.3431 36.1577C13.3531 36.1577 13.3632 36.1577 13.3732 36.1577C13.3833 36.1577 13.3933 36.1577 13.4033 36.1577C13.4133 36.1577 13.4233 36.1577 13.4333 36.1577C13.4432 36.1577 13.4532 36.1577 13.4631 36.1577C13.4731 36.1577 13.483 36.1577 13.4929 36.1577C13.5028 36.1577 13.5127 36.1577 13.5226 36.1577C13.5325 36.1577 13.5423 36.1577 13.5522 36.1577C13.562 36.1577 13.5719 36.1577 13.5817 36.1577C13.5915 36.1577 13.6013 36.1577 13.6111 36.1577C13.6208 36.1577 13.6306 36.1577 13.6403 36.1577C13.6501 36.1577 13.6598 36.1577 13.6695 36.1577C13.6792 36.1577 13.6889 36.1577 13.6986 36.1577C13.7083 36.1577 13.7179 36.1577 13.7276 36.1577C13.7372 36.1577 13.7469 36.1577 13.7565 36.1577C13.7661 36.1577 13.7757 36.1577 13.7852 36.1577C13.7948 36.1577 13.8044 36.1577 13.8139 36.1577C13.8235 36.1577 13.833 36.1577 13.8425 36.1577C13.852 36.1577 13.8615 36.1577 13.871 36.1577C13.8804 36.1577 13.8899 36.1577 13.8993 36.1577C13.9088 36.1577 13.9182 36.1577 13.9276 36.1577C13.937 36.1577 13.9464 36.1577 13.9557 36.1577C13.9651 36.1577 13.9744 36.1577 13.9838 36.1577C13.9931 36.1577 14.0024 36.1577 14.0117 36.1577C14.021 36.1577 14.0303 36.1577 14.0395 36.1577C14.0488 36.1577 14.058 36.1577 14.0673 36.1577C14.0765 36.1577 14.0857 36.1577 14.0949 36.1577C14.1041 36.1577 14.1132 36.1577 14.1224 36.1577C14.1316 36.1577 14.1407 36.1577 14.1498 36.1577C14.1589 36.1577 14.168 36.1577 14.1771 36.1577C14.1862 36.1577 14.1952 36.1577 14.2043 36.1577C14.2133 36.1577 14.2223 36.1577 14.2313 36.1577C14.2404 36.1577 14.2493 36.1577 14.2583 36.1577C14.2673 36.1577 14.2762 36.1577 14.2852 36.1577C14.2941 36.1577 14.303 36.1577 14.3119 36.1577C14.3208 36.1577 14.3297 36.1577 14.3385 36.1577C14.3474 36.1577 14.3562 36.1577 14.365 36.1577C14.3739 36.1577 14.3827 36.1577 14.3914 36.1577C14.4002 36.1577 14.409 36.1577 14.4177 36.1577C14.4265 36.1577 14.4352 36.1577 14.4439 36.1577C14.4526 36.1577 14.4613 36.1577 14.4699 36.1577C14.4786 36.1577 14.4873 36.1577 14.4959 36.1577C14.5045 36.1577 14.5131 36.1577 14.5217 36.1577C14.5303 36.1577 14.5389 36.1577 14.5474 36.1577C14.556 36.1577 14.5645 36.1577 14.573 36.1577C14.5815 36.1577 14.59 36.1577 14.5985 36.1577C14.607 36.1577 14.6154 36.1577 14.6238 36.1577C14.6323 36.1577 14.6407 36.1577 14.6491 36.1577C14.6575 36.1577 14.6658 36.1577 14.6742 36.1577C14.6826 36.1577 14.6909 36.1577 14.6992 36.1577C14.7075 36.1577 14.7158 36.1577 14.7241 36.1577C14.7324 36.1577 14.7406 36.1577 14.7488 36.1577C14.7571 36.1577 14.7653 36.1577 14.7735 36.1577C14.7817 36.1577 14.7898 36.1577 14.798 36.1577C14.8062 36.1577 14.8143 36.1577 14.8224 36.1577C14.8305 36.1577 14.8386 36.1577 14.8467 36.1577C14.8547 36.1577 14.8628 36.1577 14.8708 36.1577C14.8788 36.1577 14.8869 36.1577 14.8948 36.1577C14.9028 36.1577 14.9108 36.1577 14.9188 36.1577C14.9267 36.1577 14.9346 36.1577 14.9425 36.1577C14.9504 36.1577 14.9583 36.1577 14.9662 36.1577C14.9741 36.1577 14.9819 36.1577 14.9897 36.1577C14.9975 36.1577 15.0053 36.1577 15.0131 36.1577C15.0209 36.1577 15.0287 36.1577 15.0364 36.1577C15.0441 36.1577 15.0519 36.1577 15.0596 36.1577C15.0672 36.1577 15.0749 36.1577 15.0826 36.1577C15.0902 36.1577 15.0979 36.1577 15.1055 36.1577C15.1131 36.1577 15.1207 36.1577 15.1282 36.1577C15.1358 36.1577 15.1434 36.1577 15.1509 36.1577C15.1584 36.1577 15.1659 36.1577 15.1734 36.1577C15.1809 36.1577 15.1883 36.1577 15.1958 36.1577C15.2032 36.1577 15.2106 36.1577 15.218 36.1577C15.2254 36.1577 15.2328 36.1577 15.2401 36.1577C15.2475 36.1577 15.2548 36.1577 15.2621 36.1577C15.2694 36.1577 15.2767 36.1577 15.284 36.1577C15.2912 36.1577 15.2985 36.1577 15.3057 36.1577C15.3129 36.1577 15.3201 36.1577 15.3273 36.1577C15.3345 36.1577 15.3416 36.1577 15.3488 36.1577C15.3559 36.1577 15.363 36.1577 15.3701 36.1577C15.3772 36.1577 15.3842 36.1577 15.3913 36.1577C15.3983 36.1577 15.4053 36.1577 15.4123 36.1577C15.4193 36.1577 15.4263 36.1577 15.4332 36.1577C15.4402 36.1577 15.4471 36.1577 15.454 36.1577C15.4609 36.1577 15.4678 36.1577 15.4747 36.1577C15.4815 36.1577 15.4884 36.1577 15.4952 36.1577C15.502 36.1577 15.5088 36.1577 15.5156 36.1577C15.5223 36.1577 15.5291 36.1577 15.5358 36.1577C15.5425 36.1577 15.5492 36.1577 15.5559 36.1577C15.5626 36.1577 15.5692 36.1577 15.5759 36.1577C15.5825 36.1577 15.5891 36.1577 15.5957 36.1577C15.6023 36.1577 15.6088 36.1577 15.6154 36.1577C15.6219 36.1577 15.6284 36.1577 15.6349 36.1577C15.6414 36.1577 15.6479 36.1577 15.6543 36.1577C15.6607 36.1577 15.6672 36.1577 15.6736 36.1577C15.68 36.1577 15.6863 36.1577 15.6927 36.1577C15.699 36.1577 15.7053 36.1577 15.7116 36.1577C15.7179 36.1577 15.7242 36.1577 15.7305 36.1577C15.7367 36.1577 15.743 36.1577 15.7492 36.1577C15.7554 36.1577 15.7616 36.1577 15.7677 36.1577C15.7739 36.1577 15.78 36.1577 15.7861 36.1577C15.7922 36.1577 15.7983 36.1577 15.8044 36.1577C15.8104 36.1577 15.8165 36.1577 15.8225 36.1577C15.8285 36.1577 15.8345 36.1577 15.8405 36.1577C15.8464 36.1577 15.8524 36.1577 15.8583 36.1577C15.8642 36.1577 15.8701 36.1577 15.8759 36.1577C15.8818 36.1577 15.8877 36.1577 15.8935 36.1577C15.8993 36.1577 15.9051 36.1577 15.9108 36.1577C15.9166 36.1577 15.9224 36.1577 15.9281 36.1577C15.9338 36.1577 15.9395 36.1577 15.9452 36.1577C15.9508 36.1577 15.9565 36.1577 15.9621 36.1577C15.9677 36.1577 15.9733 36.1577 15.9789 36.1577C15.9844 36.1577 15.99 36.1577 15.9955 36.1577C16.001 36.1577 16.0065 36.1577 16.012 36.1577C16.0175 36.1577 16.0229 36.1577 16.0283 36.1577C16.0337 36.1577 16.0391 36.1577 16.0445 36.1577C16.0499 36.1577 16.0552 36.1577 16.0605 36.1577C16.0658 36.1577 16.0711 36.1577 16.0764 36.1577C16.0817 36.1577 16.0869 36.1577 16.0921 36.1577C16.0973 36.1577 16.1025 36.1577 16.1077 36.1577C16.1128 36.1577 16.118 36.1577 16.1231 36.1577C16.1282 36.1577 16.1333 36.1577 16.1384 36.1577C16.1434 36.1577 16.1484 36.1577 16.1535 36.1577C16.1585 36.1577 16.1634 36.1577 16.1684 36.1577C16.1734 36.1577 16.1783 36.1577 16.1832 36.1577C16.1881 36.1577 16.193 36.1577 16.1978 36.1577C16.2027 36.1577 16.2075 36.1577 16.2123 36.1577C16.2171 36.1577 16.2219 36.1577 16.2266 36.1577C16.2314 36.1577 16.2361 36.1577 16.2408 36.1577C16.2455 36.1577 16.2502 36.1577 16.2548 36.1577C16.2594 36.1577 16.2641 36.1577 16.2686 36.1577C16.2732 36.1577 16.2778 36.1577 16.2823 36.1577C16.2869 36.1577 16.2914 36.1577 16.2958 36.1577C16.3003 36.1577 16.3048 36.1577 16.3092 36.1577C16.3136 36.1577 16.318 36.1577 16.3224 36.1577C16.3268 36.1577 16.3311 36.1577 16.3355 36.1577C16.3398 36.1577 16.3441 36.1577 16.3483 36.1577C16.3526 36.1577 16.3568 36.1577 16.3611 36.1577C16.3653 36.1577 16.3694 36.1577 16.3736 36.1577C16.3778 36.1577 16.3819 36.1577 16.386 36.1577C16.3901 36.1577 16.3942 36.1577 16.3982 36.1577C16.4023 36.1577 16.4063 36.1577 16.4103 36.1577C16.4143 36.1577 16.4182 36.1577 16.4222 36.1577C16.4261 36.1577 16.43 36.1577 16.4339 36.1577C16.4378 36.1577 16.4416 36.1577 16.4455 36.1577C16.4493 36.1577 16.4531 36.1577 16.4569 36.1577C16.4606 36.1577 16.4644 36.1577 16.4681 36.1577C16.4718 36.1577 16.4755 36.1577 16.4792 36.1577C16.4828 36.1577 16.4865 36.1577 16.4901 36.1577C16.4937 36.1577 16.4972 36.1577 16.5008 36.1577C16.5043 36.1577 16.5079 36.1577 16.5113 36.1577C16.5148 36.1577 16.5183 36.1577 16.5217 36.1577C16.5252 36.1577 16.5286 36.1577 16.532 36.1577C16.5353 36.1577 16.5387 36.1577 16.542 36.1577C16.5453 36.1577 16.5486 36.1577 16.5519 36.1577C16.5551 36.1577 16.5584 36.1577 16.5616 36.1577C16.5648 36.1577 16.568 36.1577 16.5711 36.1577C16.5743 36.1577 16.5774 36.1577 16.5805 36.1577C16.5836 36.1577 16.5866 36.1577 16.5897 36.1577C16.5927 36.1577 16.5957 36.1577 16.5987 36.1577C16.6017 36.1577 16.6046 36.1577 16.6075 36.1577C16.6104 36.1577 16.6133 36.1577 16.6162 36.1577C16.619 36.1577 16.6219 36.1577 16.6247 36.1577C16.6275 36.1577 16.6302 36.1577 16.633 36.1577C16.6357 36.1577 16.6384 36.1577 16.6411 36.1577C16.6438 36.1577 16.6465 36.1577 16.6491 36.1577C16.6517 36.1577 16.6543 36.1577 16.6569 36.1577C16.6594 36.1577 16.662 36.1577 16.6645 36.1577C16.667 36.1577 16.6695 36.1577 16.6719 36.1577C16.6744 36.1577 16.6768 36.1577 16.6792 36.1577C16.6816 36.1577 16.6839 36.1577 16.6862 36.1577C16.6886 36.1577 16.6909 36.1577 16.6931 36.1577C16.6954 36.1577 16.6976 36.1577 16.6998 36.1577C16.702 36.1577 16.7042 36.1577 16.7064 36.1577C16.7085 36.1577 16.7106 36.1577 16.7127 36.1577C16.7148 36.1577 16.7169 36.1577 16.7189 36.1577C16.7209 36.1577 16.7229 36.1577 16.7249 36.1577C16.7268 36.1577 16.7288 36.1577 16.7307 36.1577C16.7326 36.1577 16.7345 36.1577 16.7363 36.1577C16.7382 36.1577 16.74 36.1577 16.7417 36.1577C16.7435 36.1577 16.7453 36.1577 16.747 36.1577C16.7487 36.1577 16.7504 36.1577 16.7521 36.1577C16.7537 36.1577 16.7554 36.1577 16.757 36.1577C16.7586 36.1577 16.7601 36.1577 16.7617 36.1577C16.7632 36.1577 16.7647 36.1577 16.7662 36.1577C16.7676 36.1577 16.7691 36.1577 16.7705 36.1577C16.7719 36.1577 16.7733 36.1577 16.7746 36.1577C16.776 36.1577 16.7773 36.1577 16.7786 36.1577C16.7799 36.1577 16.7811 36.1577 16.7824 36.1577C16.7836 36.1577 16.7848 36.1577 16.7859 36.1577C16.7871 36.1577 16.7882 36.1577 16.7893 36.1577C16.7904 36.1577 16.7915 36.1577 16.7925 36.1577C16.7936 36.1577 16.7946 36.1577 16.7955 36.1577C16.7965 36.1577 16.7974 36.1577 16.7983 36.1577C16.7993 36.1577 16.8001 36.1577 16.801 36.1577C16.8018 36.1577 16.8026 36.1577 16.8034 36.1577C16.8042 36.1577 16.8049 36.1577 16.8056 36.1577C16.8064 36.1577 16.807 36.1577 16.8077 36.1577C16.8084 36.1577 16.809 36.1577 16.8096 36.1577C16.8101 36.1577 16.8107 36.1577 16.8112 36.1577C16.8117 36.1577 16.8122 36.1577 16.8127 36.1577C16.8131 36.1577 16.8136 36.1577 16.814 36.1577C16.8144 36.1577 16.8147 36.1577 16.815 36.1577C16.8154 36.1577 16.8157 36.1577 16.8159 36.1577C16.8162 36.1577 16.8164 36.1577 16.8166 36.1577C16.8168 36.1577 16.817 36.1577 16.8171 36.1577C16.8172 36.1577 16.8173 36.1577 16.8174 36.1577C16.8175 36.1577 16.8175 36.1577 16.8175 35.8212ZM0.663563 15.135C0.663563 17.6537 0.663564 27.6081 0.663565 34.8141H1.33644C1.33644 27.6081 1.33644 17.6537 1.33644 15.135H0.663563ZM26.2328 16.6443C23.8482 16.6443 22.122 17.6755 20.9122 19.2477C19.7131 20.8058 19.0268 22.8851 18.6677 24.9989L19.3311 25.1116C19.6811 23.0517 20.3405 21.0938 21.4454 19.658C22.5395 18.2364 24.0754 17.3172 26.2328 17.3172V16.6443ZM26.2328 16.9808C26.5104 16.7907 26.5103 16.7906 26.5102 16.7905C26.5102 16.7904 26.5101 16.7903 26.51 16.7902C26.5099 16.79 26.5098 16.7898 26.5096 16.7896C26.5093 16.7892 26.509 16.7887 26.5086 16.7881C26.5079 16.7871 26.507 16.7858 26.506 16.7843C26.5039 16.7814 26.5012 16.7777 26.498 16.7732C26.4914 16.7642 26.4825 16.7523 26.4711 16.7376C26.4484 16.7083 26.4158 16.6682 26.3729 16.6202C26.2872 16.5241 26.1601 16.3955 25.9882 16.2565C25.6439 15.9782 25.1201 15.6587 24.3929 15.4768L24.2297 16.1296C24.8481 16.2842 25.2851 16.5534 25.5652 16.7798C25.7054 16.8932 25.8064 16.9959 25.8707 17.068C25.9028 17.104 25.9257 17.1323 25.9397 17.1503C25.9467 17.1593 25.9514 17.1658 25.954 17.1693C25.9553 17.171 25.956 17.1721 25.9562 17.1723C25.9563 17.1725 25.9563 17.1724 25.9561 17.1722C25.956 17.172 25.9559 17.1719 25.9557 17.1716C25.9556 17.1715 25.9556 17.1714 25.9555 17.1713C25.9554 17.1712 25.9553 17.1711 25.9553 17.171C25.9552 17.1709 25.9552 17.1708 26.2328 16.9808ZM24.6467 15.829C24.6577 15.6853 24.6626 15.5238 24.664 15.3671L23.9912 15.3608C23.9898 15.5098 23.9852 15.6548 23.9758 15.7775L24.6467 15.829ZM21.4205 15.9649C21.7955 15.8899 22.3299 15.8871 22.8703 15.9284C23.4063 15.9694 23.9158 16.0512 24.2297 16.1296L24.3929 15.4768C24.0338 15.3871 23.4855 15.3006 22.9216 15.2575C22.362 15.2147 21.7545 15.2119 21.2885 15.3051L21.4205 15.9649ZM28.2514 26.2328C28.2514 27.8562 27.8668 29.3095 27.2626 30.3454C26.6535 31.3896 25.8614 31.9522 25.0552 31.9522V32.6251C26.2001 32.6251 27.1743 31.8321 27.8438 30.6844C28.518 29.5286 28.9243 27.9539 28.9243 26.2328H28.2514ZM25.0552 31.9522C24.2491 31.9522 23.457 31.3896 22.8479 30.3454C22.2436 29.3095 21.8591 27.8562 21.8591 26.2328H21.1862C21.1862 27.9539 21.5925 29.5286 22.2667 30.6844C22.9362 31.8321 23.9104 32.6251 25.0552 32.6251V31.9522ZM21.8591 26.2328C21.8591 24.6094 22.2436 23.1561 22.8479 22.1202C23.457 21.076 24.2491 20.5133 25.0552 20.5133V19.8405C23.9104 19.8405 22.9362 20.6335 22.2667 21.7811C21.5925 22.937 21.1862 24.5116 21.1862 26.2328H21.8591ZM25.0552 20.5133C25.8614 20.5133 26.6535 21.076 27.2626 22.1202C27.8668 23.1561 28.2514 24.6094 28.2514 26.2328H28.9243C28.9243 24.5116 28.518 22.937 27.8438 21.7811C27.1743 20.6335 26.2001 19.8405 25.0552 19.8405V20.5133ZM16.8175 35.8212C16.6839 36.13 16.6839 36.13 16.684 36.1301C16.684 36.1301 16.6841 36.1301 16.6842 36.1301C16.6843 36.1302 16.6845 36.1303 16.6847 36.1304C16.6852 36.1306 16.6858 36.1308 16.6866 36.1312C16.6882 36.1318 16.6904 36.1328 16.6933 36.1341C16.6992 36.1366 16.7077 36.1402 16.7187 36.1448C16.7408 36.1542 16.773 36.1677 16.8145 36.1848C16.8974 36.2189 17.0174 36.2674 17.167 36.3254C17.4661 36.4411 17.8847 36.595 18.3634 36.7476C19.3101 37.0494 20.5318 37.3593 21.5308 37.3351L21.5145 36.6624C20.6348 36.6838 19.504 36.4049 18.5677 36.1065C18.105 35.959 17.6996 35.81 17.41 35.6979C17.2653 35.6419 17.1498 35.5952 17.0708 35.5626C17.0313 35.5464 17.001 35.5336 16.9807 35.5251C16.9706 35.5208 16.963 35.5176 16.958 35.5154C16.9555 35.5144 16.9537 35.5136 16.9526 35.5131C16.952 35.5128 16.9516 35.5127 16.9513 35.5126C16.9512 35.5125 16.9511 35.5125 16.9511 35.5125C16.9511 35.5124 16.9511 35.5125 16.9511 35.5124C16.9511 35.5125 16.9511 35.5125 16.8175 35.8212ZM21.5308 37.3351C23.2754 37.2928 24.383 36.9827 25.8958 36.1129L25.5604 35.5296C24.1448 36.3434 23.1469 36.6229 21.5145 36.6624L21.5308 37.3351ZM23.6038 13.9987C23.8536 14.422 23.9956 14.888 23.9912 15.3608L24.664 15.3671C24.6698 14.7539 24.4854 14.1688 24.1833 13.6568L23.6038 13.9987ZM2.00755 35.4848C1.63574 35.4848 1.33644 35.1856 1.33644 34.8141H0.663565C0.663565 35.5576 1.26452 36.1577 2.00755 36.1577V35.4848ZM1.04668 13.8575C0.791118 14.2403 0.663563 14.6795 0.663563 15.135H1.33644C1.33644 14.8076 1.42724 14.4994 1.60632 14.2311L1.04668 13.8575Z" fill="white"/>
<path d="M14.7939 5.20546C14.2893 5.37368 13.0931 7.01559 14.3214 6.37476C17.4495 4.74273 19.4854 8.70844 21.6216 5.5577C22.5707 4.15778 18.1409 3.43898 17.6537 3.85971" stroke="#333333" stroke-width="0.672874"/>
<path d="M43.1085 20.738C41.9399 19.7961 35.1992 21.5669 35.2023 20.7091C35.2078 19.1952 44.8122 14.8565 44.8122 14.8565C44.8122 14.8565 32.6864 18.6813 32.6741 22.0457C32.6668 24.0643 37.8895 21.8965 39.7368 22.7443C40.9309 23.2923 30.4634 28.5982 30.4634 28.5982C30.4634 28.5982 29.2742 31.79 29.4424 31.7906C30.6199 31.7949 37.3652 27.2776 37.3652 27.2776C37.3652 27.2776 32.4716 31.4652 28.4264 33.6373C27.727 34.0128 27.5785 35.4847 27.5785 35.4847C27.5785 35.4847 31.8749 33.1758 34.4902 31.4726C37.0116 29.8305 41.2379 26.2824 41.2379 26.2824C41.2379 26.2824 38.3132 28.5067 36.3467 29.7972C34.5476 30.9778 31.6262 32.6397 31.6262 32.6397C31.6262 32.6397 46.4631 23.4417 43.1085 20.738Z" fill="white"/>
<path d="M30.464 28.43L36.1969 24.75L30.4665 27.7571L30.464 28.43Z" fill="white"/>
<path d="M27.6113 17.2987C27.6113 17.2987 29.069 18.6789 29.608 19.6723C30.5295 21.3705 30.9102 24.3946 30.9102 24.3946C30.9102 24.3946 31.0952 21.2629 30.1142 19.5087C29.4523 18.325 27.6113 17.2987 27.6113 17.2987Z" fill="white"/>
<path d="M30.1282 17.9948C30.1282 17.9948 30.65 18.6588 30.9584 19.1801C31.4134 19.9491 31.611 21.373 31.611 21.373C31.611 21.373 31.7136 19.939 31.2948 19.1832C30.9796 18.6143 30.1282 17.9948 30.1282 17.9948Z" fill="white"/>
<path d="M5.23848 18.3427C5.48587 18.2972 5.70072 18.2483 5.88301 18.1963C6.07181 18.1442 6.22806 18.0823 6.35176 18.0107C6.47546 17.9326 6.5666 17.8414 6.6252 17.7373C6.6903 17.6266 6.72285 17.4899 6.72285 17.3271C6.72285 17.1904 6.67077 17.0667 6.5666 16.956C6.46244 16.8453 6.32572 16.7509 6.15645 16.6728C5.98717 16.5947 5.79186 16.5361 5.57051 16.497C5.34915 16.458 5.11803 16.4384 4.87715 16.4384C4.81855 16.4384 4.75996 16.4384 4.70137 16.4384C4.64277 16.4384 4.58092 16.4417 4.51582 16.4482C4.55488 16.6631 4.58092 16.9072 4.59395 17.1806C4.61348 17.4541 4.62324 17.7373 4.62324 18.0302C4.62324 18.2776 4.61673 18.5283 4.60371 18.7822C4.5972 19.0361 4.58744 19.277 4.57441 19.5049C4.56139 19.7262 4.54186 19.9313 4.51582 20.1201C4.49629 20.3024 4.47676 20.4521 4.45723 20.5693C4.4377 20.6605 4.39863 20.7288 4.34004 20.7744C4.28796 20.82 4.22611 20.8427 4.15449 20.8427C4.08288 20.8427 4.01452 20.82 3.94941 20.7744C3.89082 20.7288 3.86152 20.6605 3.86152 20.5693C3.86152 20.5368 3.86478 20.5107 3.87129 20.4912C3.89082 20.3284 3.91035 20.1494 3.92988 19.9541C3.95592 19.7522 3.97546 19.5407 3.98848 19.3193C4.0015 19.098 4.01126 18.8733 4.01777 18.6455C4.03079 18.4111 4.0373 18.18 4.0373 17.9521C4.0373 17.581 4.02428 17.2392 3.99824 16.9267C3.9722 16.6077 3.92337 16.3636 3.85176 16.1943C3.8127 16.1097 3.79316 16.0315 3.79316 15.9599C3.79316 15.8688 3.81595 15.7972 3.86152 15.7451C3.9071 15.6865 3.96569 15.6572 4.0373 15.6572C4.161 15.6572 4.26842 15.7321 4.35957 15.8818C4.43119 15.8753 4.49954 15.872 4.56465 15.872C4.62975 15.872 4.69486 15.872 4.75996 15.872C5.08548 15.872 5.40124 15.9013 5.70723 15.9599C6.01973 16.0185 6.29316 16.1064 6.52754 16.2236C6.76842 16.3408 6.96048 16.4905 7.10371 16.6728C7.25345 16.8551 7.32832 17.0732 7.32832 17.3271C7.32832 17.7763 7.15254 18.1279 6.80098 18.3818C6.45592 18.6357 5.96764 18.805 5.33613 18.8896C5.32311 18.8896 5.31335 18.8929 5.30684 18.8994C5.30684 18.8994 5.30033 18.8994 5.2873 18.8994C5.20267 18.8994 5.14082 18.8701 5.10176 18.8115C5.0627 18.7464 5.04316 18.6748 5.04316 18.5966C5.04316 18.5446 5.05944 18.4925 5.09199 18.4404C5.12454 18.3883 5.17337 18.3558 5.23848 18.3427ZM8.8127 16.1748C8.78014 16.4287 8.75736 16.7412 8.74434 17.1123C8.73132 17.4769 8.7248 17.8545 8.7248 18.2451C8.7248 18.6487 8.73783 19.0459 8.76387 19.4365C8.79642 19.8271 8.8127 20.1689 8.8127 20.4619C8.8127 20.5856 8.7834 20.6832 8.7248 20.7549C8.66621 20.82 8.5946 20.8525 8.50996 20.8525C8.45788 20.8525 8.40579 20.8297 8.35371 20.7841C8.30814 20.7321 8.27884 20.6539 8.26582 20.5498C8.22025 20.1787 8.1877 19.762 8.16816 19.2998C8.15514 18.8375 8.14863 18.372 8.14863 17.9033C8.14863 17.5582 8.15514 17.2295 8.16816 16.917C8.18119 16.598 8.20072 16.305 8.22676 16.0381C8.23978 15.9404 8.26908 15.8688 8.31465 15.8232C8.36022 15.7776 8.41882 15.7549 8.49043 15.7549C8.57507 15.7549 8.64994 15.7874 8.71504 15.8525C8.78014 15.9176 8.8127 16.0055 8.8127 16.1162V16.1748ZM10.883 16.2334C10.8765 16.2138 10.8732 16.1845 10.8732 16.1455C10.8732 16.0348 10.9025 15.9502 10.9611 15.8916C11.0262 15.8265 11.0946 15.7939 11.1662 15.7939C11.2248 15.7939 11.2834 15.82 11.342 15.872C11.4006 15.9176 11.4364 15.986 11.4494 16.0771C11.5015 16.3961 11.534 16.7314 11.5471 17.083C11.5666 17.4345 11.5764 17.7926 11.5764 18.1572C11.5764 18.3134 11.5731 18.4957 11.5666 18.7041C11.5601 18.9059 11.5471 19.1142 11.5275 19.3291C11.508 19.5374 11.482 19.7457 11.4494 19.9541C11.4234 20.1559 11.3908 20.3382 11.3518 20.5009C11.3127 20.6572 11.2639 20.7841 11.2053 20.8818C11.1467 20.9795 11.0816 21.0283 11.01 21.0283C10.9383 21.0283 10.8732 21.0022 10.8146 20.9502C10.7626 20.8981 10.7365 20.8167 10.7365 20.706C10.7365 20.6539 10.7398 20.6149 10.7463 20.5888C10.8179 20.2568 10.8732 19.9345 10.9123 19.622C10.9514 19.3095 10.9807 18.997 11.0002 18.6845C10.6096 18.7627 10.2027 18.8017 9.77949 18.8017C9.55163 18.8017 9.37585 18.7887 9.25215 18.7627C9.12845 18.7366 9.0666 18.6487 9.0666 18.499C9.0666 18.4274 9.09915 18.3688 9.16426 18.3232C9.22936 18.2711 9.32051 18.2451 9.4377 18.2451C9.48978 18.2516 9.54186 18.2549 9.59395 18.2549C9.64603 18.2549 9.69811 18.2549 9.7502 18.2549C9.95853 18.2549 10.1701 18.2451 10.385 18.2256C10.5998 18.1995 10.8114 18.1605 11.0197 18.1084C11.0197 17.7568 11.0067 17.4248 10.9807 17.1123C10.9546 16.7998 10.9221 16.5068 10.883 16.2334Z" fill="url(#paint0_linear)"/>
<defs>
<linearGradient id="paint0_linear" x1="12.4388" y1="20.1955" x2="6.42526" y2="10.6482" gradientUnits="userSpaceOnUse">
<stop offset="0.135417" stop-color="#F23D3D"/>
<stop offset="1" stop-color="#D95E32"/>
</linearGradient>
</defs>
</svg>
